<svg xmlns="http://www.w3.org/2000/svg" xml:space="preserve" id="Слой_1" x="0" y="0" style="enable-background:new 0 0 698 344" version="1.1" viewBox="0 0 698 344">
  <style>
    .st0{fill:#fff}
  </style>
  <path d="M16.7 128.25c-1.72.32-1.27 1.6-.77 2.58.64 1.25 5.9.83 7.64.81 2.63-.02 628.79-.34 652.21-2.41 3.81.07 5.32-1.77 4.19-3.88-.21-.4-39.78-1.13-52.78-1.09-13.38.05-573.83 1.99-587.25 2.65-6.35.31-12.76.08-19.11.55-.29.02.31-20.19.22-30.72-.07-8.48.02-17.08-.8-25.56 5.55-.14 11.09-.28 16.63-.41 19.2.73 38.55.35 57.67.54 25.35.25 530.89-1.56 582.03-1.06.57.01.79 43.4 2.9 51.58.32 1.24 2.99-.45 3.09-1.3 1.08-9.3-.19-46.01-.85-51.29.12-6.43-3.85-5.29-6.1-4.95-.72.11-450.58-.16-501.4.15-33.79.21-155.39-.28-157.68 1.99-3.12 5.29-.7 38.64.16 61.82z" class="st0"/>
  <path d="M107.99 87.57c-.06-.01-.13-.01-.19-.01-.1-.59-.23-1.18-.39-1.77-.29-1.02-2.39.34-2.59.88-.08.21-.15.44-.22.66-10.77-.72-21.52-.65-32.33-.57-11.15.08-22.23-1.01-33.94-.18-.02-.03-.03-.07-.05-.1-.63-1.08-2.7.35-2.84 1.19-.71 4.29-.2 10.19-.61 14.54-.26 2.72-.23 9.07-.31 9.95-.14 1.62 28.43.36 41.19.33 13.96-.03 18.83 1.17 32.66-.94.67-.1 3.65-2.24 1.79-2.54-3.63-.59-1.54-9.36-1.8-13.36-.15-2.21-.12-4.42-.36-6.6.8-.61 1.26-1.37-.01-1.48zm-31.12 20.78c-12.53.26-37.58 1.32-37.58 1.32l.74-17.07a2.432 2.432 0 0 1 2.52-2.33c5.61.2 49.15.81 60.23.09.15 5.67.15 12.75.15 17.92-9.02-.06-17.34-.11-26.06.07zM155.12 106.41V93.29h-3.04v5.17h-5.97v-5.17h-3.04v13.12h3.04v-5.38h5.97v5.38zM167.47 93.57c-.87-.34-1.82-.51-2.86-.51-1.03 0-1.98.17-2.85.51-.88.34-1.64.81-2.29 1.42-.65.61-1.15 1.33-1.51 2.16-.36.83-.54 1.72-.54 2.7 0 .98.18 1.88.54 2.7.36.83.86 1.54 1.5 2.15.64.61 1.41 1.09 2.29 1.43.88.34 1.84.51 2.88.51 1.03 0 1.97-.17 2.84-.51.87-.34 1.63-.81 2.27-1.41.65-.61 1.15-1.32 1.51-2.16.36-.83.54-1.73.54-2.71 0-.99-.18-1.89-.54-2.71-.36-.82-.87-1.53-1.51-2.15-.64-.61-1.4-1.08-2.27-1.42zm.94 7.99a3.881 3.881 0 0 1-2.17 2.19c-.5.2-1.04.3-1.62.3-.59 0-1.13-.1-1.63-.3-.5-.2-.94-.49-1.31-.86-.37-.38-.66-.82-.86-1.34-.21-.52-.31-1.08-.31-1.7 0-.62.1-1.19.31-1.71a3.881 3.881 0 0 1 2.17-2.19c.49-.2 1.04-.3 1.62-.3.59 0 1.13.1 1.63.3.5.2.94.49 1.31.86.37.38.66.82.86 1.33.21.51.31 1.08.31 1.71 0 .62-.1 1.19-.31 1.71zM181.53 101.44l-4.92-8.15h-2.52v13.12h2.85V98.7l3.85 6.32h1.37l3.87-6.49.02 7.88h2.85l-.03-13.12h-2.5zM201.95 95.72v-2.43h-9.93v13.12h10.18v-2.44h-7.16v-3.03h6.11v-2.36h-6.11v-2.86zM229.31 96.81c.38-.38.82-.66 1.33-.86.51-.2 1.08-.3 1.69-.3.65 0 1.25.13 1.8.38.55.26 1.05.64 1.5 1.15l1.95-1.8c-.63-.76-1.4-1.34-2.32-1.73-.92-.39-1.95-.59-3.09-.59-1.03 0-1.97.17-2.84.5-.86.33-1.62.8-2.26 1.41-.65.61-1.15 1.33-1.5 2.16-.36.82-.54 1.73-.54 2.72 0 .99.18 1.89.54 2.72.36.83.85 1.54 1.49 2.16a6.65 6.65 0 0 0 2.26 1.41c.87.33 1.81.5 2.83.5 1.15 0 2.19-.2 3.11-.6.92-.4 1.69-.98 2.32-1.74l-1.95-1.8c-.45.52-.95.92-1.5 1.17-.55.26-1.15.38-1.8.38-.61 0-1.18-.1-1.69-.3-.51-.2-.96-.49-1.33-.86-.38-.38-.67-.82-.87-1.33-.21-.51-.31-1.08-.31-1.71 0-.62.1-1.19.31-1.71.21-.51.5-.95.87-1.33zM243.51 93.29l-5.86 13.12h3.12l1.17-2.81h6.09l1.17 2.81h3.19l-5.88-13.12h-3zm-.61 8 2.09-5.02 2.08 5.02h-4.17zM258.87 106.41V95.76h4.2v-2.47h-11.45v2.47h4.21v10.65zM274.64 95.72v-2.43h-9.93v13.12h10.18v-2.44h-7.16v-3.03h6.1v-2.36h-6.1v-2.86zM280.75 96.81c.38-.38.84-.66 1.36-.86.53-.2 1.11-.3 1.75-.3.66 0 1.28.12 1.84.37.56.24 1.08.62 1.56 1.12l1.95-1.8c-.64-.74-1.42-1.3-2.36-1.69-.93-.39-1.98-.58-3.14-.58-1.05 0-2.02.17-2.89.5-.88.33-1.64.8-2.29 1.41-.65.61-1.15 1.33-1.51 2.16-.36.82-.54 1.73-.54 2.72 0 .99.18 1.89.54 2.72.36.83.86 1.54 1.5 2.16.64.61 1.4 1.08 2.27 1.41.87.33 1.82.5 2.86.5.94 0 1.88-.14 2.83-.43.95-.29 1.77-.7 2.49-1.24v-5.32h-2.78v3.83c-.2.11-.4.21-.61.28-.57.19-1.16.29-1.76.29-.63 0-1.2-.1-1.72-.3-.52-.2-.97-.49-1.35-.87-.38-.38-.68-.83-.88-1.34-.21-.51-.31-1.07-.31-1.69 0-.62.1-1.19.31-1.71s.5-.96.88-1.34zM301.01 93.57c-.87-.34-1.82-.51-2.86-.51-1.03 0-1.98.17-2.85.51-.88.34-1.64.81-2.29 1.42-.65.61-1.15 1.33-1.51 2.16-.36.83-.54 1.72-.54 2.7 0 .98.18 1.88.54 2.7.36.83.86 1.54 1.5 2.15.64.61 1.41 1.09 2.29 1.43.88.34 1.84.51 2.88.51 1.03 0 1.97-.17 2.84-.51.87-.34 1.63-.81 2.27-1.41.65-.61 1.15-1.32 1.51-2.16.36-.83.54-1.73.54-2.71 0-.99-.18-1.89-.54-2.71-.36-.82-.87-1.53-1.51-2.15-.64-.61-1.4-1.08-2.27-1.42zm.94 7.99a3.881 3.881 0 0 1-2.17 2.19c-.5.2-1.04.3-1.62.3-.59 0-1.13-.1-1.63-.3-.5-.2-.94-.49-1.31-.86-.37-.38-.66-.82-.86-1.34-.21-.52-.31-1.08-.31-1.7 0-.62.1-1.19.31-1.71a3.881 3.881 0 0 1 2.17-2.19c.49-.2 1.04-.3 1.62-.3.59 0 1.13.1 1.63.3.5.2.94.49 1.31.86.37.38.66.82.86 1.33.21.51.31 1.08.31 1.71 0 .62-.1 1.19-.31 1.71zM318.34 100.57c.46-.71.69-1.55.69-2.52 0-.99-.23-1.84-.69-2.55-.46-.71-1.12-1.26-1.97-1.64-.85-.38-1.87-.57-3.04-.57h-5.69v13.12h3.04v-3.66h2.65c.05 0 .09-.01.14-.01l2.53 3.67h3.29l-2.94-4.21c.01 0 .02 0 .03-.01.84-.37 1.49-.91 1.96-1.62zm-3.08-.84c-.46.41-1.16.61-2.1.61h-2.48v-4.57h2.48c.94 0 1.64.2 2.1.6.46.4.69.96.69 1.69 0 .7-.23 1.26-.69 1.67zM321.43 93.29h3.04v13.12h-3.04zM337.53 95.72v-2.43h-9.94v13.12h10.18v-2.44h-7.15v-3.03h6.1v-2.36h-6.1v-2.86zM345.98 104.02c-.37.12-.86.18-1.46.18-.79 0-1.57-.13-2.34-.38-.77-.25-1.44-.58-2-.98l-1.03 2.29c.59.45 1.36.81 2.33 1.1.96.28 1.97.42 3.02.42 1.25 0 2.29-.19 3.11-.56.82-.38 1.44-.87 1.85-1.48.41-.61.62-1.29.62-2.02 0-.69-.14-1.26-.42-1.71a3.37 3.37 0 0 0-1.1-1.09c-.45-.27-.95-.49-1.49-.66-.54-.16-1.09-.31-1.63-.43-.54-.13-1.04-.25-1.49-.38-.45-.13-.81-.29-1.09-.5a.966.966 0 0 1-.41-.82c0-.29.08-.54.24-.76.16-.22.43-.4.81-.53.38-.14.86-.21 1.45-.21s1.19.09 1.8.25c.61.17 1.23.43 1.84.78l.94-2.31c-.61-.39-1.32-.68-2.12-.87-.8-.19-1.62-.29-2.44-.29-1.24 0-2.27.18-3.09.55-.82.37-1.43.86-1.84 1.48-.41.62-.61 1.3-.61 2.05 0 .7.14 1.27.42 1.72.28.45.65.81 1.1 1.09.45.28.95.5 1.49.68.54.17 1.09.32 1.63.44.54.12 1.04.24 1.49.38.45.13.81.3 1.09.51.28.21.41.49.41.83 0 .27-.09.52-.26.73-.17.22-.45.38-.82.5zM371.7 106.41h3.12l1.17-2.81h6.09l1.17 2.81h3.19l-5.88-13.12h-3l-5.86 13.12zm9.42-5.12h-4.18l2.09-5.02 2.09 5.02zM398.7 98.49c.34-.51.51-1.1.51-1.79 0-1.03-.42-1.85-1.25-2.47-.83-.63-2.07-.94-3.73-.94h-6.42v13.12h6.8c1.73 0 3.03-.32 3.92-.95.89-.63 1.33-1.51 1.33-2.63 0-.76-.18-1.41-.54-1.93-.36-.52-.85-.92-1.49-1.19-.13-.05-.27-.08-.41-.12.54-.27.97-.63 1.28-1.1zm-7.87-2.91h3.02c.74 0 1.3.13 1.7.38.4.26.59.64.59 1.15 0 .53-.2.92-.59 1.17-.39.26-.96.38-1.7.38h-3.02v-3.08zm5.35 8.16c-.41.26-1 .38-1.79.38h-3.55v-3.24h3.55c.79 0 1.39.13 1.79.4.41.27.61.68.61 1.23 0 .56-.21.97-.61 1.23zM411.4 93.57c-.87-.34-1.82-.51-2.86-.51-1.03 0-1.98.17-2.85.51-.88.34-1.64.81-2.29 1.42-.65.61-1.16 1.33-1.51 2.16-.36.83-.54 1.72-.54 2.7 0 .98.18 1.88.54 2.7.36.83.86 1.54 1.5 2.15.64.61 1.41 1.09 2.29 1.43.88.34 1.84.51 2.88.51 1.03 0 1.98-.17 2.84-.51.87-.34 1.63-.81 2.27-1.41.64-.61 1.15-1.32 1.51-2.16.36-.83.54-1.73.54-2.71 0-.99-.18-1.89-.54-2.71-.36-.82-.87-1.53-1.51-2.15-.64-.61-1.4-1.08-2.27-1.42zm.94 7.99a3.881 3.881 0 0 1-2.17 2.19c-.5.2-1.04.3-1.62.3-.59 0-1.13-.1-1.63-.3-.5-.2-.94-.49-1.31-.86-.37-.38-.66-.82-.86-1.34-.21-.52-.31-1.08-.31-1.7 0-.62.1-1.19.31-1.71.21-.51.5-.96.87-1.33.38-.38.81-.66 1.31-.86.49-.2 1.03-.3 1.62-.3.59 0 1.13.1 1.63.3.5.2.94.49 1.3.86.37.38.66.82.86 1.33s.31 1.08.31 1.71c0 .62-.1 1.19-.31 1.71zM417.91 93.29v7.35c0 1.92.53 3.41 1.58 4.44 1.05 1.04 2.51 1.56 4.37 1.56 1.87 0 3.32-.52 4.38-1.56 1.05-1.04 1.58-2.52 1.58-4.44v-7.35h-3v7.24c0 1.25-.26 2.15-.77 2.7-.51.55-1.23.83-2.16.83-.93 0-1.65-.27-2.16-.83s-.77-1.45-.77-2.7v-7.24h-3.05zM438.36 106.41V95.76h4.2v-2.47h-11.45v2.47h4.21v10.65zM471.25 104.02c-.37.12-.86.18-1.46.18-.79 0-1.57-.13-2.34-.38-.77-.25-1.44-.58-2-.98l-1.03 2.29c.59.45 1.36.81 2.33 1.1.96.28 1.97.42 3.02.42 1.25 0 2.29-.19 3.11-.56.82-.38 1.44-.87 1.85-1.48.41-.61.62-1.29.62-2.02 0-.69-.14-1.26-.42-1.71a3.37 3.37 0 0 0-1.1-1.09c-.45-.27-.95-.49-1.49-.66-.54-.16-1.09-.31-1.63-.43-.54-.13-1.04-.25-1.49-.38-.45-.13-.81-.29-1.09-.5a.966.966 0 0 1-.41-.82c0-.29.08-.54.24-.76.16-.22.43-.4.81-.53.38-.14.86-.21 1.45-.21s1.19.09 1.8.25c.61.17 1.23.43 1.84.78l.94-2.31c-.61-.39-1.32-.68-2.12-.87-.8-.19-1.61-.29-2.44-.29-1.24 0-2.27.18-3.09.55-.82.37-1.43.86-1.84 1.48-.41.62-.61 1.3-.61 2.05 0 .7.14 1.27.42 1.72.28.45.65.81 1.1 1.09.45.28.95.5 1.49.68.54.17 1.09.32 1.63.44.54.12 1.04.24 1.49.38.45.13.81.3 1.09.51.28.21.41.49.41.83 0 .27-.09.52-.26.73-.18.22-.46.38-.82.5zM486.66 93.57c-.87-.34-1.82-.51-2.86-.51-1.03 0-1.98.17-2.85.51-.88.34-1.64.81-2.29 1.42-.65.61-1.16 1.33-1.51 2.16-.36.83-.54 1.72-.54 2.7 0 .98.18 1.88.54 2.7.36.83.86 1.54 1.5 2.15.64.61 1.41 1.09 2.29 1.43.88.34 1.84.51 2.88.51 1.03 0 1.98-.17 2.84-.51.87-.34 1.63-.81 2.27-1.41.64-.61 1.15-1.32 1.51-2.16.36-.83.54-1.73.54-2.71 0-.99-.18-1.89-.54-2.71-.36-.82-.87-1.53-1.51-2.15-.64-.61-1.4-1.08-2.27-1.42zm.94 7.99a3.881 3.881 0 0 1-2.17 2.19c-.5.2-1.04.3-1.62.3-.59 0-1.13-.1-1.63-.3-.5-.2-.94-.49-1.31-.86-.37-.38-.66-.82-.86-1.34-.21-.52-.31-1.08-.31-1.7 0-.62.1-1.19.31-1.71.21-.51.5-.96.87-1.33.38-.38.81-.66 1.31-.86.49-.2 1.03-.3 1.62-.3.59 0 1.13.1 1.63.3.5.2.94.49 1.3.86.37.38.66.82.86 1.33.21.51.31 1.08.31 1.71 0 .62-.1 1.19-.31 1.71zM496.72 96.81c.38-.38.82-.66 1.33-.86.51-.2 1.08-.3 1.69-.3.65 0 1.25.13 1.8.38.55.26 1.05.64 1.5 1.15l1.95-1.8c-.63-.76-1.4-1.34-2.32-1.73-.92-.39-1.95-.59-3.09-.59-1.03 0-1.97.17-2.84.5-.86.33-1.62.8-2.26 1.41-.65.61-1.15 1.33-1.5 2.16-.36.82-.54 1.73-.54 2.72 0 .99.18 1.89.54 2.72.36.83.85 1.54 1.49 2.16a6.65 6.65 0 0 0 2.26 1.41c.87.33 1.81.5 2.83.5 1.15 0 2.19-.2 3.11-.6.92-.4 1.69-.98 2.32-1.74l-1.95-1.8c-.45.52-.95.92-1.5 1.17-.55.26-1.15.38-1.8.38-.61 0-1.18-.1-1.69-.3-.51-.2-.96-.49-1.33-.86-.37-.38-.67-.82-.87-1.33-.21-.51-.31-1.08-.31-1.71 0-.62.1-1.19.31-1.71.2-.51.49-.95.87-1.33zM507.05 93.29h3.04v13.12h-3.04zM511.48 106.41h3.12l1.17-2.81h6.09l1.17 2.81h3.19l-5.88-13.12h-3l-5.86 13.12zm9.42-5.12h-4.18l2.09-5.02 2.09 5.02zM527.59 93.29v13.12h9.63v-2.47h-6.59V93.29zM563.62 96.81c.38-.38.82-.66 1.33-.86.51-.2 1.08-.3 1.69-.3.65 0 1.25.13 1.8.38.55.26 1.05.64 1.5 1.15l1.95-1.8c-.63-.76-1.4-1.34-2.32-1.73-.92-.39-1.95-.59-3.09-.59-1.03 0-1.97.17-2.84.5-.86.33-1.62.8-2.26 1.41-.65.61-1.15 1.33-1.5 2.16-.36.82-.54 1.73-.54 2.72 0 .99.18 1.89.54 2.72.36.83.85 1.54 1.49 2.16a6.65 6.65 0 0 0 2.26 1.41c.87.33 1.81.5 2.83.5 1.15 0 2.19-.2 3.11-.6.92-.4 1.69-.98 2.32-1.74l-1.95-1.8c-.45.52-.95.92-1.5 1.17-.55.26-1.15.38-1.8.38-.61 0-1.18-.1-1.69-.3-.51-.2-.96-.49-1.33-.86-.37-.38-.67-.82-.87-1.33-.21-.51-.31-1.08-.31-1.71 0-.62.1-1.19.31-1.71.2-.51.5-.95.87-1.33zM582.89 93.57c-.87-.34-1.82-.51-2.86-.51-1.03 0-1.98.17-2.85.51-.88.34-1.64.81-2.29 1.42-.65.61-1.16 1.33-1.51 2.16-.36.83-.54 1.72-.54 2.7 0 .98.18 1.88.54 2.7.36.83.86 1.54 1.5 2.15.64.61 1.41 1.09 2.29 1.43.88.34 1.84.51 2.88.51 1.03 0 1.98-.17 2.84-.51.87-.34 1.63-.81 2.27-1.41.64-.61 1.15-1.32 1.51-2.16.36-.83.54-1.73.54-2.71 0-.99-.18-1.89-.54-2.71-.36-.82-.87-1.53-1.51-2.15-.64-.61-1.4-1.08-2.27-1.42zm.94 7.99a3.881 3.881 0 0 1-2.17 2.19c-.5.2-1.04.3-1.62.3-.59 0-1.13-.1-1.63-.3-.5-.2-.94-.49-1.31-.86-.37-.38-.66-.82-.86-1.34-.21-.52-.31-1.08-.31-1.7 0-.62.1-1.19.31-1.71.21-.51.5-.96.87-1.33.38-.38.81-.66 1.31-.86.49-.2 1.03-.3 1.62-.3.59 0 1.13.1 1.63.3.5.2.94.49 1.3.86.37.38.66.82.86 1.33.21.51.31 1.08.31 1.71 0 .62-.1 1.19-.31 1.71zM592.03 93.29h-2.52v13.12h3.01v-7.96l6.55 7.96h2.5V93.29h-3.01v7.96zM610.45 106.41V95.76h4.21v-2.47H603.2v2.47h4.21v10.65zM618.19 103.6h6.09l1.17 2.81h3.19l-5.88-13.12h-3l-5.86 13.12h3.12l1.17-2.81zm3.06-7.33 2.08 5.02h-4.18l2.1-5.02zM633.26 96.81c.38-.38.82-.66 1.33-.86.51-.2 1.08-.3 1.69-.3.65 0 1.25.13 1.8.38.55.26 1.05.64 1.5 1.15l1.95-1.8c-.63-.76-1.4-1.34-2.32-1.73-.92-.39-1.95-.59-3.09-.59-1.03 0-1.97.17-2.84.5-.86.33-1.62.8-2.26 1.41-.65.61-1.15 1.33-1.5 2.16-.36.82-.54 1.73-.54 2.72 0 .99.18 1.89.54 2.72.36.83.85 1.54 1.49 2.16a6.65 6.65 0 0 0 2.26 1.41c.87.33 1.81.5 2.83.5 1.15 0 2.19-.2 3.11-.6.92-.4 1.69-.98 2.32-1.74l-1.95-1.8c-.45.52-.95.92-1.5 1.17-.55.26-1.15.38-1.8.38-.61 0-1.18-.1-1.69-.3-.51-.2-.96-.49-1.33-.86-.37-.38-.67-.82-.87-1.33-.21-.51-.31-1.08-.31-1.71 0-.62.1-1.19.31-1.71.21-.51.5-.95.87-1.33zM649.23 106.41V95.76h4.2v-2.47h-11.45v2.47h4.2v10.65zM643.92 24.97c4.63.11 9.27.04 13.9.02 4.37-.03 19.05.09 23.38-.55.77-.11 1.6-6.33 1.79-8.48.05-.52-.54-.76-.97-.77-4.98-.02-18.36-.03-23.34-.05-4.19-.01-9.16-.63-13.14.82-.03.01-.08.03-.14.06-.09-.2-.18-.41-.28-.61-.27-.51-1.4.04-1.52.45-.81 2.7-.58 5.6-.58 8.41.02.48.48.69.9.7zm5.48-7.48c2.45.11 4.89.16 7.34.2 4.59.07 17.57.13 22.16.19-.18 1.47-.4 2.91-.04 4.33-3.68-.32-15.96 0-19.6.05-4.22.05-8.43.08-12.65.23-.19-1.77-.3-3.68-.81-5.4 1.09.46 2.32.34 3.6.4zM643.92 37.39c4.63.11 9.27.04 13.9.02 4.37-.03 19.05.09 23.38-.55.77-.11 1.6-6.33 1.79-8.48.05-.52-.54-.76-.97-.77-4.98-.02-18.36-.03-23.34-.05-4.19-.01-9.16-.63-13.14.82-.03.01-.08.03-.14.06-.09-.2-.18-.41-.28-.61-.27-.51-1.4.04-1.52.45-.81 2.7-.58 5.6-.58 8.41.02.48.48.69.9.7zm5.48-7.48c2.45.11 4.89.16 7.34.2 4.59.07 17.57.13 22.16.19-.18 1.47-.4 2.91-.04 4.33-3.68-.32-15.96 0-19.6.05-4.22.05-8.43.08-12.65.23-.19-1.77-.3-3.68-.81-5.4 1.09.46 2.32.34 3.6.4zM643.83 49.81c4.98.02 9.96.03 14.94.05 4.19.01 17.55.63 21.53-.82.03-.01.08-.03.14-.06.09.2.18.41.28.61.27.51 1.4-.04 1.52-.45.81-2.7.58-5.6.58-8.41 0-.48-.45-.69-.88-.7-4.63-.11-17.66-.04-22.29-.02-4.37.03-10.66-.09-14.99.55-.77.11-1.6 6.33-1.79 8.48-.05.52.54.77.96.77zm3.18-7.02c3.68.32 7.57 0 11.21-.05 4.22-.05 16.83-.08 21.04-.23.19 1.77.3 3.68.81 5.4-1.09-.47-2.31-.35-3.59-.41-2.45-.11-13.28-.16-15.73-.2-4.59-.07-9.18-.13-13.77-.19.17-1.46.39-2.9.03-4.32zM364.18 193.41c.44 1.66 3.86-.63 4.02-1.7.02-.15.03-.3.06-.45 7.36 1.07 15.52.26 22.72.26 9.94 0 34.24-.16 44.18-.32 19.43-.31 97.23 1.26 116.7.22 18.93-1.01 57.24-1.16 57.5.36.38 2.25 4.56.14 4.94-1.27 2.13-7.94 1.91-16.32 1.43-24.48-.43-7.4-1.01-23.58-2.2-23.58-.01 0-2.84-2.07-2.84-2.07-.25 0-77.68-.07-116.59 0-19.65.04-39.3.29-58.95.4-9.6.05-19.2.11-28.8.26-7.81.12-36.51-.99-40.46-.34-.59.1-1.98 1.07-2.17 1.44-4.3 8.22-1.64 17.74-1.74 26.89-.12 9.79-.28 14.9 2.2 24.38zm10.62-47.3c11.75.45 48.58.13 56.55.17 19.51.11 39.03.25 58.54.29 39.48.08 79.05.83 118.49-1.49-.52 7.67.51 15.55.55 23.24.03 4.74-.03 11.36 0 16.17-17.99-.07-36.41.08-54.35 1.05-19.48 1.06-96.63-.19-115.71.33-10.03.28-20.07.47-30.11.74-8.42.23-31.68-.21-40.08 1.07 1.08-10.94.08-15.17.02-29.44-.01-1.86-.14-3.71-.28-5.56 0-.04-.01-.08-.01-.12-.22-3.58 2.8-6.59 6.39-6.45zM680.9 140.63c-9.85-.06-14.13-.76-23.93-.94-10.42-.19-32.57-1.05-34.42 1.72-1.04 1.55-.71 44.44-.71 44.89-.03 3.16 0 3.92 2.39 4.29-.19.01 55.16.71 55.24.18 1.99-.15 3.13-4.53.54-4.74.53-6.54.35-13.12.26-19.69-.09-6.49 0-14.4-.05-20.43 1.64-.04 4.96-5.25.68-5.28zm-53.78 45.04c1.25-10.88-1.16-25.76-.41-36.92.15-2.19 2.06-3.85 4.23-3.66 6.57.56 13.75-.13 20.79.04 7.89.19 21.64.88 21.64.88s.24 15.1.14 22.63c-.08 5.66-.27 11.37.06 17.03-12.57-.48-40.36 1.66-46.45 0z" class="st0"/>
  <path d="M666.35 172.66c-.8-1.08-8.79-6.53-9.94-7.15-1-.54-1.92-1.04-2.84-1.47 1.99-4.81.76-10.94-4.84-12.58-3.39-.99-7.58-.17-10.51 1.75-1.51.99-3.78 2.89-4.25 4.96-.06.07-.12.15-.17.22-2 2.86-1.64 6.47.45 9.18 3.85 4.99 10.76 4.85 15.44 1.38.48.29.96.59 1.42.9 1.04.72 8.03 6.27 9.18 6.8 1.42.65 3.24 1.1 4.77 1.62.94.32 4.19-1.04 3.37-2.38-.64-1.06-1.37-2.29-2.08-3.23zm-20.36-7.13c.25.76-2.79 1.74-3.82 1.08-1.68-1.06-3.06-2.58-3.8-4.44-.59-1.49-1.23-6.08 1.26-6.15.42-.01 1.28-.32 1.8-.77.61-.05 1.26-.02 1.97.19 3.35.98 5.08 4.32 4.98 7.64-1.2.31-2.79 1.23-2.39 2.45zM398.84 173.02c-.6.25-1.36.38-2.3.38-.94 0-1.83-.17-2.67-.52-.84-.34-1.5-.76-1.98-1.26l-.46.77c.51.57 1.23 1.03 2.16 1.38.93.36 1.92.54 2.97.54 1.17 0 2.12-.17 2.87-.52s1.3-.8 1.66-1.37c.36-.57.54-1.19.54-1.85 0-.73-.16-1.32-.48-1.78-.32-.46-.74-.82-1.27-1.09a8.68 8.68 0 0 0-1.71-.66c-.62-.17-1.24-.33-1.87-.48-.63-.15-1.21-.33-1.73-.55-.52-.22-.94-.5-1.26-.87-.32-.36-.47-.85-.47-1.45 0-.52.14-1 .42-1.42.28-.42.72-.77 1.31-1.02.59-.26 1.33-.38 2.23-.38.63 0 1.28.1 1.96.29.68.2 1.31.49 1.9.9l.38-.83c-.54-.39-1.18-.7-1.94-.93-.76-.23-1.53-.34-2.3-.34-1.15 0-2.1.17-2.83.53-.74.35-1.28.81-1.63 1.37-.35.57-.52 1.19-.52 1.86 0 .74.16 1.34.47 1.81.31.46.73.83 1.26 1.1.52.27 1.1.49 1.73.66.63.17 1.25.33 1.87.48.62.15 1.19.33 1.71.55.52.22.95.5 1.27.87.32.36.48.85.48 1.46 0 .51-.14.98-.43 1.39-.3.4-.74.74-1.34.98zM414.82 173.28h-8.69v-5.8h7.5v-.91h-7.5v-5.58h8.39v-.93h-9.41v14.15h9.71zM419.11 170.23h8.16l1.8 3.98h1.11l-6.48-14.15h-1.03l-6.48 14.15h1.11l1.81-3.98zm4.08-9.03 3.7 8.16h-7.38l3.68-8.16zM433.76 169.58h4.02c.48 0 .93-.04 1.35-.1l3.38 4.73h1.17l-3.53-4.95c.24-.07.46-.16.67-.25.84-.38 1.5-.93 1.95-1.64.46-.71.68-1.55.68-2.54 0-1.01-.23-1.87-.68-2.58-.46-.71-1.11-1.25-1.95-1.63-.84-.38-1.86-.57-3.04-.57h-5.05v14.15h1.03v-4.62zm0-8.59h4.02c1.51 0 2.66.33 3.45 1 .78.67 1.18 1.61 1.18 2.84 0 1.21-.39 2.16-1.18 2.83-.78.67-1.93 1.01-3.45 1.01h-4.02v-7.68zM447.94 172.27a7 7 0 0 0 2.32 1.51c.89.36 1.86.54 2.91.54.99 0 1.92-.16 2.79-.5.86-.33 1.6-.82 2.22-1.48l-.64-.67c-.6.61-1.27 1.04-2 1.3s-1.51.39-2.32.39c-.9 0-1.73-.16-2.5-.47a6.08 6.08 0 0 1-2.01-1.31 6.217 6.217 0 0 1-1.33-1.98 6.43 6.43 0 0 1-.47-2.47c0-.89.16-1.71.47-2.47.32-.75.76-1.41 1.33-1.98.57-.57 1.24-1 2.01-1.31.77-.31 1.6-.47 2.5-.47.82 0 1.59.13 2.32.39.73.26 1.4.69 2 1.28l.64-.67a5.897 5.897 0 0 0-2.22-1.48c-.87-.32-1.79-.48-2.79-.48-1.04 0-2.01.18-2.9.54a7 7 0 0 0-2.32 1.51c-.66.65-1.18 1.4-1.54 2.27-.36.87-.54 1.82-.54 2.86 0 1.04.18 1.99.54 2.86.36.88.87 1.64 1.53 2.29zM462.64 167.48h9.41v6.73h1.03v-14.15h-1.03v6.51h-9.41v-6.51h-1.03v14.15h1.03zM622.71 27.62c3.82-2.88 4.96-8.91.18-11.55-2.09-1.16-4.7-1.3-7.04-.78-2.06.46-4.99 1.68-5.36 3.79-.01.06.01.1.02.15-.13.13-.26.25-.38.38-1.63 1.78-2 4.06-.86 6.15 2.51 4.62 9.4 4.9 13.44 1.86zm-8.1-9.01c.12-.03.56-.28.33-.42-.03-.02-.06-.03-.09-.05 1.53-.45 3.09-.4 4.7.65 2.25 1.47 2.73 4.41 1.46 6.57-1.5 2.55-4.75 1.59-6.67-.12-1.73-1.52-3.13-5.78.27-6.63zM606.33 49.9c3.46.2 20.05.12 20.44-.29 5.1-5.39 1.2-19.55-8.92-18.85-3.95.27-7.41 2.61-9.32 5.66-1.79 2.84-4.04 13.37-2.2 13.48zm4.56-10.24c.45-1.19 2.61-4.62 5.1-4.87 1.8-.17 4.63.23 5.4 1.71 0 .01.01.02.01.03 1.52 2.48 2.14 5.51 2.27 8.31.02.42 0 .86-.05 1.31-1.62-.07-4.35.24-5.77.33-3.11.2-5.21-.22-8.29.23 1.03-2.45.37-4.55 1.33-7.05zM18.81 193.41c.56 1.66 5-.63 5.21-1.7.03-.15.05-.3.07-.45 9.53 1.07 20.1.26 29.43.26 12.87 0 44.35-.16 57.22-.32 25.17-.31 125.93 1.26 151.14.22 24.52-1.01 74.14-1.16 74.47.36.49 2.25 5.91.14 6.39-1.27 2.75-7.94 2.47-16.32 1.86-24.48-.56-7.4-1.3-23.58-2.85-23.58-.01 0-3.67-2.07-3.68-2.07-.33 0-100.61-.07-151 0-25.45.04-50.9.29-76.35.4-12.43.05-24.87.11-37.3.26-10.11.12-47.28-.99-52.4-.34-.77.1-2.57 1.07-2.81 1.44-5.58 8.22-2.13 17.74-2.25 26.89-.16 9.79-.36 14.9 2.85 24.38zm13.76-47.3c15.22.45 62.91.13 73.24.17 25.27.11 50.55.25 75.82.29 51.13.08 102.38.83 153.46-1.49-.67 7.67.66 15.55.71 23.24.03 4.74-.04 11.36 0 16.17-23.3-.07-47.16.08-70.39 1.05-25.23 1.06-125.14-.19-149.86.33-13 .28-26 .47-38.99.74-10.91.23-41.03-.21-51.91 1.07 1.4-10.94.1-15.17.03-29.44-.01-1.86-.18-3.71-.36-5.56 0-.04-.01-.08-.01-.12-.32-3.58 3.6-6.59 8.26-6.45zM29.71 38.44H19.65V21.46H15v20.93h14.71zM33.83 39.67c.98.98 2.15 1.73 3.5 2.27s2.82.81 4.4.81c1.57 0 3.02-.27 4.34-.81 1.33-.54 2.49-1.29 3.47-2.26.98-.97 1.75-2.11 2.31-3.44.55-1.33.83-2.77.83-4.32 0-1.57-.28-3.01-.83-4.32-.55-1.31-1.32-2.45-2.31-3.42-.98-.98-2.14-1.73-3.47-2.27s-2.79-.81-4.37-.81c-1.57 0-3.02.27-4.36.81-1.34.54-2.51 1.3-3.5 2.27-.99.98-1.76 2.12-2.31 3.44-.54 1.32-.82 2.75-.82 4.3 0 1.55.27 2.99.82 4.3.55 1.33 1.31 2.47 2.3 3.45zm2.06-10.46c.32-.82.76-1.52 1.33-2.12a5.77 5.77 0 0 1 1.99-1.37c.75-.32 1.58-.48 2.48-.48.9 0 1.73.16 2.49.48.76.32 1.43.78 1.99 1.37.56.6 1 1.31 1.32 2.12.32.82.47 1.72.47 2.72 0 1-.16 1.9-.47 2.72-.32.82-.76 1.52-1.33 2.12a5.77 5.77 0 0 1-1.99 1.37c-.76.32-1.58.48-2.48.48-.9 0-1.73-.16-2.49-.48-.77-.32-1.43-.78-1.99-1.37-.56-.6-1-1.31-1.32-2.14-.32-.83-.47-1.73-.47-2.71 0-.99.16-1.9.47-2.71zM58.03 39.7c.98.98 2.14 1.73 3.47 2.26 1.33.53 2.79.79 4.37.79 1.43 0 2.87-.23 4.32-.69 1.44-.46 2.71-1.12 3.8-1.97V31.6h-4.25v6.13c-.31.17-.62.32-.93.43-.87.31-1.76.46-2.68.46-.96 0-1.83-.16-2.62-.48a5.82 5.82 0 0 1-2.06-1.39 6.49 6.49 0 0 1-1.35-2.14c-.32-.82-.47-1.71-.47-2.69 0-1 .16-1.9.47-2.72.32-.82.77-1.52 1.35-2.12.58-.6 1.28-1.06 2.08-1.37.8-.32 1.69-.48 2.67-.48 1.01 0 1.95.19 2.81.58.86.39 1.65.98 2.38 1.78l2.98-2.87a9.589 9.589 0 0 0-3.6-2.69c-1.42-.62-3.03-.93-4.8-.93-1.61 0-3.08.26-4.42.79a10.294 10.294 0 0 0-5.81 5.7c-.54 1.31-.82 2.76-.82 4.33 0 1.58.27 3.02.82 4.33.54 1.32 1.31 2.47 2.29 3.45zM80.14 39.67c.98.98 2.15 1.73 3.5 2.27s2.82.81 4.4.81c1.57 0 3.02-.27 4.34-.81 1.33-.54 2.49-1.29 3.47-2.26.98-.97 1.75-2.11 2.31-3.44.55-1.33.83-2.77.83-4.32 0-1.57-.28-3.01-.83-4.32-.55-1.31-1.32-2.45-2.31-3.42-.98-.98-2.14-1.73-3.47-2.27s-2.79-.81-4.37-.81c-1.57 0-3.02.27-4.36.81-1.34.54-2.51 1.3-3.5 2.27-.99.98-1.76 2.12-2.31 3.44-.54 1.32-.82 2.75-.82 4.3 0 1.55.27 2.99.82 4.3.55 1.33 1.32 2.47 2.3 3.45zm2.07-10.46c.32-.82.76-1.52 1.33-2.12a5.77 5.77 0 0 1 1.99-1.37c.75-.32 1.58-.48 2.48-.48s1.73.16 2.49.48c.76.32 1.43.78 1.99 1.37.56.6 1 1.31 1.32 2.12.32.82.47 1.72.47 2.72 0 1-.16 1.9-.47 2.72-.32.82-.76 1.52-1.33 2.12a5.77 5.77 0 0 1-1.99 1.37c-.76.32-1.58.48-2.48.48s-1.73-.16-2.49-.48c-.77-.32-1.43-.78-1.99-1.37-.56-.6-1-1.31-1.32-2.14-.32-.83-.47-1.73-.47-2.71 0-.99.15-1.9.47-2.71zM610.17 306.01c-5.67-.81-116.46-16.64-237.12-33.81 139.2-20.49 272.19-40.36 282.25-42.98 3.58-.43 4.68-2.82 3.26-5.17-.27-.44-37.41 4.02-49.56 5.83-6.04.9-131.29 19.51-260.64 38.81C209.95 249 67.13 228.79 60.6 228.23c-5.99-.51-11.95-1.66-17.96-1.98 0 0-.9-.23-4.01.36-1.66.14-1.47 1.73-1.17 2.96.38 1.57 5.37 1.8 7 2.01 1.18.16 136.59 20.02 279.61 40.72-130.54 19.49-257.92 38.61-263.99 39.87-5.89 1.23-11.93 1.81-17.78 3.23 0 0-.93.04-3.74 1.49-1.55.61-.91 2.07-.28 3.17.81 1.4 5.66.19 7.29-.07 1.24-.19 151.63-21.97 302.8-44.18 147.45 21.31 295.38 42.38 306.36 42.76 3.55.61 5.29-1.37 4.6-4.02-.12-.48-36.99-6.8-49.16-8.54z" class="st0"/>
  <path d="M681.46 208.6c-.31-1.19-.08-2.4-.55-3.59 0 0 .02-.06-.12-.22.05-.48-.06-1.01-.35-1.55-.21-.4-39.78-1.13-52.78-1.09-13.38.05-573.83 1.99-587.25 2.65-6.35.31-12.76.08-19.11.55 0 0-.98-.08-4.12.78-.05-.37-.12-.75-.27-1.12 0 0 .08-.18-.79-.78-.32-.32-1.6-.24-2.58-.14-1.25.12-.83 1.11-.81 1.44.02.49.34 118.22 2.41 122.62-.07.72 1.77 1 3.88.79.4-.04 1.13-7.48 1.09-9.92-.04-2.42-1.84-99.9-2.57-109.65 1.81.43 5.17.19 6.49.17 2.63-.02 628.79-.34 652.21-2.41.17 0 .33 0 .48-.01.06 14.01.47 116.92 2.41 121.03-.07.72 1.77 1 3.88.79.4-.04 1.13-7.48 1.09-9.92-.04-2.53-1.98-107.9-2.64-110.42z" class="st0"/>
</svg>
