<?xml version="1.0" encoding="utf-8"?>
<!-- Generator: Adobe Illustrator 27.3.1, SVG Export Plug-In . SVG Version: 6.00 Build 0)  -->
<svg version="1.1" id="Слой_1" xmlns="http://www.w3.org/2000/svg" xmlns:xlink="http://www.w3.org/1999/xlink" x="0px" y="0px"
	 viewBox="0 0 698 344" style="enable-background:new 0 0 698 344;" xml:space="preserve">
<style type="text/css">
	.st0{fill:#FFFFFF;}
</style>
<g>
	<path class="st0" d="M16.7,128.25c-1.72,0.32-1.27,1.6-0.77,2.58c0.64,1.25,5.9,0.83,7.64,0.81c2.63-0.02,628.79-0.34,652.21-2.41
		c3.81,0.07,5.32-1.77,4.19-3.88c-0.21-0.4-39.78-1.13-52.78-1.09c-13.38,0.05-573.83,1.99-587.25,2.65
		c-6.35,0.31-12.76,0.08-19.11,0.55c-0.29,0.02,0.31-20.19,0.22-30.72c-0.07-8.48,0.02-17.08-0.8-25.56
		c5.55-0.14,11.09-0.28,16.63-0.41c19.2,0.73,38.55,0.35,57.67,0.54c25.35,0.25,530.89-1.56,582.03-1.06
		c0.57,0.01,0.79,43.4,2.9,51.58c0.32,1.24,2.99-0.45,3.09-1.3c1.08-9.3-0.19-46.01-0.85-51.29c0.12-6.43-3.85-5.29-6.1-4.95
		c-0.72,0.11-450.58-0.16-501.4,0.15c-33.79,0.21-155.39-0.28-157.68,1.99C13.42,71.72,15.84,105.07,16.7,128.25z"/>
	<path class="st0" d="M107.99,87.57c-0.06-0.01-0.13-0.01-0.19-0.01c-0.1-0.59-0.23-1.18-0.39-1.77c-0.29-1.02-2.39,0.34-2.59,0.88
		c-0.08,0.21-0.15,0.44-0.22,0.66c-10.77-0.72-21.52-0.65-32.33-0.57c-11.15,0.08-22.23-1.01-33.94-0.18
		c-0.02-0.03-0.03-0.07-0.05-0.1c-0.63-1.08-2.7,0.35-2.84,1.19c-0.71,4.29-0.2,10.19-0.61,14.54c-0.26,2.72-0.23,9.07-0.31,9.95
		c-0.14,1.62,28.43,0.36,41.19,0.33c13.96-0.03,18.83,1.17,32.66-0.94c0.67-0.1,3.65-2.24,1.79-2.54c-3.63-0.59-1.54-9.36-1.8-13.36
		c-0.15-2.21-0.12-4.42-0.36-6.6C108.8,88.44,109.26,87.68,107.99,87.57z M76.87,108.35c-12.53,0.26-37.58,1.32-37.58,1.32
		l0.74-17.07c0.06-1.34,1.18-2.38,2.52-2.33c5.61,0.2,49.15,0.81,60.23,0.09c0.15,5.67,0.15,12.75,0.15,17.92
		C93.91,108.22,85.59,108.17,76.87,108.35z"/>
	<polygon class="st0" points="155.12,106.41 155.12,93.29 152.08,93.29 152.08,98.46 146.11,98.46 146.11,93.29 143.07,93.29 
		143.07,106.41 146.11,106.41 146.11,101.03 152.08,101.03 152.08,106.41 	"/>
	<path class="st0" d="M167.47,93.57c-0.87-0.34-1.82-0.51-2.86-0.51c-1.03,0-1.98,0.17-2.85,0.51c-0.88,0.34-1.64,0.81-2.29,1.42
		c-0.65,0.61-1.15,1.33-1.51,2.16c-0.36,0.83-0.54,1.72-0.54,2.7c0,0.98,0.18,1.88,0.54,2.7c0.36,0.83,0.86,1.54,1.5,2.15
		c0.64,0.61,1.41,1.09,2.29,1.43c0.88,0.34,1.84,0.51,2.88,0.51c1.03,0,1.97-0.17,2.84-0.51c0.87-0.34,1.63-0.81,2.27-1.41
		c0.65-0.61,1.15-1.32,1.51-2.16c0.36-0.83,0.54-1.73,0.54-2.71c0-0.99-0.18-1.89-0.54-2.71c-0.36-0.82-0.87-1.53-1.51-2.15
		C169.1,94.38,168.34,93.91,167.47,93.57z M168.41,101.56c-0.21,0.51-0.5,0.96-0.87,1.33c-0.38,0.38-0.81,0.66-1.3,0.86
		c-0.5,0.2-1.04,0.3-1.62,0.3c-0.59,0-1.13-0.1-1.63-0.3c-0.5-0.2-0.94-0.49-1.31-0.86c-0.37-0.38-0.66-0.82-0.86-1.34
		c-0.21-0.52-0.31-1.08-0.31-1.7c0-0.62,0.1-1.19,0.31-1.71c0.21-0.51,0.5-0.96,0.87-1.33c0.38-0.38,0.81-0.66,1.3-0.86
		c0.49-0.2,1.04-0.3,1.62-0.3c0.59,0,1.13,0.1,1.63,0.3c0.5,0.2,0.94,0.49,1.31,0.86c0.37,0.38,0.66,0.82,0.86,1.33
		c0.21,0.51,0.31,1.08,0.31,1.71C168.72,100.47,168.62,101.04,168.41,101.56z"/>
	<polygon class="st0" points="181.53,101.44 176.61,93.29 174.09,93.29 174.09,106.41 176.94,106.41 176.94,98.7 180.79,105.02 
		182.16,105.02 186.03,98.53 186.05,106.41 188.9,106.41 188.87,93.29 186.37,93.29 	"/>
	<polygon class="st0" points="201.95,95.72 201.95,93.29 192.02,93.29 192.02,106.41 202.2,106.41 202.2,103.97 195.04,103.97 
		195.04,100.94 201.15,100.94 201.15,98.58 195.04,98.58 195.04,95.72 	"/>
	<path class="st0" d="M229.31,96.81c0.38-0.38,0.82-0.66,1.33-0.86c0.51-0.2,1.08-0.3,1.69-0.3c0.65,0,1.25,0.13,1.8,0.38
		c0.55,0.26,1.05,0.64,1.5,1.15l1.95-1.8c-0.63-0.76-1.4-1.34-2.32-1.73c-0.92-0.39-1.95-0.59-3.09-0.59c-1.03,0-1.97,0.17-2.84,0.5
		c-0.86,0.33-1.62,0.8-2.26,1.41c-0.65,0.61-1.15,1.33-1.5,2.16c-0.36,0.82-0.54,1.73-0.54,2.72c0,0.99,0.18,1.89,0.54,2.72
		c0.36,0.83,0.85,1.54,1.49,2.16c0.64,0.61,1.39,1.08,2.26,1.41c0.87,0.33,1.81,0.5,2.83,0.5c1.15,0,2.19-0.2,3.11-0.6
		c0.92-0.4,1.69-0.98,2.32-1.74l-1.95-1.8c-0.45,0.52-0.95,0.92-1.5,1.17c-0.55,0.26-1.15,0.38-1.8,0.38c-0.61,0-1.18-0.1-1.69-0.3
		c-0.51-0.2-0.96-0.49-1.33-0.86c-0.38-0.38-0.67-0.82-0.87-1.33c-0.21-0.51-0.31-1.08-0.31-1.71c0-0.62,0.1-1.19,0.31-1.71
		C228.65,97.63,228.94,97.19,229.31,96.81z"/>
	<path class="st0" d="M243.51,93.29l-5.86,13.12h3.12l1.17-2.81h6.09l1.17,2.81h3.19l-5.88-13.12H243.51z M242.9,101.29l2.09-5.02
		l2.08,5.02H242.9z"/>
	<polygon class="st0" points="258.87,106.41 258.87,95.76 263.07,95.76 263.07,93.29 251.62,93.29 251.62,95.76 255.83,95.76 
		255.83,106.41 	"/>
	<polygon class="st0" points="274.64,95.72 274.64,93.29 264.71,93.29 264.71,106.41 274.89,106.41 274.89,103.97 267.73,103.97 
		267.73,100.94 273.83,100.94 273.83,98.58 267.73,98.58 267.73,95.72 	"/>
	<path class="st0" d="M280.75,96.81c0.38-0.38,0.84-0.66,1.36-0.86c0.53-0.2,1.11-0.3,1.75-0.3c0.66,0,1.28,0.12,1.84,0.37
		c0.56,0.24,1.08,0.62,1.56,1.12l1.95-1.8c-0.64-0.74-1.42-1.3-2.36-1.69c-0.93-0.39-1.98-0.58-3.14-0.58
		c-1.05,0-2.02,0.17-2.89,0.5c-0.88,0.33-1.64,0.8-2.29,1.41c-0.65,0.61-1.15,1.33-1.51,2.16c-0.36,0.82-0.54,1.73-0.54,2.72
		c0,0.99,0.18,1.89,0.54,2.72c0.36,0.83,0.86,1.54,1.5,2.16c0.64,0.61,1.4,1.08,2.27,1.41c0.87,0.33,1.82,0.5,2.86,0.5
		c0.94,0,1.88-0.14,2.83-0.43c0.95-0.29,1.77-0.7,2.49-1.24v-5.32h-2.78v3.83c-0.2,0.11-0.4,0.21-0.61,0.28
		c-0.57,0.19-1.16,0.29-1.76,0.29c-0.63,0-1.2-0.1-1.72-0.3c-0.52-0.2-0.97-0.49-1.35-0.87c-0.38-0.38-0.68-0.83-0.88-1.34
		c-0.21-0.51-0.31-1.07-0.31-1.69c0-0.62,0.1-1.19,0.31-1.71C280.08,97.63,280.37,97.19,280.75,96.81z"/>
	<path class="st0" d="M301.01,93.57c-0.87-0.34-1.82-0.51-2.86-0.51c-1.03,0-1.98,0.17-2.85,0.51c-0.88,0.34-1.64,0.81-2.29,1.42
		c-0.65,0.61-1.15,1.33-1.51,2.16c-0.36,0.83-0.54,1.72-0.54,2.7c0,0.98,0.18,1.88,0.54,2.7c0.36,0.83,0.86,1.54,1.5,2.15
		c0.64,0.61,1.41,1.09,2.29,1.43c0.88,0.34,1.84,0.51,2.88,0.51c1.03,0,1.97-0.17,2.84-0.51c0.87-0.34,1.63-0.81,2.27-1.41
		c0.65-0.61,1.15-1.32,1.51-2.16c0.36-0.83,0.54-1.73,0.54-2.71c0-0.99-0.18-1.89-0.54-2.71c-0.36-0.82-0.87-1.53-1.51-2.15
		C302.64,94.38,301.88,93.91,301.01,93.57z M301.95,101.56c-0.21,0.51-0.5,0.96-0.87,1.33c-0.38,0.38-0.81,0.66-1.3,0.86
		c-0.5,0.2-1.04,0.3-1.62,0.3c-0.59,0-1.13-0.1-1.63-0.3c-0.5-0.2-0.94-0.49-1.31-0.86c-0.37-0.38-0.66-0.82-0.86-1.34
		c-0.21-0.52-0.31-1.08-0.31-1.7c0-0.62,0.1-1.19,0.31-1.71c0.21-0.51,0.5-0.96,0.87-1.33c0.38-0.38,0.81-0.66,1.3-0.86
		c0.49-0.2,1.04-0.3,1.62-0.3c0.59,0,1.13,0.1,1.63,0.3c0.5,0.2,0.94,0.49,1.31,0.86c0.37,0.38,0.66,0.82,0.86,1.33
		c0.21,0.51,0.31,1.08,0.31,1.71C302.26,100.47,302.16,101.04,301.95,101.56z"/>
	<path class="st0" d="M318.34,100.57c0.46-0.71,0.69-1.55,0.69-2.52c0-0.99-0.23-1.84-0.69-2.55c-0.46-0.71-1.12-1.26-1.97-1.64
		c-0.85-0.38-1.87-0.57-3.04-0.57h-5.69v13.12h3.04v-3.66h2.65c0.05,0,0.09-0.01,0.14-0.01l2.53,3.67h3.29l-2.94-4.21
		c0.01,0,0.02,0,0.03-0.01C317.22,101.82,317.87,101.28,318.34,100.57z M315.26,99.73c-0.46,0.41-1.16,0.61-2.1,0.61h-2.48v-4.57
		h2.48c0.94,0,1.64,0.2,2.1,0.6c0.46,0.4,0.69,0.96,0.69,1.69C315.95,98.76,315.72,99.32,315.26,99.73z"/>
	<rect x="321.43" y="93.29" class="st0" width="3.04" height="13.12"/>
	<polygon class="st0" points="337.53,95.72 337.53,93.29 327.59,93.29 327.59,106.41 337.77,106.41 337.77,103.97 330.62,103.97 
		330.62,100.94 336.72,100.94 336.72,98.58 330.62,98.58 330.62,95.72 	"/>
	<path class="st0" d="M345.98,104.02c-0.37,0.12-0.86,0.18-1.46,0.18c-0.79,0-1.57-0.13-2.34-0.38c-0.77-0.25-1.44-0.58-2-0.98
		l-1.03,2.29c0.59,0.45,1.36,0.81,2.33,1.1c0.96,0.28,1.97,0.42,3.02,0.42c1.25,0,2.29-0.19,3.11-0.56
		c0.82-0.38,1.44-0.87,1.85-1.48c0.41-0.61,0.62-1.29,0.62-2.02c0-0.69-0.14-1.26-0.42-1.71c-0.28-0.45-0.65-0.81-1.1-1.09
		c-0.45-0.27-0.95-0.49-1.49-0.66c-0.54-0.16-1.09-0.31-1.63-0.43c-0.54-0.13-1.04-0.25-1.49-0.38c-0.45-0.13-0.81-0.29-1.09-0.5
		c-0.28-0.21-0.41-0.48-0.41-0.82c0-0.29,0.08-0.54,0.24-0.76c0.16-0.22,0.43-0.4,0.81-0.53c0.38-0.14,0.86-0.21,1.45-0.21
		c0.59,0,1.19,0.09,1.8,0.25c0.61,0.17,1.23,0.43,1.84,0.78l0.94-2.31c-0.61-0.39-1.32-0.68-2.12-0.87
		c-0.8-0.19-1.62-0.29-2.44-0.29c-1.24,0-2.27,0.18-3.09,0.55c-0.82,0.37-1.43,0.86-1.84,1.48c-0.41,0.62-0.61,1.3-0.61,2.05
		c0,0.7,0.14,1.27,0.42,1.72c0.28,0.45,0.65,0.81,1.1,1.09c0.45,0.28,0.95,0.5,1.49,0.68c0.54,0.17,1.09,0.32,1.63,0.44
		c0.54,0.12,1.04,0.24,1.49,0.38c0.45,0.13,0.81,0.3,1.09,0.51c0.28,0.21,0.41,0.49,0.41,0.83c0,0.27-0.09,0.52-0.26,0.73
		C346.63,103.74,346.35,103.9,345.98,104.02z"/>
	<path class="st0" d="M371.7,106.41h3.12l1.17-2.81h6.09l1.17,2.81h3.19l-5.88-13.12h-3L371.7,106.41z M381.12,101.29h-4.18
		l2.09-5.02L381.12,101.29z"/>
	<path class="st0" d="M398.7,98.49c0.34-0.51,0.51-1.1,0.51-1.79c0-1.03-0.42-1.85-1.25-2.47c-0.83-0.63-2.07-0.94-3.73-0.94h-6.42
		v13.12h6.8c1.73,0,3.03-0.32,3.92-0.95c0.89-0.63,1.33-1.51,1.33-2.63c0-0.76-0.18-1.41-0.54-1.93c-0.36-0.52-0.85-0.92-1.49-1.19
		c-0.13-0.05-0.27-0.08-0.41-0.12C397.96,99.32,398.39,98.96,398.7,98.49z M390.83,95.58h3.02c0.74,0,1.3,0.13,1.7,0.38
		c0.4,0.26,0.59,0.64,0.59,1.15c0,0.53-0.2,0.92-0.59,1.17c-0.39,0.26-0.96,0.38-1.7,0.38h-3.02V95.58z M396.18,103.74
		c-0.41,0.26-1,0.38-1.79,0.38h-3.55v-3.24h3.55c0.79,0,1.39,0.13,1.79,0.4c0.41,0.27,0.61,0.68,0.61,1.23
		C396.79,103.07,396.58,103.48,396.18,103.74z"/>
	<path class="st0" d="M411.4,93.57c-0.87-0.34-1.82-0.51-2.86-0.51c-1.03,0-1.98,0.17-2.85,0.51c-0.88,0.34-1.64,0.81-2.29,1.42
		c-0.65,0.61-1.16,1.33-1.51,2.16c-0.36,0.83-0.54,1.72-0.54,2.7c0,0.98,0.18,1.88,0.54,2.7c0.36,0.83,0.86,1.54,1.5,2.15
		c0.64,0.61,1.41,1.09,2.29,1.43c0.88,0.34,1.84,0.51,2.88,0.51c1.03,0,1.98-0.17,2.84-0.51c0.87-0.34,1.63-0.81,2.27-1.41
		c0.64-0.61,1.15-1.32,1.51-2.16c0.36-0.83,0.54-1.73,0.54-2.71c0-0.99-0.18-1.89-0.54-2.71c-0.36-0.82-0.87-1.53-1.51-2.15
		C413.03,94.38,412.27,93.91,411.4,93.57z M412.34,101.56c-0.21,0.51-0.5,0.96-0.87,1.33c-0.38,0.38-0.81,0.66-1.3,0.86
		c-0.5,0.2-1.04,0.3-1.62,0.3c-0.59,0-1.13-0.1-1.63-0.3c-0.5-0.2-0.94-0.49-1.31-0.86c-0.37-0.38-0.66-0.82-0.86-1.34
		c-0.21-0.52-0.31-1.08-0.31-1.7c0-0.62,0.1-1.19,0.31-1.71c0.21-0.51,0.5-0.96,0.87-1.33c0.38-0.38,0.81-0.66,1.31-0.86
		c0.49-0.2,1.03-0.3,1.62-0.3c0.59,0,1.13,0.1,1.63,0.3c0.5,0.2,0.94,0.49,1.3,0.86c0.37,0.38,0.66,0.82,0.86,1.33
		s0.31,1.08,0.31,1.71C412.65,100.47,412.55,101.04,412.34,101.56z"/>
	<path class="st0" d="M417.91,93.29v7.35c0,1.92,0.53,3.41,1.58,4.44c1.05,1.04,2.51,1.56,4.37,1.56c1.87,0,3.32-0.52,4.38-1.56
		c1.05-1.04,1.58-2.52,1.58-4.44v-7.35h-3v7.24c0,1.25-0.26,2.15-0.77,2.7c-0.51,0.55-1.23,0.83-2.16,0.83
		c-0.93,0-1.65-0.27-2.16-0.83s-0.77-1.45-0.77-2.7v-7.24H417.91z"/>
	<polygon class="st0" points="438.36,106.41 438.36,95.76 442.56,95.76 442.56,93.29 431.11,93.29 431.11,95.76 435.32,95.76 
		435.32,106.41 	"/>
	<path class="st0" d="M471.25,104.02c-0.37,0.12-0.86,0.18-1.46,0.18c-0.79,0-1.57-0.13-2.34-0.38c-0.77-0.25-1.44-0.58-2-0.98
		l-1.03,2.29c0.59,0.45,1.36,0.81,2.33,1.1c0.96,0.28,1.97,0.42,3.02,0.42c1.25,0,2.29-0.19,3.11-0.56
		c0.82-0.38,1.44-0.87,1.85-1.48c0.41-0.61,0.62-1.29,0.62-2.02c0-0.69-0.14-1.26-0.42-1.71c-0.28-0.45-0.65-0.81-1.1-1.09
		c-0.45-0.27-0.95-0.49-1.49-0.66c-0.54-0.16-1.09-0.31-1.63-0.43c-0.54-0.13-1.04-0.25-1.49-0.38c-0.45-0.13-0.81-0.29-1.09-0.5
		c-0.28-0.21-0.41-0.48-0.41-0.82c0-0.29,0.08-0.54,0.24-0.76c0.16-0.22,0.43-0.4,0.81-0.53c0.38-0.14,0.86-0.21,1.45-0.21
		s1.19,0.09,1.8,0.25c0.61,0.17,1.23,0.43,1.84,0.78l0.94-2.31c-0.61-0.39-1.32-0.68-2.12-0.87c-0.8-0.19-1.61-0.29-2.44-0.29
		c-1.24,0-2.27,0.18-3.09,0.55c-0.82,0.37-1.43,0.86-1.84,1.48c-0.41,0.62-0.61,1.3-0.61,2.05c0,0.7,0.14,1.27,0.42,1.72
		c0.28,0.45,0.65,0.81,1.1,1.09c0.45,0.28,0.95,0.5,1.49,0.68c0.54,0.17,1.09,0.32,1.63,0.44c0.54,0.12,1.04,0.24,1.49,0.38
		c0.45,0.13,0.81,0.3,1.09,0.51c0.28,0.21,0.41,0.49,0.41,0.83c0,0.27-0.09,0.52-0.26,0.73
		C471.89,103.74,471.61,103.9,471.25,104.02z"/>
	<path class="st0" d="M486.66,93.57c-0.87-0.34-1.82-0.51-2.86-0.51c-1.03,0-1.98,0.17-2.85,0.51c-0.88,0.34-1.64,0.81-2.29,1.42
		c-0.65,0.61-1.16,1.33-1.51,2.16c-0.36,0.83-0.54,1.72-0.54,2.7c0,0.98,0.18,1.88,0.54,2.7c0.36,0.83,0.86,1.54,1.5,2.15
		c0.64,0.61,1.41,1.09,2.29,1.43c0.88,0.34,1.84,0.51,2.88,0.51c1.03,0,1.98-0.17,2.84-0.51c0.87-0.34,1.63-0.81,2.27-1.41
		c0.64-0.61,1.15-1.32,1.51-2.16c0.36-0.83,0.54-1.73,0.54-2.71c0-0.99-0.18-1.89-0.54-2.71c-0.36-0.82-0.87-1.53-1.51-2.15
		C488.29,94.38,487.53,93.91,486.66,93.57z M487.6,101.56c-0.21,0.51-0.5,0.96-0.87,1.33c-0.38,0.38-0.81,0.66-1.3,0.86
		c-0.5,0.2-1.04,0.3-1.62,0.3c-0.59,0-1.13-0.1-1.63-0.3c-0.5-0.2-0.94-0.49-1.31-0.86c-0.37-0.38-0.66-0.82-0.86-1.34
		c-0.21-0.52-0.31-1.08-0.31-1.7c0-0.62,0.1-1.19,0.31-1.71c0.21-0.51,0.5-0.96,0.87-1.33c0.38-0.38,0.81-0.66,1.31-0.86
		c0.49-0.2,1.03-0.3,1.62-0.3c0.59,0,1.13,0.1,1.63,0.3c0.5,0.2,0.94,0.49,1.3,0.86c0.37,0.38,0.66,0.82,0.86,1.33
		c0.21,0.51,0.31,1.08,0.31,1.71C487.91,100.47,487.81,101.04,487.6,101.56z"/>
	<path class="st0" d="M496.72,96.81c0.38-0.38,0.82-0.66,1.33-0.86c0.51-0.2,1.08-0.3,1.69-0.3c0.65,0,1.25,0.13,1.8,0.38
		c0.55,0.26,1.05,0.64,1.5,1.15l1.95-1.8c-0.63-0.76-1.4-1.34-2.32-1.73c-0.92-0.39-1.95-0.59-3.09-0.59c-1.03,0-1.97,0.17-2.84,0.5
		c-0.86,0.33-1.62,0.8-2.26,1.41c-0.65,0.61-1.15,1.33-1.5,2.16c-0.36,0.82-0.54,1.73-0.54,2.72c0,0.99,0.18,1.89,0.54,2.72
		c0.36,0.83,0.85,1.54,1.49,2.16c0.64,0.61,1.39,1.08,2.26,1.41c0.87,0.33,1.81,0.5,2.83,0.5c1.15,0,2.19-0.2,3.11-0.6
		c0.92-0.4,1.69-0.98,2.32-1.74l-1.95-1.8c-0.45,0.52-0.95,0.92-1.5,1.17c-0.55,0.26-1.15,0.38-1.8,0.38c-0.61,0-1.18-0.1-1.69-0.3
		c-0.51-0.2-0.96-0.49-1.33-0.86c-0.37-0.38-0.67-0.82-0.87-1.33c-0.21-0.51-0.31-1.08-0.31-1.71c0-0.62,0.1-1.19,0.31-1.71
		C496.05,97.63,496.34,97.19,496.72,96.81z"/>
	<rect x="507.05" y="93.29" class="st0" width="3.04" height="13.12"/>
	<path class="st0" d="M511.48,106.41h3.12l1.17-2.81h6.09l1.17,2.81h3.19l-5.88-13.12h-3L511.48,106.41z M520.9,101.29h-4.18
		l2.09-5.02L520.9,101.29z"/>
	<polygon class="st0" points="527.59,93.29 527.59,106.41 537.22,106.41 537.22,103.94 530.63,103.94 530.63,93.29 	"/>
	<path class="st0" d="M563.62,96.81c0.38-0.38,0.82-0.66,1.33-0.86c0.51-0.2,1.08-0.3,1.69-0.3c0.65,0,1.25,0.13,1.8,0.38
		c0.55,0.26,1.05,0.64,1.5,1.15l1.95-1.8c-0.63-0.76-1.4-1.34-2.32-1.73c-0.92-0.39-1.95-0.59-3.09-0.59c-1.03,0-1.97,0.17-2.84,0.5
		c-0.86,0.33-1.62,0.8-2.26,1.41c-0.65,0.61-1.15,1.33-1.5,2.16c-0.36,0.82-0.54,1.73-0.54,2.72c0,0.99,0.18,1.89,0.54,2.72
		c0.36,0.83,0.85,1.54,1.49,2.16c0.64,0.61,1.39,1.08,2.26,1.41c0.87,0.33,1.81,0.5,2.83,0.5c1.15,0,2.19-0.2,3.11-0.6
		c0.92-0.4,1.69-0.98,2.32-1.74l-1.95-1.8c-0.45,0.52-0.95,0.92-1.5,1.17c-0.55,0.26-1.15,0.38-1.8,0.38c-0.61,0-1.18-0.1-1.69-0.3
		c-0.51-0.2-0.96-0.49-1.33-0.86c-0.37-0.38-0.67-0.82-0.87-1.33c-0.21-0.51-0.31-1.08-0.31-1.71c0-0.62,0.1-1.19,0.31-1.71
		C562.95,97.63,563.25,97.19,563.62,96.81z"/>
	<path class="st0" d="M582.89,93.57c-0.87-0.34-1.82-0.51-2.86-0.51c-1.03,0-1.98,0.17-2.85,0.51c-0.88,0.34-1.64,0.81-2.29,1.42
		c-0.65,0.61-1.16,1.33-1.51,2.16c-0.36,0.83-0.54,1.72-0.54,2.7c0,0.98,0.18,1.88,0.54,2.7c0.36,0.83,0.86,1.54,1.5,2.15
		c0.64,0.61,1.41,1.09,2.29,1.43c0.88,0.34,1.84,0.51,2.88,0.51c1.03,0,1.98-0.17,2.84-0.51c0.87-0.34,1.63-0.81,2.27-1.41
		c0.64-0.61,1.15-1.32,1.51-2.16c0.36-0.83,0.54-1.73,0.54-2.71c0-0.99-0.18-1.89-0.54-2.71c-0.36-0.82-0.87-1.53-1.51-2.15
		C584.52,94.38,583.76,93.91,582.89,93.57z M583.83,101.56c-0.21,0.51-0.5,0.96-0.87,1.33c-0.38,0.38-0.81,0.66-1.3,0.86
		c-0.5,0.2-1.04,0.3-1.62,0.3c-0.59,0-1.13-0.1-1.63-0.3c-0.5-0.2-0.94-0.49-1.31-0.86c-0.37-0.38-0.66-0.82-0.86-1.34
		c-0.21-0.52-0.31-1.08-0.31-1.7c0-0.62,0.1-1.19,0.31-1.71c0.21-0.51,0.5-0.96,0.87-1.33c0.38-0.38,0.81-0.66,1.31-0.86
		c0.49-0.2,1.03-0.3,1.62-0.3c0.59,0,1.13,0.1,1.63,0.3c0.5,0.2,0.94,0.49,1.3,0.86c0.37,0.38,0.66,0.82,0.86,1.33
		c0.21,0.51,0.31,1.08,0.31,1.71C584.14,100.47,584.04,101.04,583.83,101.56z"/>
	<polygon class="st0" points="592.03,93.29 589.51,93.29 589.51,106.41 592.52,106.41 592.52,98.45 599.07,106.41 601.57,106.41 
		601.57,93.29 598.56,93.29 598.56,101.25 	"/>
	<polygon class="st0" points="610.45,106.41 610.45,95.76 614.66,95.76 614.66,93.29 603.2,93.29 603.2,95.76 607.41,95.76 
		607.41,106.41 	"/>
	<path class="st0" d="M618.19,103.6h6.09l1.17,2.81h3.19l-5.88-13.12h-3l-5.86,13.12h3.12L618.19,103.6z M621.25,96.27l2.08,5.02
		h-4.18L621.25,96.27z"/>
	<path class="st0" d="M633.26,96.81c0.38-0.38,0.82-0.66,1.33-0.86c0.51-0.2,1.08-0.3,1.69-0.3c0.65,0,1.25,0.13,1.8,0.38
		c0.55,0.26,1.05,0.64,1.5,1.15l1.95-1.8c-0.63-0.76-1.4-1.34-2.32-1.73c-0.92-0.39-1.95-0.59-3.09-0.59c-1.03,0-1.97,0.17-2.84,0.5
		c-0.86,0.33-1.62,0.8-2.26,1.41c-0.65,0.61-1.15,1.33-1.5,2.16c-0.36,0.82-0.54,1.73-0.54,2.72c0,0.99,0.18,1.89,0.54,2.72
		c0.36,0.83,0.85,1.54,1.49,2.16c0.64,0.61,1.39,1.08,2.26,1.41c0.87,0.33,1.81,0.5,2.83,0.5c1.15,0,2.19-0.2,3.11-0.6
		c0.92-0.4,1.69-0.98,2.32-1.74l-1.95-1.8c-0.45,0.52-0.95,0.92-1.5,1.17c-0.55,0.26-1.15,0.38-1.8,0.38c-0.61,0-1.18-0.1-1.69-0.3
		c-0.51-0.2-0.96-0.49-1.33-0.86c-0.37-0.38-0.67-0.82-0.87-1.33c-0.21-0.51-0.31-1.08-0.31-1.71c0-0.62,0.1-1.19,0.31-1.71
		C632.6,97.63,632.89,97.19,633.26,96.81z"/>
	<polygon class="st0" points="649.23,106.41 649.23,95.76 653.43,95.76 653.43,93.29 641.98,93.29 641.98,95.76 646.18,95.76 
		646.18,106.41 	"/>
	<path class="st0" d="M643.92,24.97c4.63,0.11,9.27,0.04,13.9,0.02c4.37-0.03,19.05,0.09,23.38-0.55c0.77-0.11,1.6-6.33,1.79-8.48
		c0.05-0.52-0.54-0.76-0.97-0.77c-4.98-0.02-18.36-0.03-23.34-0.05c-4.19-0.01-9.16-0.63-13.14,0.82c-0.03,0.01-0.08,0.03-0.14,0.06
		c-0.09-0.2-0.18-0.41-0.28-0.61c-0.27-0.51-1.4,0.04-1.52,0.45c-0.81,2.7-0.58,5.6-0.58,8.41
		C643.04,24.75,643.5,24.96,643.92,24.97z M649.4,17.49c2.45,0.11,4.89,0.16,7.34,0.2c4.59,0.07,17.57,0.13,22.16,0.19
		c-0.18,1.47-0.4,2.91-0.04,4.33c-3.68-0.32-15.96,0-19.6,0.05c-4.22,0.05-8.43,0.08-12.65,0.23c-0.19-1.77-0.3-3.68-0.81-5.4
		C646.89,17.55,648.12,17.43,649.4,17.49z"/>
	<path class="st0" d="M643.92,37.39c4.63,0.11,9.27,0.04,13.9,0.02c4.37-0.03,19.05,0.09,23.38-0.55c0.77-0.11,1.6-6.33,1.79-8.48
		c0.05-0.52-0.54-0.76-0.97-0.77c-4.98-0.02-18.36-0.03-23.34-0.05c-4.19-0.01-9.16-0.63-13.14,0.82c-0.03,0.01-0.08,0.03-0.14,0.06
		c-0.09-0.2-0.18-0.41-0.28-0.61c-0.27-0.51-1.4,0.04-1.52,0.45c-0.81,2.7-0.58,5.6-0.58,8.41
		C643.04,37.17,643.5,37.38,643.92,37.39z M649.4,29.91c2.45,0.11,4.89,0.16,7.34,0.2c4.59,0.07,17.57,0.13,22.16,0.19
		c-0.18,1.47-0.4,2.91-0.04,4.33c-3.68-0.32-15.96,0-19.6,0.05c-4.22,0.05-8.43,0.08-12.65,0.23c-0.19-1.77-0.3-3.68-0.81-5.4
		C646.89,29.97,648.12,29.85,649.4,29.91z"/>
	<path class="st0" d="M643.83,49.81c4.98,0.02,9.96,0.03,14.94,0.05c4.19,0.01,17.55,0.63,21.53-0.82c0.03-0.01,0.08-0.03,0.14-0.06
		c0.09,0.2,0.18,0.41,0.28,0.61c0.27,0.51,1.4-0.04,1.52-0.45c0.81-2.7,0.58-5.6,0.58-8.41c0-0.48-0.45-0.69-0.88-0.7
		c-4.63-0.11-17.66-0.04-22.29-0.02c-4.37,0.03-10.66-0.09-14.99,0.55c-0.77,0.11-1.6,6.33-1.79,8.48
		C642.82,49.56,643.41,49.81,643.83,49.81z M647.01,42.79c3.68,0.32,7.57,0,11.21-0.05c4.22-0.05,16.83-0.08,21.04-0.23
		c0.19,1.77,0.3,3.68,0.81,5.4c-1.09-0.47-2.31-0.35-3.59-0.41c-2.45-0.11-13.28-0.16-15.73-0.2c-4.59-0.07-9.18-0.13-13.77-0.19
		C647.15,45.65,647.37,44.21,647.01,42.79z"/>
	<path class="st0" d="M364.18,193.41c0.44,1.66,3.86-0.63,4.02-1.7c0.02-0.15,0.03-0.3,0.06-0.45c7.36,1.07,15.52,0.26,22.72,0.26
		c9.94,0,34.24-0.16,44.18-0.32c19.43-0.31,97.23,1.26,116.7,0.22c18.93-1.01,57.24-1.16,57.5,0.36c0.38,2.25,4.56,0.14,4.94-1.27
		c2.13-7.94,1.91-16.32,1.43-24.48c-0.43-7.4-1.01-23.58-2.2-23.58c-0.01,0-2.84-2.07-2.84-2.07c-0.25,0-77.68-0.07-116.59,0
		c-19.65,0.04-39.3,0.29-58.95,0.4c-9.6,0.05-19.2,0.11-28.8,0.26c-7.81,0.12-36.51-0.99-40.46-0.34c-0.59,0.1-1.98,1.07-2.17,1.44
		c-4.3,8.22-1.64,17.74-1.74,26.89C361.86,178.82,361.7,183.93,364.18,193.41z M374.8,146.11c11.75,0.45,48.58,0.13,56.55,0.17
		c19.51,0.11,39.03,0.25,58.54,0.29c39.48,0.08,79.05,0.83,118.49-1.49c-0.52,7.67,0.51,15.55,0.55,23.24
		c0.03,4.74-0.03,11.36,0,16.17c-17.99-0.07-36.41,0.08-54.35,1.05c-19.48,1.06-96.63-0.19-115.71,0.33
		c-10.03,0.28-20.07,0.47-30.11,0.74c-8.42,0.23-31.68-0.21-40.08,1.07c1.08-10.94,0.08-15.17,0.02-29.44
		c-0.01-1.86-0.14-3.71-0.28-5.56c0-0.04-0.01-0.08-0.01-0.12C368.19,148.98,371.21,145.97,374.8,146.11z"/>
	<path class="st0" d="M680.9,140.63c-9.85-0.06-14.13-0.76-23.93-0.94c-10.42-0.19-32.57-1.05-34.42,1.72
		c-1.04,1.55-0.71,44.44-0.71,44.89c-0.03,3.16,0,3.92,2.39,4.29c-0.19,0.01,55.16,0.71,55.24,0.18c1.99-0.15,3.13-4.53,0.54-4.74
		c0.53-6.54,0.35-13.12,0.26-19.69c-0.09-6.49,0-14.4-0.05-20.43C681.86,145.87,685.18,140.66,680.9,140.63z M627.12,185.67
		c1.25-10.88-1.16-25.76-0.41-36.92c0.15-2.19,2.06-3.85,4.23-3.66c6.57,0.56,13.75-0.13,20.79,0.04
		c7.89,0.19,21.64,0.88,21.64,0.88s0.24,15.1,0.14,22.63c-0.08,5.66-0.27,11.37,0.06,17.03C661,185.19,633.21,187.33,627.12,185.67z
		"/>
	<path class="st0" d="M666.35,172.66c-0.8-1.08-8.79-6.53-9.94-7.15c-1-0.54-1.92-1.04-2.84-1.47c1.99-4.81,0.76-10.94-4.84-12.58
		c-3.39-0.99-7.58-0.17-10.51,1.75c-1.51,0.99-3.78,2.89-4.25,4.96c-0.06,0.07-0.12,0.15-0.17,0.22c-2,2.86-1.64,6.47,0.45,9.18
		c3.85,4.99,10.76,4.85,15.44,1.38c0.48,0.29,0.96,0.59,1.42,0.9c1.04,0.72,8.03,6.27,9.18,6.8c1.42,0.65,3.24,1.1,4.77,1.62
		c0.94,0.32,4.19-1.04,3.37-2.38C667.79,174.83,667.06,173.6,666.35,172.66z M645.99,165.53c0.25,0.76-2.79,1.74-3.82,1.08
		c-1.68-1.06-3.06-2.58-3.8-4.44c-0.59-1.49-1.23-6.08,1.26-6.15c0.42-0.01,1.28-0.32,1.8-0.77c0.61-0.05,1.26-0.02,1.97,0.19
		c3.35,0.98,5.08,4.32,4.98,7.64C647.18,163.39,645.59,164.31,645.99,165.53z"/>
	<path class="st0" d="M398.84,173.02c-0.6,0.25-1.36,0.38-2.3,0.38c-0.94,0-1.83-0.17-2.67-0.52c-0.84-0.34-1.5-0.76-1.98-1.26
		l-0.46,0.77c0.51,0.57,1.23,1.03,2.16,1.38c0.93,0.36,1.92,0.54,2.97,0.54c1.17,0,2.12-0.17,2.87-0.52s1.3-0.8,1.66-1.37
		c0.36-0.57,0.54-1.19,0.54-1.85c0-0.73-0.16-1.32-0.48-1.78c-0.32-0.46-0.74-0.82-1.27-1.09c-0.52-0.27-1.09-0.49-1.71-0.66
		c-0.62-0.17-1.24-0.33-1.87-0.48c-0.63-0.15-1.21-0.33-1.73-0.55c-0.52-0.22-0.94-0.5-1.26-0.87c-0.32-0.36-0.47-0.85-0.47-1.45
		c0-0.52,0.14-1,0.42-1.42c0.28-0.42,0.72-0.77,1.31-1.02c0.59-0.26,1.33-0.38,2.23-0.38c0.63,0,1.28,0.1,1.96,0.29
		c0.68,0.2,1.31,0.49,1.9,0.9l0.38-0.83c-0.54-0.39-1.18-0.7-1.94-0.93c-0.76-0.23-1.53-0.34-2.3-0.34c-1.15,0-2.1,0.17-2.83,0.53
		c-0.74,0.35-1.28,0.81-1.63,1.37c-0.35,0.57-0.52,1.19-0.52,1.86c0,0.74,0.16,1.34,0.47,1.81c0.31,0.46,0.73,0.83,1.26,1.1
		c0.52,0.27,1.1,0.49,1.73,0.66c0.63,0.17,1.25,0.33,1.87,0.48c0.62,0.15,1.19,0.33,1.71,0.55c0.52,0.22,0.95,0.5,1.27,0.87
		c0.32,0.36,0.48,0.85,0.48,1.46c0,0.51-0.14,0.98-0.43,1.39C399.88,172.44,399.44,172.78,398.84,173.02z"/>
	<polygon class="st0" points="414.82,173.28 406.13,173.28 406.13,167.48 413.63,167.48 413.63,166.57 406.13,166.57 406.13,160.99 
		414.52,160.99 414.52,160.06 405.11,160.06 405.11,174.21 414.82,174.21 	"/>
	<path class="st0" d="M419.11,170.23h8.16l1.8,3.98h1.11l-6.48-14.15h-1.03l-6.48,14.15h1.11L419.11,170.23z M423.19,161.2l3.7,8.16
		h-7.38L423.19,161.2z"/>
	<path class="st0" d="M433.76,169.58h4.02c0.48,0,0.93-0.04,1.35-0.1l3.38,4.73h1.17l-3.53-4.95c0.24-0.07,0.46-0.16,0.67-0.25
		c0.84-0.38,1.5-0.93,1.95-1.64c0.46-0.71,0.68-1.55,0.68-2.54c0-1.01-0.23-1.87-0.68-2.58c-0.46-0.71-1.11-1.25-1.95-1.63
		c-0.84-0.38-1.86-0.57-3.04-0.57h-5.05v14.15h1.03V169.58z M433.76,160.99h4.02c1.51,0,2.66,0.33,3.45,1
		c0.78,0.67,1.18,1.61,1.18,2.84c0,1.21-0.39,2.16-1.18,2.83c-0.78,0.67-1.93,1.01-3.45,1.01h-4.02V160.99z"/>
	<path class="st0" d="M447.94,172.27c0.66,0.65,1.43,1.15,2.32,1.51c0.89,0.36,1.86,0.54,2.91,0.54c0.99,0,1.92-0.16,2.79-0.5
		c0.86-0.33,1.6-0.82,2.22-1.48l-0.64-0.67c-0.6,0.61-1.27,1.04-2,1.3c-0.73,0.26-1.51,0.39-2.32,0.39c-0.9,0-1.73-0.16-2.5-0.47
		c-0.77-0.31-1.44-0.75-2.01-1.31c-0.57-0.57-1.01-1.23-1.33-1.98c-0.31-0.75-0.47-1.58-0.47-2.47c0-0.89,0.16-1.71,0.47-2.47
		c0.32-0.75,0.76-1.41,1.33-1.98c0.57-0.57,1.24-1,2.01-1.31c0.77-0.31,1.6-0.47,2.5-0.47c0.82,0,1.59,0.13,2.32,0.39
		c0.73,0.26,1.4,0.69,2,1.28l0.64-0.67c-0.62-0.66-1.36-1.15-2.22-1.48c-0.87-0.32-1.79-0.48-2.79-0.48c-1.04,0-2.01,0.18-2.9,0.54
		c-0.89,0.36-1.66,0.86-2.32,1.51c-0.66,0.65-1.18,1.4-1.54,2.27c-0.36,0.87-0.54,1.82-0.54,2.86c0,1.04,0.18,1.99,0.54,2.86
		C446.77,170.86,447.28,171.62,447.94,172.27z"/>
	<polygon class="st0" points="462.64,167.48 472.05,167.48 472.05,174.21 473.08,174.21 473.08,160.06 472.05,160.06 472.05,166.57 
		462.64,166.57 462.64,160.06 461.61,160.06 461.61,174.21 462.64,174.21 	"/>
	<path class="st0" d="M622.71,27.62c3.82-2.88,4.96-8.91,0.18-11.55c-2.09-1.16-4.7-1.3-7.04-0.78c-2.06,0.46-4.99,1.68-5.36,3.79
		c-0.01,0.06,0.01,0.1,0.02,0.15c-0.13,0.13-0.26,0.25-0.38,0.38c-1.63,1.78-2,4.06-0.86,6.15
		C611.78,30.38,618.67,30.66,622.71,27.62z M614.61,18.61c0.12-0.03,0.56-0.28,0.33-0.42c-0.03-0.02-0.06-0.03-0.09-0.05
		c1.53-0.45,3.09-0.4,4.7,0.65c2.25,1.47,2.73,4.41,1.46,6.57c-1.5,2.55-4.75,1.59-6.67-0.12
		C612.61,23.72,611.21,19.46,614.61,18.61z"/>
	<path class="st0" d="M606.33,49.9c3.46,0.2,20.05,0.12,20.44-0.29c5.1-5.39,1.2-19.55-8.92-18.85c-3.95,0.27-7.41,2.61-9.32,5.66
		C606.74,39.26,604.49,49.79,606.33,49.9z M610.89,39.66c0.45-1.19,2.61-4.62,5.1-4.87c1.8-0.17,4.63,0.23,5.4,1.71
		c0,0.01,0.01,0.02,0.01,0.03c1.52,2.48,2.14,5.51,2.27,8.31c0.02,0.42,0,0.86-0.05,1.31c-1.62-0.07-4.35,0.24-5.77,0.33
		c-3.11,0.2-5.21-0.22-8.29,0.23C610.59,44.26,609.93,42.16,610.89,39.66z"/>
	<path class="st0" d="M18.81,193.41c0.56,1.66,5-0.63,5.21-1.7c0.03-0.15,0.05-0.3,0.07-0.45c9.53,1.07,20.1,0.26,29.43,0.26
		c12.87,0,44.35-0.16,57.22-0.32c25.17-0.31,125.93,1.26,151.14,0.22c24.52-1.01,74.14-1.16,74.47,0.36
		c0.49,2.25,5.91,0.14,6.39-1.27c2.75-7.94,2.47-16.32,1.86-24.48c-0.56-7.4-1.3-23.58-2.85-23.58c-0.01,0-3.67-2.07-3.68-2.07
		c-0.33,0-100.61-0.07-151,0c-25.45,0.04-50.9,0.29-76.35,0.4c-12.43,0.05-24.87,0.11-37.3,0.26c-10.11,0.12-47.28-0.99-52.4-0.34
		c-0.77,0.1-2.57,1.07-2.81,1.44c-5.58,8.22-2.13,17.74-2.25,26.89C15.8,178.82,15.6,183.93,18.81,193.41z M32.57,146.11
		c15.22,0.45,62.91,0.13,73.24,0.17c25.27,0.11,50.55,0.25,75.82,0.29c51.13,0.08,102.38,0.83,153.46-1.49
		c-0.67,7.67,0.66,15.55,0.71,23.24c0.03,4.74-0.04,11.36,0,16.17c-23.3-0.07-47.16,0.08-70.39,1.05
		c-25.23,1.06-125.14-0.19-149.86,0.33c-13,0.28-26,0.47-38.99,0.74c-10.91,0.23-41.03-0.21-51.91,1.07
		c1.4-10.94,0.1-15.17,0.03-29.44c-0.01-1.86-0.18-3.71-0.36-5.56c0-0.04-0.01-0.08-0.01-0.12
		C23.99,148.98,27.91,145.97,32.57,146.11z"/>
	<polygon class="st0" points="29.71,38.44 19.65,38.44 19.65,21.46 15,21.46 15,42.39 29.71,42.39 	"/>
	<path class="st0" d="M33.83,39.67c0.98,0.98,2.15,1.73,3.5,2.27c1.35,0.54,2.82,0.81,4.4,0.81c1.57,0,3.02-0.27,4.34-0.81
		c1.33-0.54,2.49-1.29,3.47-2.26c0.98-0.97,1.75-2.11,2.31-3.44c0.55-1.33,0.83-2.77,0.83-4.32c0-1.57-0.28-3.01-0.83-4.32
		c-0.55-1.31-1.32-2.45-2.31-3.42c-0.98-0.98-2.14-1.73-3.47-2.27c-1.33-0.54-2.79-0.81-4.37-0.81c-1.57,0-3.02,0.27-4.36,0.81
		c-1.34,0.54-2.51,1.3-3.5,2.27c-0.99,0.98-1.76,2.12-2.31,3.44c-0.54,1.32-0.82,2.75-0.82,4.3c0,1.55,0.27,2.99,0.82,4.3
		C32.08,37.55,32.84,38.69,33.83,39.67z M35.89,29.21c0.32-0.82,0.76-1.52,1.33-2.12c0.57-0.6,1.24-1.06,1.99-1.37
		c0.75-0.32,1.58-0.48,2.48-0.48c0.9,0,1.73,0.16,2.49,0.48c0.76,0.32,1.43,0.78,1.99,1.37c0.56,0.6,1,1.31,1.32,2.12
		c0.32,0.82,0.47,1.72,0.47,2.72c0,1-0.16,1.9-0.47,2.72c-0.32,0.82-0.76,1.52-1.33,2.12c-0.57,0.6-1.24,1.06-1.99,1.37
		c-0.76,0.32-1.58,0.48-2.48,0.48c-0.9,0-1.73-0.16-2.49-0.48c-0.77-0.32-1.43-0.78-1.99-1.37c-0.56-0.6-1-1.31-1.32-2.14
		c-0.32-0.83-0.47-1.73-0.47-2.71C35.42,30.93,35.58,30.02,35.89,29.21z"/>
	<path class="st0" d="M58.03,39.7c0.98,0.98,2.14,1.73,3.47,2.26c1.33,0.53,2.79,0.79,4.37,0.79c1.43,0,2.87-0.23,4.32-0.69
		c1.44-0.46,2.71-1.12,3.8-1.97V31.6h-4.25v6.13c-0.31,0.17-0.62,0.32-0.93,0.43c-0.87,0.31-1.76,0.46-2.68,0.46
		c-0.96,0-1.83-0.16-2.62-0.48c-0.79-0.32-1.48-0.78-2.06-1.39c-0.58-0.61-1.03-1.32-1.35-2.14c-0.32-0.82-0.47-1.71-0.47-2.69
		c0-1,0.16-1.9,0.47-2.72c0.32-0.82,0.77-1.52,1.35-2.12c0.58-0.6,1.28-1.06,2.08-1.37c0.8-0.32,1.69-0.48,2.67-0.48
		c1.01,0,1.95,0.19,2.81,0.58c0.86,0.39,1.65,0.98,2.38,1.78l2.98-2.87c-0.98-1.18-2.18-2.07-3.6-2.69
		c-1.42-0.62-3.03-0.93-4.8-0.93c-1.61,0-3.08,0.26-4.42,0.79c-1.34,0.53-2.51,1.28-3.5,2.26s-1.76,2.12-2.31,3.44
		c-0.54,1.31-0.82,2.76-0.82,4.33c0,1.58,0.27,3.02,0.82,4.33C56.28,37.57,57.05,38.72,58.03,39.7z"/>
	<path class="st0" d="M80.14,39.67c0.98,0.98,2.15,1.73,3.5,2.27c1.35,0.54,2.82,0.81,4.4,0.81c1.57,0,3.02-0.27,4.34-0.81
		c1.33-0.54,2.49-1.29,3.47-2.26c0.98-0.97,1.75-2.11,2.31-3.44c0.55-1.33,0.83-2.77,0.83-4.32c0-1.57-0.28-3.01-0.83-4.32
		c-0.55-1.31-1.32-2.45-2.31-3.42c-0.98-0.98-2.14-1.73-3.47-2.27c-1.33-0.54-2.79-0.81-4.37-0.81c-1.57,0-3.02,0.27-4.36,0.81
		c-1.34,0.54-2.51,1.3-3.5,2.27c-0.99,0.98-1.76,2.12-2.31,3.44c-0.54,1.32-0.82,2.75-0.82,4.3c0,1.55,0.27,2.99,0.82,4.3
		C78.39,37.55,79.16,38.69,80.14,39.67z M82.21,29.21c0.32-0.82,0.76-1.52,1.33-2.12c0.57-0.6,1.24-1.06,1.99-1.37
		c0.75-0.32,1.58-0.48,2.48-0.48s1.73,0.16,2.49,0.48c0.76,0.32,1.43,0.78,1.99,1.37c0.56,0.6,1,1.31,1.32,2.12
		c0.32,0.82,0.47,1.72,0.47,2.72c0,1-0.16,1.9-0.47,2.72c-0.32,0.82-0.76,1.52-1.33,2.12c-0.57,0.6-1.24,1.06-1.99,1.37
		c-0.76,0.32-1.58,0.48-2.48,0.48s-1.73-0.16-2.49-0.48c-0.77-0.32-1.43-0.78-1.99-1.37c-0.56-0.6-1-1.31-1.32-2.14
		c-0.32-0.83-0.47-1.73-0.47-2.71C81.74,30.93,81.89,30.02,82.21,29.21z"/>
	<path class="st0" d="M610.17,306.01c-5.67-0.81-116.46-16.64-237.12-33.81c139.2-20.49,272.19-40.36,282.25-42.98
		c3.58-0.43,4.68-2.82,3.26-5.17c-0.27-0.44-37.41,4.02-49.56,5.83c-6.04,0.9-131.29,19.51-260.64,38.81
		C209.95,249,67.13,228.79,60.6,228.23c-5.99-0.51-11.95-1.66-17.96-1.98c0,0-0.9-0.23-4.01,0.36c-1.66,0.14-1.47,1.73-1.17,2.96
		c0.38,1.57,5.37,1.8,7,2.01c1.18,0.16,136.59,20.02,279.61,40.72c-130.54,19.49-257.92,38.61-263.99,39.87
		c-5.89,1.23-11.93,1.81-17.78,3.23c0,0-0.93,0.04-3.74,1.49c-1.55,0.61-0.91,2.07-0.28,3.17c0.81,1.4,5.66,0.19,7.29-0.07
		c1.24-0.19,151.63-21.97,302.8-44.18c147.45,21.31,295.38,42.38,306.36,42.76c3.55,0.61,5.29-1.37,4.6-4.02
		C659.21,314.07,622.34,307.75,610.17,306.01z"/>
	<path class="st0" d="M681.46,208.6c-0.31-1.19-0.08-2.4-0.55-3.59c0,0,0.02-0.06-0.12-0.22c0.05-0.48-0.06-1.01-0.35-1.55
		c-0.21-0.4-39.78-1.13-52.78-1.09c-13.38,0.05-573.83,1.99-587.25,2.65c-6.35,0.31-12.76,0.08-19.11,0.55c0,0-0.98-0.08-4.12,0.78
		c-0.05-0.37-0.12-0.75-0.27-1.12c0,0,0.08-0.18-0.79-0.78c-0.32-0.32-1.6-0.24-2.58-0.14c-1.25,0.12-0.83,1.11-0.81,1.44
		c0.02,0.49,0.34,118.22,2.41,122.62c-0.07,0.72,1.77,1,3.88,0.79c0.4-0.04,1.13-7.48,1.09-9.92c-0.04-2.42-1.84-99.9-2.57-109.65
		c1.81,0.43,5.17,0.19,6.49,0.17c2.63-0.02,628.79-0.34,652.21-2.41c0.17,0,0.33,0,0.48-0.01c0.06,14.01,0.47,116.92,2.41,121.03
		c-0.07,0.72,1.77,1,3.88,0.79c0.4-0.04,1.13-7.48,1.09-9.92C684.06,316.49,682.12,211.12,681.46,208.6z"/>
</g>
</svg>
