<svg xmlns="http://www.w3.org/2000/svg" xml:space="preserve" id="Слой_1" x="0" y="0" style="enable-background:new 0 0 1052 698" version="1.1" viewBox="0 0 1052 698">
  <style>
    .st0{fill:#fff}
  </style>
  <path d="M1034.82 666.13c-91.23-3.61-207.64 1.4-296.6 1.4-88.73 0-438.66-.02-527.39.3-50.06.18-132.66-3.08-182.52 2.8C31.29 604.85 31.93 383.32 32 299c-.06-40.83-.27-82.1-.6-122.93-.18-23.22-.21-46.45-.58-69.66-.32-20.38.12-77.53 3.73-77.53 22.49 0 116.97.36 139.47.41 45.08.09 90.17.25 135.25.27 91.13.04 443.47.02 534.6.03 45.45.01 122.3-.12 167.25-2.3 5.04-.24 9.13 4.96 8.68 11.14-1.68 23.14-2.75 162.5-3.79 261.59l-.01-.02c-.1 14.44-1.67 126.44-1.67 132.5-.02 44.26-.55 178.22 3.93 222.17.65 6.36 10.6-.01 11.02-4.57 4.23-44.95 2.67-179.69 2.66-224.9 0-8.46-.93-120.73-.94-129.19-.02-42.35.68-88.27.32-130.44-.34-39.24 4.19-143.73 3.53-146.09-.02-.82-6.06-4.51-7.57-4.41-1.91-.13-468.13-.01-553.48 0-91.19.01-182.37.06-273.56.25-25.24.05-81.82.11-107.06.34-25.04.24-48.15-1.49-73.03 2.41-1.73.27-1.53 116.06-1.88 160.27-.31 38.9-.21 80.66-.27 119.66-1.07 86.78-3.85 313.59-2.56 383.66.06 3.24 129.65-.43 171.95-.21 44.29.23 88.59.17 132.88.22 88.64.1 438.49.15 527.13.15 51.07 0 130.65-.1 181.67-2.92 3.16-.16 11.99-12.52 5.75-12.77z" class="st0"/>
  <path d="M899.68 627.35c8.56-.01 27.13-.03 35.69-.08 6.38-.04 23.03 1.41 23.36.32 1.6-5.34-.47-28.97-1.18-33.66a3.898 3.898 0 0 0-3.87-3.32c-5.44.03-16.17.05-22.23-.12-8.52-.24-27.04-.37-35.57-.39-17.17-.03-28.88-.68-45.51.49-2.4.17-2.3 3.56-2.33 4.25-.15 4.26-.55 18.52.27 27.58.11 1.19-.46 2.31-1.42 3.02-.39.29-.68.63-.68.93 0 3.21 37.34 1 53.47.98zM851.8 597.5a3.816 3.816 0 0 1 3.8-3.91c14.4-.04 27.99-.24 42.56-.26 8.81-.01 27.61.06 36.42.23 6.73.13 12.32.89 18.91.55.78 4.51 1.22 10.41 1.12 14.94-.1 4.23-.4 8.57-.02 12.8.14 1.5-1.14 2.74-2.64 2.6-6.21-.59-12.61-.24-18.76-.27-8.6-.05-27.2-.07-35.8-.08-15.26-.02-30.49.08-45.74.54 1.18-9 .37-18.02.15-27.14z" class="st0"/>
  <path d="M929.03 610.34c3.01.5 9.76.53 12.46.57-1.76 1.17-2.57 2.3-4.95 4.16-.7.55 2.73 1.47 3.22 1.23 3.1-1.53 4.57-2.99 7.69-5.03.54-.35.1-1.05-.19-1.41-2.58-3.24-5.34-6.56-8.77-8.92-.33-.23-2.59-.73-1.94.31 1.42 2.29 3.19 4.34 4.83 6.49-3.04.18-9.46.25-12.52.24-1.54-.01-.82 2.19.17 2.36zM880.88 608l4.89 5.94h1.86v-9.8h-2.24v5.95l-4.87-5.95h-1.88v9.8h2.24zM897.54 612.12h-5.33v-2.26h4.55v-1.77h-4.55v-2.13h5.15v-1.82h-7.41v9.8h7.59zM903.06 610.54l2.36 3.4h2.62l-3.65-5.06 3.33-4.62v1.73h3.14v7.95h2.26v-7.95h3.14v-1.85H905.34l-2.21 3.18-2.24-3.18h-2.58l3.44 4.81-3.62 4.99h2.6zM803.28 627.76c15.3.02 31.74 2.23 31.72-.98 0-.31-.28-.65-.64-.93-.91-.71-1.45-1.83-1.35-3.02.78-9.06.4-23.32.26-27.58-.02-.69.07-4.08-2.21-4.25-15.78-1.17-1.89-.52-18.19-.49-8.09.01-.66.15-8.75.39-5.75.17-7.93.15-13.09.12-1.84-.01-3.4 1.4-3.67 3.32-.67 4.7-2.63 28.32-1.12 33.66l17.04-.24zm-12.07-33.25c6.25.35 3.55-.42 9.94-.55 8.35-.17 1.2-.23 9.56-.23 13.82.02 1.72.22 15.38.26 2.03.01 3.66 1.77 3.61 3.91-.21 9.12-.98 18.15.14 27.14-14.47-.46-9.92-.56-24.4-.54l-12.77.35c-1.43.14-2.64-1.09-2.51-2.6.37-4.24.08-8.57-.02-12.8-.08-4.52.33-10.42 1.07-14.94z" class="st0"/>
  <path d="M800.55 610.68c3.12 2.04 4.59 3.5 7.69 5.03.49.24 3.92-.69 3.22-1.23-2.38-1.86-3.19-2.99-4.95-4.16 2.7-.03 9.46-.07 12.46-.57.99-.16 1.71-2.36.16-2.36-3.05.01-9.48-.05-12.52-.24 1.64-2.15 3.41-4.2 4.83-6.49.65-1.04-1.61-.54-1.94-.31-3.43 2.36-6.19 5.68-8.77 8.92-.28.36-.72 1.06-.18 1.41zM71.31 640.53c-.59 1.05 1.28 4.52 2.56 3.16 27.65-29.47 49.72-63.21 72.84-95.46 23.47-32.73 46.82-65.53 70.03-98.4 20.44-28.94 40.76-57.93 60.98-86.98 30.99 42.37 62.2 84.61 93.73 126.66 14.17 18.9 28.39 37.76 42.65 56.6 15.04 19.86 29.26 40.86 46.52 59.32 4.55 4.86 8.32.89 5.27-4.03-21.99-35.38-50.58-68.31-75.88-101.95-25.55-33.97-51-67.99-76.28-102.1-10.32-13.93-20.6-27.89-30.88-41.84 24.01-34.53 47.87-69.13 71.55-103.83 26.04-38.16 85.17-128.7 109.29-167.8.87-1.41-1.95-5.51-3.14-3.87C409.02 150.49 325 273.95 275.53 345.58c-38.02-51.74-75.71-103.67-113.03-155.8-28.04-39.16-54.2-80.2-85.6-117.42-2.2-2.61-4.01-.39-2.63 2.01 20.64 36.02 46.63 70.08 70.88 104.31 24.51 34.6 49.17 69.11 73.99 103.53 17.02 23.61 34.15 47.17 51.33 70.69-40.02 57.96-80.01 115.93-120.94 173.39-26.74 37.54-55.98 74.52-78.22 114.24zM571.19 366.38h23.37V265.43h-23.37v39.8h-45.86v-39.8h-23.36v100.95h23.36v-41.39h45.86zM696.66 347.63h-54.95v-23.36h46.87V306.1h-46.87v-21.92h53.07v-18.75H618.5v100.95h78.16zM804.67 366.38l-22.55-32.37c.07-.03.14-.05.2-.08 6.54-2.88 11.58-7.04 15.14-12.47s5.34-11.9 5.34-19.4c0-7.59-1.78-14.13-5.34-19.61-3.56-5.48-8.61-9.69-15.14-12.62-6.54-2.93-14.33-4.4-23.36-4.4h-43.7v100.95h23.36v-28.12h20.33c.37 0 .72-.02 1.09-.02l19.39 28.14h25.24zm-30.86-51.41c-3.56 3.13-8.94 4.69-16.15 4.69h-19.04v-35.19h19.04c7.21 0 12.59 1.54 16.15 4.61 3.56 3.08 5.34 7.4 5.34 12.98 0 5.48-1.78 9.78-5.34 12.91zM870.29 368.11c7.88 0 15.17-1.3 21.85-3.89 6.68-2.6 12.5-6.22 17.45-10.89 4.95-4.66 8.82-10.19 11.61-16.58s4.18-13.34 4.18-20.84c0-7.59-1.39-14.54-4.18-20.84s-6.66-11.8-11.61-16.51c-4.95-4.71-10.77-8.36-17.45-10.96-6.68-2.6-14.01-3.89-21.99-3.89-7.88 0-15.19 1.3-21.92 3.89-6.73 2.6-12.6 6.25-17.59 10.96-5 4.71-8.87 10.24-11.61 16.58-2.74 6.35-4.11 13.27-4.11 20.77s1.37 14.42 4.11 20.77 6.58 11.88 11.54 16.58c4.95 4.71 10.82 8.37 17.59 10.96 6.77 2.59 14.15 3.89 22.13 3.89zm-29.35-39.15c-1.59-3.99-2.38-8.34-2.38-13.05 0-4.81.79-9.18 2.38-13.12s3.82-7.35 6.71-10.24c2.88-2.88 6.22-5.09 10.02-6.63s7.95-2.31 12.47-2.31c4.52 0 8.7.77 12.55 2.31 3.84 1.54 7.19 3.75 10.02 6.63s5.05 6.3 6.63 10.24c1.59 3.94 2.38 8.32 2.38 13.12 0 4.81-.79 9.18-2.38 13.12s-3.82 7.35-6.71 10.24c-2.88 2.88-6.23 5.1-10.02 6.63-3.8 1.54-7.96 2.31-12.47 2.31-4.52 0-8.7-.77-12.55-2.31-3.85-1.54-7.19-3.75-10.02-6.63-2.83-2.89-5.04-6.32-6.63-10.31zM535.19 435.35c-2.01 1.43-5.29 2.15-9.86 2.15-3.35 0-6.54-.53-9.58-1.6-3.04-1.06-5.54-2.33-7.48-3.79l-2.92 5.11c2.01 1.7 4.78 3.12 8.31 4.24 3.53 1.13 7.27 1.69 11.23 1.69 4.2 0 7.77-.56 10.73-1.69 2.95-1.12 5.2-2.71 6.75-4.75 1.55-2.04 2.33-4.46 2.33-7.26 0-2.62-.56-4.73-1.69-6.34-1.13-1.61-2.62-2.86-4.47-3.74-1.86-.88-3.89-1.58-6.12-2.1-2.22-.52-4.44-.96-6.66-1.32-2.22-.37-4.26-.84-6.12-1.42-1.86-.58-3.35-1.38-4.47-2.42-1.13-1.03-1.69-2.46-1.69-4.29 0-2.31 1.02-4.21 3.06-5.71 2.04-1.49 5.22-2.24 9.54-2.24 2.43 0 4.87.32 7.3.96 2.43.64 4.71 1.69 6.85 3.15l2.83-5.2c-2.01-1.34-4.56-2.42-7.67-3.24a36.31 36.31 0 0 0-9.31-1.23c-4.08 0-7.53.59-10.36 1.78-2.83 1.19-4.97 2.82-6.44 4.88-1.46 2.07-2.19 4.41-2.19 7.03 0 2.74.56 4.93 1.69 6.57 1.12 1.64 2.6 2.94 4.43 3.88 1.83.94 3.85 1.66 6.07 2.15s4.46.91 6.71 1.28 4.29.81 6.11 1.32c1.83.52 3.3 1.28 4.43 2.28 1.12 1 1.69 2.39 1.69 4.15-.02 2.38-1.02 4.29-3.03 5.72zM598.4 419.65c.03-.33.05-.65.05-.96 0-4.81-1-9.05-3.01-12.73s-4.76-6.54-8.26-8.58-7.5-3.06-12-3.06c-4.44 0-8.44 1.05-12 3.15-3.56 2.1-6.36 4.97-8.4 8.63-2.04 3.65-3.06 7.85-3.06 12.6s1.06 8.96 3.2 12.64c2.13 3.68 5.08 6.57 8.85 8.67 3.77 2.1 8.15 3.15 13.14 3.15 3.83 0 7.35-.67 10.54-2.01 3.19-1.34 5.86-3.29 7.99-5.84l-3.65-4.2c-1.83 2.13-4 3.71-6.53 4.75-2.53 1.04-5.25 1.55-8.17 1.55-3.71 0-7.01-.78-9.9-2.33-2.89-1.55-5.14-3.71-6.75-6.48-1.35-2.32-2.13-4.96-2.35-7.9h40.27c-.01-.37 0-.72.04-1.05zm-40.29-3.79c.24-2.68.93-5.12 2.09-7.3 1.46-2.74 3.5-4.87 6.12-6.39 2.62-1.52 5.57-2.28 8.85-2.28 3.35 0 6.3.76 8.85 2.28 2.56 1.52 4.58 3.64 6.07 6.34 1.21 2.2 1.92 4.65 2.15 7.35h-34.13zM622.26 402.3c2.74-1.55 5.81-2.33 9.22-2.33 2.86 0 5.51.58 7.94 1.73 2.43 1.16 4.47 2.95 6.12 5.39l4.84-3.29c-1.89-3.16-4.47-5.54-7.76-7.12s-6.97-2.37-11.04-2.37c-4.75 0-8.99 1.04-12.73 3.1-3.74 2.07-6.68 4.93-8.81 8.58-2.13 3.65-3.2 7.88-3.2 12.69 0 4.75 1.06 8.96 3.2 12.64 2.13 3.68 5.07 6.57 8.81 8.67 3.74 2.1 7.99 3.15 12.73 3.15 4.08 0 7.76-.81 11.04-2.42 3.29-1.61 5.87-3.97 7.76-7.07l-4.84-3.29c-1.64 2.37-3.68 4.14-6.12 5.29-2.43 1.16-5.08 1.73-7.94 1.73-3.41 0-6.48-.78-9.22-2.33s-4.9-3.73-6.48-6.53c-1.58-2.8-2.37-6.08-2.37-9.86 0-3.77.79-7.06 2.37-9.86 1.58-2.77 3.75-4.94 6.48-6.5zM668.36 439.5c2.43 2.43 5.9 3.65 10.41 3.65 1.89 0 3.73-.27 5.52-.82 1.79-.55 3.33-1.4 4.61-2.56l-2.28-4.66c-1.89 1.64-4.26 2.46-7.12 2.46-2.68 0-4.73-.76-6.16-2.28-1.43-1.52-2.14-3.68-2.14-6.48v-28.66h14.6v-5.39h-14.6v-10.59h-6.48v10.59h-8.58v5.39h8.58v29.02c-.01 4.46 1.2 7.9 3.64 10.33zM700.67 394.77h6.48v47.92h-6.48zM708.7 379.44c0-1.28-.46-2.34-1.37-3.19-.91-.85-2.04-1.28-3.38-1.28-1.34 0-2.46.44-3.38 1.32-.91.88-1.37 1.96-1.37 3.24 0 1.28.46 2.37 1.37 3.29.91.91 2.04 1.37 3.38 1.37 1.4 0 2.54-.46 3.42-1.37.89-.91 1.33-2.04 1.33-3.38zM757.39 397.42c-3.68-2.07-7.89-3.1-12.64-3.1-4.69 0-8.85 1.04-12.5 3.1-3.65 2.07-6.54 4.93-8.67 8.58-2.13 3.65-3.2 7.88-3.2 12.69 0 4.75 1.06 8.96 3.2 12.64 2.13 3.68 5.03 6.57 8.72 8.67 3.68 2.1 7.83 3.15 12.46 3.15 4.69 0 8.88-1.05 12.6-3.15 3.71-2.1 6.62-4.99 8.72-8.67 2.1-3.68 3.15-7.9 3.15-12.64 0-4.81-1.05-9.04-3.15-12.69-2.12-3.65-5.01-6.51-8.69-8.58zm2.92 31.08c-1.55 2.83-3.67 5.02-6.34 6.57-2.68 1.55-5.75 2.33-9.22 2.33-3.35 0-6.36-.78-9.04-2.33s-4.81-3.74-6.39-6.57-2.37-6.1-2.37-9.81c0-3.77.79-7.06 2.37-9.86s3.71-4.97 6.39-6.53 5.72-2.33 9.13-2.33c3.41 0 6.45.78 9.13 2.33 2.68 1.55 4.79 3.73 6.34 6.53s2.33 6.08 2.33 9.86c0 3.71-.78 6.98-2.33 9.81zM788.93 417.5c0-3.65.68-6.77 2.05-9.36 1.37-2.59 3.32-4.56 5.84-5.93s5.49-2.05 8.9-2.05c4.56 0 8.11 1.29 10.63 3.88 2.52 2.59 3.79 6.4 3.79 11.46v27.2h6.48v-27.84c0-4.62-.84-8.46-2.51-11.5-1.67-3.04-3.99-5.31-6.94-6.8-2.95-1.49-6.38-2.24-10.27-2.24-4.62 0-8.61.99-11.96 2.97-2.69 1.59-4.79 3.68-6.3 6.23v-8.74h-6.21v47.92h6.48v-25.2z" class="st0"/>
</svg>
