<?xml version="1.0" encoding="utf-8"?>
<!-- Generator: Adobe Illustrator 27.3.1, SVG Export Plug-In . SVG Version: 6.00 Build 0)  -->
<svg version="1.1" id="Слой_1" xmlns="http://www.w3.org/2000/svg" xmlns:xlink="http://www.w3.org/1999/xlink" x="0px" y="0px"
	 viewBox="0 0 1052 698" style="enable-background:new 0 0 1052 698;" xml:space="preserve">
<style type="text/css">
	.st0{fill:#FFFFFF;}
</style>
<g>
	<path class="st0" d="M1034.82,666.13c-91.23-3.61-207.64,1.4-296.6,1.4c-88.73,0-438.66-0.02-527.39,0.3
		c-50.06,0.18-132.66-3.08-182.52,2.8C31.29,604.85,31.93,383.32,32,299c-0.06-40.83-0.27-82.1-0.6-122.93
		c-0.18-23.22-0.21-46.45-0.58-69.66c-0.32-20.38,0.12-77.53,3.73-77.53c22.49,0,116.97,0.36,139.47,0.41
		c45.08,0.09,90.17,0.25,135.25,0.27c91.13,0.04,443.47,0.02,534.6,0.03c45.45,0.01,122.3-0.12,167.25-2.3
		c5.04-0.24,9.13,4.96,8.68,11.14c-1.68,23.14-2.75,162.5-3.79,261.59L1016,300c-0.1,14.44-1.67,126.44-1.67,132.5
		c-0.02,44.26-0.55,178.22,3.93,222.17c0.65,6.36,10.6-0.01,11.02-4.57c4.23-44.95,2.67-179.69,2.66-224.9
		c0-8.46-0.93-120.73-0.94-129.19c-0.02-42.35,0.68-88.27,0.32-130.44c-0.34-39.24,4.19-143.73,3.53-146.09
		c-0.02-0.82-6.06-4.51-7.57-4.41c-1.91-0.13-468.13-0.01-553.48,0c-91.19,0.01-182.37,0.06-273.56,0.25
		c-25.24,0.05-81.82,0.11-107.06,0.34c-25.04,0.24-48.15-1.49-73.03,2.41c-1.73,0.27-1.53,116.06-1.88,160.27
		C17.96,217.24,18.06,259,18,298c-1.07,86.78-3.85,313.59-2.56,383.66c0.06,3.24,129.65-0.43,171.95-0.21
		c44.29,0.23,88.59,0.17,132.88,0.22c88.64,0.1,438.49,0.15,527.13,0.15c51.07,0,130.65-0.1,181.67-2.92
		C1032.23,678.74,1041.06,666.38,1034.82,666.13z"/>
	<path class="st0" d="M899.68,627.35c8.56-0.01,27.13-0.03,35.69-0.08c6.38-0.04,23.03,1.41,23.36,0.32
		c1.6-5.34-0.47-28.97-1.18-33.66c-0.29-1.92-1.93-3.32-3.87-3.32c-5.44,0.03-16.17,0.05-22.23-0.12
		c-8.52-0.24-27.04-0.37-35.57-0.39c-17.17-0.03-28.88-0.68-45.51,0.49c-2.4,0.17-2.3,3.56-2.33,4.25
		c-0.15,4.26-0.55,18.52,0.27,27.58c0.11,1.19-0.46,2.31-1.42,3.02c-0.39,0.29-0.68,0.63-0.68,0.93
		C846.21,629.58,883.55,627.37,899.68,627.35z M851.8,597.5c-0.05-2.14,1.66-3.9,3.8-3.91c14.4-0.04,27.99-0.24,42.56-0.26
		c8.81-0.01,27.61,0.06,36.42,0.23c6.73,0.13,12.32,0.89,18.91,0.55c0.78,4.51,1.22,10.41,1.12,14.94c-0.1,4.23-0.4,8.57-0.02,12.8
		c0.14,1.5-1.14,2.74-2.64,2.6c-6.21-0.59-12.61-0.24-18.76-0.27c-8.6-0.05-27.2-0.07-35.8-0.08c-15.26-0.02-30.49,0.08-45.74,0.54
		C852.83,615.64,852.02,606.62,851.8,597.5z"/>
	<path class="st0" d="M929.03,610.34c3.01,0.5,9.76,0.53,12.46,0.57c-1.76,1.17-2.57,2.3-4.95,4.16c-0.7,0.55,2.73,1.47,3.22,1.23
		c3.1-1.53,4.57-2.99,7.69-5.03c0.54-0.35,0.1-1.05-0.19-1.41c-2.58-3.24-5.34-6.56-8.77-8.92c-0.33-0.23-2.59-0.73-1.94,0.31
		c1.42,2.29,3.19,4.34,4.83,6.49c-3.04,0.18-9.46,0.25-12.52,0.24C927.32,607.97,928.04,610.17,929.03,610.34z"/>
	<polygon class="st0" points="880.88,608 885.77,613.94 887.63,613.94 887.63,604.14 885.39,604.14 885.39,610.09 880.52,604.14 
		878.64,604.14 878.64,613.94 880.88,613.94 	"/>
	<polygon class="st0" points="897.54,612.12 892.21,612.12 892.21,609.86 896.76,609.86 896.76,608.09 892.21,608.09 892.21,605.96 
		897.36,605.96 897.36,604.14 889.95,604.14 889.95,613.94 897.54,613.94 	"/>
	<polygon class="st0" points="903.06,610.54 905.42,613.94 908.04,613.94 904.39,608.88 907.72,604.26 907.72,605.99 910.86,605.99 
		910.86,613.94 913.12,613.94 913.12,605.99 916.26,605.99 916.26,604.14 907.8,604.14 907.72,604.14 905.34,604.14 903.13,607.32 
		900.89,604.14 898.31,604.14 901.75,608.95 898.13,613.94 900.73,613.94 	"/>
	<path class="st0" d="M803.28,627.76c15.3,0.02,31.74,2.23,31.72-0.98c0-0.31-0.28-0.65-0.64-0.93c-0.91-0.71-1.45-1.83-1.35-3.02
		c0.78-9.06,0.4-23.32,0.26-27.58c-0.02-0.69,0.07-4.08-2.21-4.25c-15.78-1.17-1.89-0.52-18.19-0.49c-8.09,0.01-0.66,0.15-8.75,0.39
		c-5.75,0.17-7.93,0.15-13.09,0.12c-1.84-0.01-3.4,1.4-3.67,3.32c-0.67,4.7-2.63,28.32-1.12,33.66L803.28,627.76z M791.21,594.51
		c6.25,0.35,3.55-0.42,9.94-0.55c8.35-0.17,1.2-0.23,9.56-0.23c13.82,0.02,1.72,0.22,15.38,0.26c2.03,0.01,3.66,1.77,3.61,3.91
		c-0.21,9.12-0.98,18.15,0.14,27.14c-14.47-0.46-9.92-0.56-24.4-0.54l-12.77,0.35c-1.43,0.14-2.64-1.09-2.51-2.6
		c0.37-4.24,0.08-8.57-0.02-12.8C790.06,604.93,790.47,599.03,791.21,594.51z"/>
	<path class="st0" d="M800.55,610.68c3.12,2.04,4.59,3.5,7.69,5.03c0.49,0.24,3.92-0.69,3.22-1.23c-2.38-1.86-3.19-2.99-4.95-4.16
		c2.7-0.03,9.46-0.07,12.46-0.57c0.99-0.16,1.71-2.36,0.16-2.36c-3.05,0.01-9.48-0.05-12.52-0.24c1.64-2.15,3.41-4.2,4.83-6.49
		c0.65-1.04-1.61-0.54-1.94-0.31c-3.43,2.36-6.19,5.68-8.77,8.92C800.45,609.63,800.01,610.33,800.55,610.68z"/>
	<path class="st0" d="M71.31,640.53c-0.59,1.05,1.28,4.52,2.56,3.16c27.65-29.47,49.72-63.21,72.84-95.46
		c23.47-32.73,46.82-65.53,70.03-98.4c20.44-28.94,40.76-57.93,60.98-86.98c30.99,42.37,62.2,84.61,93.73,126.66
		c14.17,18.9,28.39,37.76,42.65,56.6c15.04,19.86,29.26,40.86,46.52,59.32c4.55,4.86,8.32,0.89,5.27-4.03
		c-21.99-35.38-50.58-68.31-75.88-101.95c-25.55-33.97-51-67.99-76.28-102.1c-10.32-13.93-20.6-27.89-30.88-41.84
		c24.01-34.53,47.87-69.13,71.55-103.83c26.04-38.16,85.17-128.7,109.29-167.8c0.87-1.41-1.95-5.51-3.14-3.87
		C409.02,150.49,325,273.95,275.53,345.58c-38.02-51.74-75.71-103.67-113.03-155.8c-28.04-39.16-54.2-80.2-85.6-117.42
		c-2.2-2.61-4.01-0.39-2.63,2.01c20.64,36.02,46.63,70.08,70.88,104.31c24.51,34.6,49.17,69.11,73.99,103.53
		c17.02,23.61,34.15,47.17,51.33,70.69c-40.02,57.96-80.01,115.93-120.94,173.39C122.79,563.83,93.55,600.81,71.31,640.53z"/>
	<polygon class="st0" points="571.19,366.38 594.56,366.38 594.56,265.43 571.19,265.43 571.19,305.23 525.33,305.23 525.33,265.43 
		501.97,265.43 501.97,366.38 525.33,366.38 525.33,324.99 571.19,324.99 	"/>
	<polygon class="st0" points="696.66,347.63 641.71,347.63 641.71,324.27 688.58,324.27 688.58,306.1 641.71,306.1 641.71,284.18 
		694.78,284.18 694.78,265.43 618.5,265.43 618.5,366.38 696.66,366.38 	"/>
	<path class="st0" d="M804.67,366.38l-22.55-32.37c0.07-0.03,0.14-0.05,0.2-0.08c6.54-2.88,11.58-7.04,15.14-12.47
		s5.34-11.9,5.34-19.4c0-7.59-1.78-14.13-5.34-19.61c-3.56-5.48-8.61-9.69-15.14-12.62c-6.54-2.93-14.33-4.4-23.36-4.4h-43.7v100.95
		h23.36v-28.12h20.33c0.37,0,0.72-0.02,1.09-0.02l19.39,28.14H804.67z M773.81,314.97c-3.56,3.13-8.94,4.69-16.15,4.69h-19.04
		v-35.19h19.04c7.21,0,12.59,1.54,16.15,4.61c3.56,3.08,5.34,7.4,5.34,12.98C779.15,307.54,777.37,311.84,773.81,314.97z"/>
	<path class="st0" d="M870.29,368.11c7.88,0,15.17-1.3,21.85-3.89c6.68-2.6,12.5-6.22,17.45-10.89c4.95-4.66,8.82-10.19,11.61-16.58
		s4.18-13.34,4.18-20.84c0-7.59-1.39-14.54-4.18-20.84s-6.66-11.8-11.61-16.51c-4.95-4.71-10.77-8.36-17.45-10.96
		c-6.68-2.6-14.01-3.89-21.99-3.89c-7.88,0-15.19,1.3-21.92,3.89c-6.73,2.6-12.6,6.25-17.59,10.96c-5,4.71-8.87,10.24-11.61,16.58
		c-2.74,6.35-4.11,13.27-4.11,20.77s1.37,14.42,4.11,20.77s6.58,11.88,11.54,16.58c4.95,4.71,10.82,8.37,17.59,10.96
		C854.93,366.81,862.31,368.11,870.29,368.11z M840.94,328.96c-1.59-3.99-2.38-8.34-2.38-13.05c0-4.81,0.79-9.18,2.38-13.12
		s3.82-7.35,6.71-10.24c2.88-2.88,6.22-5.09,10.02-6.63c3.8-1.54,7.95-2.31,12.47-2.31c4.52,0,8.7,0.77,12.55,2.31
		c3.84,1.54,7.19,3.75,10.02,6.63s5.05,6.3,6.63,10.24c1.59,3.94,2.38,8.32,2.38,13.12c0,4.81-0.79,9.18-2.38,13.12
		s-3.82,7.35-6.71,10.24c-2.88,2.88-6.23,5.1-10.02,6.63c-3.8,1.54-7.96,2.31-12.47,2.31c-4.52,0-8.7-0.77-12.55-2.31
		c-3.85-1.54-7.19-3.75-10.02-6.63C844.74,336.38,842.53,332.95,840.94,328.96z"/>
	<path class="st0" d="M535.19,435.35c-2.01,1.43-5.29,2.15-9.86,2.15c-3.35,0-6.54-0.53-9.58-1.6c-3.04-1.06-5.54-2.33-7.48-3.79
		l-2.92,5.11c2.01,1.7,4.78,3.12,8.31,4.24c3.53,1.13,7.27,1.69,11.23,1.69c4.2,0,7.77-0.56,10.73-1.69
		c2.95-1.12,5.2-2.71,6.75-4.75c1.55-2.04,2.33-4.46,2.33-7.26c0-2.62-0.56-4.73-1.69-6.34c-1.13-1.61-2.62-2.86-4.47-3.74
		c-1.86-0.88-3.89-1.58-6.12-2.1c-2.22-0.52-4.44-0.96-6.66-1.32c-2.22-0.37-4.26-0.84-6.12-1.42c-1.86-0.58-3.35-1.38-4.47-2.42
		c-1.13-1.03-1.69-2.46-1.69-4.29c0-2.31,1.02-4.21,3.06-5.71c2.04-1.49,5.22-2.24,9.54-2.24c2.43,0,4.87,0.32,7.3,0.96
		c2.43,0.64,4.71,1.69,6.85,3.15l2.83-5.2c-2.01-1.34-4.56-2.42-7.67-3.24c-3.1-0.82-6.21-1.23-9.31-1.23
		c-4.08,0-7.53,0.59-10.36,1.78c-2.83,1.19-4.97,2.82-6.44,4.88c-1.46,2.07-2.19,4.41-2.19,7.03c0,2.74,0.56,4.93,1.69,6.57
		c1.12,1.64,2.6,2.94,4.43,3.88c1.83,0.94,3.85,1.66,6.07,2.15c2.22,0.49,4.46,0.91,6.71,1.28c2.25,0.37,4.29,0.81,6.11,1.32
		c1.83,0.52,3.3,1.28,4.43,2.28c1.12,1,1.69,2.39,1.69,4.15C538.2,432.01,537.2,433.92,535.19,435.35z"/>
	<path class="st0" d="M598.4,419.65c0.03-0.33,0.05-0.65,0.05-0.96c0-4.81-1-9.05-3.01-12.73s-4.76-6.54-8.26-8.58
		c-3.5-2.04-7.5-3.06-12-3.06c-4.44,0-8.44,1.05-12,3.15c-3.56,2.1-6.36,4.97-8.4,8.63c-2.04,3.65-3.06,7.85-3.06,12.6
		s1.06,8.96,3.2,12.64c2.13,3.68,5.08,6.57,8.85,8.67c3.77,2.1,8.15,3.15,13.14,3.15c3.83,0,7.35-0.67,10.54-2.01
		c3.19-1.34,5.86-3.29,7.99-5.84l-3.65-4.2c-1.83,2.13-4,3.71-6.53,4.75c-2.53,1.04-5.25,1.55-8.17,1.55c-3.71,0-7.01-0.78-9.9-2.33
		c-2.89-1.55-5.14-3.71-6.75-6.48c-1.35-2.32-2.13-4.96-2.35-7.9h40.27C598.35,420.33,598.36,419.98,598.4,419.65z M558.11,415.86
		c0.24-2.68,0.93-5.12,2.09-7.3c1.46-2.74,3.5-4.87,6.12-6.39c2.62-1.52,5.57-2.28,8.85-2.28c3.35,0,6.3,0.76,8.85,2.28
		c2.56,1.52,4.58,3.64,6.07,6.34c1.21,2.2,1.92,4.65,2.15,7.35H558.11z"/>
	<path class="st0" d="M622.26,402.3c2.74-1.55,5.81-2.33,9.22-2.33c2.86,0,5.51,0.58,7.94,1.73c2.43,1.16,4.47,2.95,6.12,5.39
		l4.84-3.29c-1.89-3.16-4.47-5.54-7.76-7.12c-3.29-1.58-6.97-2.37-11.04-2.37c-4.75,0-8.99,1.04-12.73,3.1
		c-3.74,2.07-6.68,4.93-8.81,8.58c-2.13,3.65-3.2,7.88-3.2,12.69c0,4.75,1.06,8.96,3.2,12.64c2.13,3.68,5.07,6.57,8.81,8.67
		c3.74,2.1,7.99,3.15,12.73,3.15c4.08,0,7.76-0.81,11.04-2.42c3.29-1.61,5.87-3.97,7.76-7.07l-4.84-3.29
		c-1.64,2.37-3.68,4.14-6.12,5.29c-2.43,1.16-5.08,1.73-7.94,1.73c-3.41,0-6.48-0.78-9.22-2.33s-4.9-3.73-6.48-6.53
		c-1.58-2.8-2.37-6.08-2.37-9.86c0-3.77,0.79-7.06,2.37-9.86C617.36,406.03,619.53,403.86,622.26,402.3z"/>
	<path class="st0" d="M668.36,439.5c2.43,2.43,5.9,3.65,10.41,3.65c1.89,0,3.73-0.27,5.52-0.82c1.79-0.55,3.33-1.4,4.61-2.56
		l-2.28-4.66c-1.89,1.64-4.26,2.46-7.12,2.46c-2.68,0-4.73-0.76-6.16-2.28c-1.43-1.52-2.14-3.68-2.14-6.48v-28.66h14.6v-5.39h-14.6
		v-10.59h-6.48v10.59h-8.58v5.39h8.58v29.02C664.71,433.63,665.92,437.07,668.36,439.5z"/>
	<rect x="700.67" y="394.77" class="st0" width="6.48" height="47.92"/>
	<path class="st0" d="M708.7,379.44c0-1.28-0.46-2.34-1.37-3.19c-0.91-0.85-2.04-1.28-3.38-1.28c-1.34,0-2.46,0.44-3.38,1.32
		c-0.91,0.88-1.37,1.96-1.37,3.24c0,1.28,0.46,2.37,1.37,3.29c0.91,0.91,2.04,1.37,3.38,1.37c1.4,0,2.54-0.46,3.42-1.37
		C708.26,381.91,708.7,380.78,708.7,379.44z"/>
	<path class="st0" d="M757.39,397.42c-3.68-2.07-7.89-3.1-12.64-3.1c-4.69,0-8.85,1.04-12.5,3.1c-3.65,2.07-6.54,4.93-8.67,8.58
		c-2.13,3.65-3.2,7.88-3.2,12.69c0,4.75,1.06,8.96,3.2,12.64c2.13,3.68,5.03,6.57,8.72,8.67c3.68,2.1,7.83,3.15,12.46,3.15
		c4.69,0,8.88-1.05,12.6-3.15c3.71-2.1,6.62-4.99,8.72-8.67c2.1-3.68,3.15-7.9,3.15-12.64c0-4.81-1.05-9.04-3.15-12.69
		C763.96,402.35,761.07,399.49,757.39,397.42z M760.31,428.5c-1.55,2.83-3.67,5.02-6.34,6.57c-2.68,1.55-5.75,2.33-9.22,2.33
		c-3.35,0-6.36-0.78-9.04-2.33s-4.81-3.74-6.39-6.57c-1.58-2.83-2.37-6.1-2.37-9.81c0-3.77,0.79-7.06,2.37-9.86
		c1.58-2.8,3.71-4.97,6.39-6.53s5.72-2.33,9.13-2.33c3.41,0,6.45,0.78,9.13,2.33c2.68,1.55,4.79,3.73,6.34,6.53s2.33,6.08,2.33,9.86
		C762.64,422.4,761.86,425.67,760.31,428.5z"/>
	<path class="st0" d="M788.93,417.5c0-3.65,0.68-6.77,2.05-9.36c1.37-2.59,3.32-4.56,5.84-5.93c2.52-1.37,5.49-2.05,8.9-2.05
		c4.56,0,8.11,1.29,10.63,3.88c2.52,2.59,3.79,6.4,3.79,11.46v27.2h6.48v-27.84c0-4.62-0.84-8.46-2.51-11.5
		c-1.67-3.04-3.99-5.31-6.94-6.8c-2.95-1.49-6.38-2.24-10.27-2.24c-4.62,0-8.61,0.99-11.96,2.97c-2.69,1.59-4.79,3.68-6.3,6.23
		v-8.74h-6.21v47.92h6.48V417.5z"/>
</g>
</svg>
