<?xml version="1.0" encoding="utf-8"?>
<!-- Generator: Adobe Illustrator 27.3.1, SVG Export Plug-In . SVG Version: 6.00 Build 0)  -->
<svg version="1.1" id="Слой_1" xmlns="http://www.w3.org/2000/svg" xmlns:xlink="http://www.w3.org/1999/xlink" x="0px" y="0px"
	 viewBox="0 0 344 344" style="enable-background:new 0 0 344 344;" xml:space="preserve">
<style type="text/css">
	.st0{fill:#FFFFFF;}
</style>
<g>
	<path class="st0" d="M328.19,320.86c-3.23-0.44-0.94-0.25-4.2-0.43c1.13-10.22,0.17-49.55,0.25-59.71
		c0.09-11.36,0.27-167.71,0.48-179.06c0.2-11.34,0.55-22.68,0.77-34.02c0.11-5.89,0.27-11.79,0.4-17.68
		c0.05-2.05,0.21-4.14,0.21-6.21c1.27-0.59,3.23-2.3,1.39-3.1c-0.53-0.23-1.09-0.41-1.66-0.58c-0.24-1.54-0.67-3.05-1.47-4.46
		c-0.66-1.17-2.77,0.32-3.13,1.06c-0.39,0.81-0.73,1.66-1.05,2.52c-3.48-0.17-7.09,0.12-10.26,0.12c-6,0-12,0.09-17.99,0.09h-38.99
		c-25.99,0-51.99-0.1-77.98-0.08c-26.01,0.03-52.02,0.01-78.03,0.03c-13.03,0.01-26.06,0.04-39.08,0.12
		c-9.99,0.06-20.54-0.63-30.6,0.63c-2.19,0.27-4.31-0.31-6.29-1.29c-1.69-0.84-4.45,0.31-4.55,4.49c-0.13,5.42,0.05,21.08-0.03,26.5
		c-0.17,11.3-0.24,22.6-0.29,33.9c-0.05,10.79-0.13,166.57-0.14,177.37c-0.01,10.58-1.19,50.63,0.18,61.21
		c-0.04,0.14-0.06,0.29-0.03,0.45c0.12,0.64,0.23,1.29,0.35,1.93c0.43,2.35,3.81,3.04,5.62,1.4c11.31,2.23,23.29-0.33,34.75-0.23
		c13.37,0.12,26.74,0.22,40.12,0.25c25.82,0.06,51.65,0.11,77.47,0.17c25.84,0.06,51.68,0.08,77.53,0.1
		c21.01,0.02,42.61,1.29,63.77,0.23c0.06,0.33,0.12,0.67,0.19,0.99c0.67,3.08,5.35,0.77,6.92-1.45
		C325.53,325.91,331.07,321.25,328.19,320.86z M318.8,50.4c-0.61,11.39-0.96,22.8-1.3,34.2c-0.34,11.38-0.56,167.76-0.71,179.14
		c-0.12,8.93-1.14,47.23-0.41,56.43c-6.13-0.05-13.77,0.1-19.85,0.1c-13.44,0.01-26.87,0.02-40.31,0.03
		c-25.89,0.02-51.78,0.04-77.66,0.1c-25.91,0.06-51.81,0.11-77.72,0.17c-12.99,0.03-25.98,0.12-38.96,0.24
		c-12.85,0.11-38.22,0.01-38.22,0c0.05-12.54,0-49.76,0-60.86c-0.01-11.25-0.09-167.49-0.15-178.74c-0.05-10.75-0.1-21.5-0.27-32.24
		c-0.09-5.85-0.14-11.7-0.28-17.54c-0.05-2.14,0.3-2.78,0.11-5.18c4.05,0,20.9-0.95,30.65-0.89c12.96,0.08,25.92,0.13,38.89,0.14
		c26.47,0.03,52.94-0.04,79.41-0.01c25.99,0.03,51.97-0.08,77.96-0.08h38.99c9.55,0,20.16-0.12,29.63-0.12
		C317.12,33.46,319.21,42.66,318.8,50.4z"/>
	<path class="st0" d="M56.48,146.43c16.3,0.74,35.45,0.86,51.92,1.2c18.13,0.38,36.27,0.48,54.41,0.52
		c34.27,0.08,88.23,1.69,122.2-1.78c2.07-0.21,5.77-4.49,0-5.23c-32.23-4.15-188.75-1.05-225.69-0.71
		C53.26,140.49,53.75,146.3,56.48,146.43z"/>
	<path class="st0" d="M143.11,177.7c-27.81,0.09-59.64-0.9-86.94,3.07c-1,0.15-2.84,1.97,0,2.56c24.99,5.18,55.01,3.01,80.91,3.09
		c29.13,0.09,118.92-0.06,147.93-1.98c3.13-0.21,6.31-4.35,0-4.83C256.73,177.44,171.55,177.61,143.11,177.7z"/>
	<path class="st0" d="M285.01,214.38c-63.57-2.85-165.84-3.72-226.79,0.53c-5.6,0.39-3.77,5.09-1.82,5.13
		c61.33,1.35,172.66,4,228.62,0.95C289.29,220.76,293.69,214.77,285.01,214.38z"/>
	<path class="st0" d="M285.01,64.38c-63.57-2.85-165.84-3.72-226.79,0.53c-5.6,0.39-3.77,5.09-1.82,5.13
		c61.33,1.35,172.66,4,228.62,0.95C289.29,70.76,293.69,64.77,285.01,64.38z"/>
	<path class="st0" d="M285.01,249.04c-25.69-3.05-120.77-1.1-146.79-0.89c-25.2,0.21-57.76-1.21-82.05,3.95
		c-0.53,0.11-1.49,1.46,0,1.71c20.64,3.52,51.34,2,71.82,2.17c26.87,0.22,127.19,2.41,153.84-0.15
		C285,255.53,293.68,250.07,285.01,249.04z"/>
	<path class="st0" d="M285.01,101.04c-25.69-3.05-120.77-1.1-146.79-0.89c-25.2,0.21-57.76-1.21-82.05,3.95
		c-0.53,0.11-1.49,1.46,0,1.71c20.64,3.52,51.34,2,71.82,2.17c26.87,0.22,127.19,2.41,153.84-0.15
		C285,107.53,293.68,102.07,285.01,101.04z"/>
	<path class="st0" d="M285.01,285.06c-31.48-3.03-100.33-1.88-132.06-1.73c-30.87,0.15-66.92-1.86-96.78,4.06
		c-0.47,0.09-1.29,1.19,0,1.62c10.95,3.62,69.57,3.99,86.46,4.07c33.04,0.16,109.52,0.96,142.38-1.7
		C287.67,291.16,291.82,285.71,285.01,285.06z"/>
</g>
</svg>
