<svg aria-hidden="true" style="position: absolute; width: 0; height: 0; overflow: hidden;" version="1.1" xmlns="http://www.w3.org/2000/svg" xmlns:xlink="http://www.w3.org/1999/xlink">
<defs>
<symbol id="tile-text" viewBox="0 0 32 32">
<path d="M30.529 29.847c-0.3-0.041-0.087-0.023-0.391-0.040 0.105-0.951 0.016-4.609 0.023-5.554 0.008-1.057 0.025-15.601 0.045-16.657s0.051-2.11 0.072-3.165c0.010-0.548 0.025-1.097 0.037-1.645 0.005-0.191 0.020-0.385 0.020-0.578 0.118-0.055 0.3-0.214 0.129-0.288-0.049-0.021-0.101-0.038-0.154-0.054-0.022-0.143-0.062-0.284-0.137-0.415-0.061-0.109-0.258 0.030-0.291 0.099-0.036 0.075-0.068 0.154-0.098 0.234-0.324-0.016-0.66 0.011-0.954 0.011-0.558 0-1.116 0.008-1.674 0.008h-3.627c-2.418 0-4.836-0.009-7.254-0.007-2.42 0.003-4.839 0.001-7.259 0.003-1.212 0.001-2.424 0.004-3.635 0.011-0.929 0.006-1.911-0.059-2.846 0.059-0.204 0.025-0.401-0.029-0.585-0.12-0.157-0.078-0.414 0.029-0.423 0.418-0.012 0.504 0.005 1.961-0.003 2.465-0.016 1.051-0.022 2.102-0.027 3.154-0.005 1.004-0.012 15.495-0.013 16.5-0.001 0.984-0.111 4.71 0.017 5.694-0.004 0.013-0.006 0.027-0.003 0.042 0.011 0.060 0.021 0.12 0.033 0.18 0.040 0.219 0.354 0.283 0.523 0.13 1.052 0.207 2.167-0.031 3.233-0.021 1.244 0.011 2.487 0.020 3.732 0.023 2.402 0.006 4.805 0.010 7.207 0.016 2.404 0.006 4.807 0.007 7.212 0.009 1.954 0.002 3.964 0.12 5.932 0.021 0.006 0.031 0.011 0.062 0.018 0.092 0.062 0.287 0.498 0.072 0.644-0.135 0.252-0.020 0.767-0.453 0.5-0.489zM29.656 4.688c-0.057 1.060-0.089 2.121-0.121 3.181-0.032 1.059-0.052 15.606-0.066 16.664-0.011 0.831-0.106 4.393-0.038 5.249-0.57-0.005-1.281 0.009-1.846 0.009l-3.75 0.003c-2.408 0.002-4.817 0.004-7.224 0.009-2.41 0.006-4.82 0.010-7.23 0.016-1.208 0.003-2.417 0.011-3.624 0.022-1.195 0.010-3.555 0.001-3.555 0 0.005-1.166 0-4.629 0-5.661-0.001-1.046-0.008-15.58-0.014-16.627-0.005-1-0.009-2-0.025-2.999-0.008-0.544-0.013-1.088-0.026-1.632-0.005-0.199 0.028-0.259 0.010-0.482 0.377 0 1.944-0.088 2.851-0.083 1.206 0.007 2.411 0.012 3.618 0.013 2.462 0.003 4.925-0.004 7.387-0.001 2.418 0.003 4.834-0.007 7.252-0.007h3.627c0.888 0 1.875-0.011 2.756-0.011-0.138 0.76 0.057 1.616 0.019 2.336z"></path>
<path d="M5.254 13.621c1.516 0.069 3.298 0.080 4.83 0.112 1.687 0.035 3.374 0.045 5.061 0.048 3.188 0.007 8.207 0.157 11.367-0.166 0.193-0.020 0.537-0.418 0-0.486-2.998-0.386-17.558-0.098-20.994-0.066-0.564 0.006-0.518 0.546-0.264 0.558zM13.313 16.53c-2.587 0.008-5.548-0.084-8.087 0.286-0.093 0.014-0.264 0.183 0 0.238 2.325 0.482 5.117 0.28 7.527 0.287 2.71 0.008 11.062-0.006 13.761-0.184 0.291-0.020 0.587-0.405 0-0.449-2.631-0.202-10.554-0.186-13.2-0.178zM26.513 19.942c-5.913-0.265-15.427-0.346-21.097 0.049-0.521 0.036-0.351 0.474-0.169 0.477 5.705 0.126 16.061 0.372 21.267 0.088 0.397-0.021 0.806-0.579-0.001-0.615zM26.513 5.989c-5.913-0.265-15.427-0.346-21.097 0.049-0.521 0.036-0.351 0.473-0.169 0.477 5.705 0.126 16.061 0.372 21.267 0.088 0.397-0.021 0.806-0.579-0.001-0.615zM26.513 23.166c-2.39-0.284-11.234-0.102-13.655-0.083-2.344 0.020-5.373-0.113-7.633 0.367-0.049 0.010-0.139 0.136 0 0.159 1.92 0.327 4.776 0.186 6.681 0.202 2.5 0.020 11.832 0.224 14.311-0.014 0.295-0.028 1.102-0.536 0.296-0.632zM26.513 9.399c-2.39-0.284-11.234-0.102-13.655-0.083-2.344 0.020-5.373-0.113-7.633 0.367-0.049 0.010-0.139 0.136 0 0.159 1.92 0.327 4.776 0.186 6.681 0.202 2.5 0.020 11.832 0.224 14.311-0.014 0.295-0.028 1.102-0.536 0.296-0.632zM26.513 26.517c-2.928-0.282-9.333-0.175-12.285-0.161-2.872 0.014-6.225-0.173-9.003 0.378-0.044 0.008-0.12 0.111 0 0.151 1.019 0.337 6.472 0.371 8.043 0.379 3.073 0.015 10.188 0.089 13.245-0.158 0.247-0.020 0.634-0.527 0-0.588z"></path>
</symbol>
<symbol id="tile-hero" viewBox="0 0 48 32">
<path d="M47.442 30.539c-4.182-0.166-9.519 0.064-13.598 0.064-4.068 0-20.11-0.001-24.178 0.014-2.295 0.008-6.082-0.141-8.368 0.128 0.137-3.016 0.166-13.172 0.169-17.037-0.003-1.872-0.012-3.764-0.028-5.636-0.008-1.065-0.010-2.13-0.027-3.194-0.015-0.934 0.006-3.554 0.171-3.554 1.031 0 5.363 0.016 6.394 0.019 2.067 0.004 4.134 0.011 6.201 0.012 4.178 0.002 20.331 0.001 24.509 0.001 2.084 0 5.607-0.006 7.668-0.105 0.231-0.011 0.419 0.227 0.398 0.511-0.077 1.061-0.126 7.45-0.174 11.993l-0-0.001c-0.005 0.662-0.077 5.797-0.077 6.075-0.001 2.029-0.025 8.171 0.18 10.185 0.030 0.292 0.486-0 0.505-0.209 0.194-2.061 0.122-8.238 0.122-10.311 0-0.388-0.043-5.535-0.043-5.923-0.001-1.942 0.031-4.047 0.015-5.98-0.016-1.799 0.192-6.589 0.162-6.698-0.001-0.038-0.278-0.207-0.347-0.202-0.088-0.006-21.462-0-25.374 0-4.181 0-8.361 0.003-12.541 0.011-1.157 0.002-3.751 0.005-4.908 0.016-1.148 0.011-2.207-0.068-3.348 0.111-0.079 0.012-0.070 5.321-0.086 7.348-0.014 1.783-0.010 3.698-0.012 5.486-0.049 3.978-0.176 14.377-0.117 17.589 0.003 0.149 5.944-0.020 7.883-0.010 2.030 0.011 4.061 0.008 6.092 0.010 4.064 0.005 20.103 0.007 24.166 0.007 2.341 0 5.99-0.005 8.329-0.134 0.145-0.007 0.55-0.574 0.264-0.585z"></path>
<path d="M41.246 28.761c0.392-0 1.244-0.001 1.636-0.004 0.292-0.002 1.056 0.065 1.071 0.015 0.073-0.245-0.022-1.328-0.054-1.543-0.013-0.087-0.087-0.152-0.177-0.152-0 0-0.001 0-0.001 0h0c-0.249 0.001-0.741 0.002-1.019-0.006-0.391-0.011-1.24-0.017-1.631-0.018-0.787-0.001-1.324-0.031-2.086 0.022-0.11 0.008-0.105 0.163-0.107 0.195-0.007 0.195-0.025 0.849 0.012 1.264 0.005 0.055-0.021 0.106-0.065 0.138-0.018 0.013-0.031 0.029-0.031 0.043 0 0.147 1.712 0.046 2.451 0.045zM39.051 27.393c-0-0.001-0-0.003-0-0.004 0-0.096 0.078-0.175 0.174-0.175h0c0.66-0.002 1.283-0.011 1.951-0.012 0.404-0 1.266 0.003 1.67 0.011 0.309 0.006 0.565 0.041 0.867 0.025 0.036 0.207 0.056 0.477 0.051 0.685-0.005 0.194-0.018 0.393-0.001 0.587 0.006 0.069-0.052 0.126-0.121 0.119-0.285-0.027-0.578-0.011-0.86-0.012-0.394-0.002-1.247-0.003-1.641-0.004-0.7-0.001-1.398 0.004-2.097 0.025 0.054-0.413 0.017-0.826 0.007-1.244z"></path>
<path d="M42.592 27.981c0.138 0.023 0.447 0.024 0.571 0.026-0.081 0.054-0.118 0.105-0.227 0.191-0.032 0.025 0.125 0.067 0.148 0.056 0.142-0.070 0.209-0.137 0.353-0.231 0.025-0.016 0.005-0.048-0.009-0.065-0.118-0.149-0.245-0.301-0.402-0.409-0.015-0.011-0.119-0.033-0.089 0.014 0.065 0.105 0.146 0.199 0.221 0.298-0.139 0.008-0.434 0.011-0.574 0.011-0.071-0-0.038 0.1 0.008 0.108zM40.384 27.874l0.224 0.272h0.085v-0.449h-0.103v0.273l-0.223-0.273h-0.086v0.449h0.103zM41.148 28.063h-0.244v-0.104h0.209v-0.081h-0.209v-0.098h0.236v-0.083h-0.34v0.449h0.348zM41.401 27.99l0.108 0.156h0.12l-0.167-0.232 0.153-0.212v0.079h0.144v0.364h0.104v-0.364h0.144v-0.085h-0.501l-0.101 0.146-0.103-0.146h-0.118l0.158 0.221-0.166 0.229h0.119zM36.827 28.78c0.701 0.001 1.455 0.102 1.454-0.045 0-0.014-0.013-0.030-0.029-0.043-0.042-0.033-0.066-0.084-0.062-0.138 0.036-0.415 0.018-1.069 0.012-1.264-0.001-0.032 0.003-0.187-0.101-0.195-0.723-0.054-0.087-0.024-0.834-0.022-0.371 0-0.030 0.007-0.401 0.018-0.264 0.008-0.364 0.007-0.6 0.006-0.084-0-0.156 0.064-0.168 0.152-0.031 0.215-0.121 1.298-0.051 1.543l0.781-0.011zM36.273 27.255c0.287 0.016 0.163-0.019 0.456-0.025 0.383-0.008 0.055-0.011 0.438-0.011 0.634 0.001 0.079 0.010 0.705 0.012 0.093 0 0.168 0.081 0.166 0.179-0.010 0.418-0.045 0.832 0.006 1.244-0.663-0.021-0.455-0.026-1.119-0.025l-0.585 0.016c-0.066 0.006-0.121-0.050-0.115-0.119 0.017-0.194 0.004-0.393-0.001-0.587-0.004-0.207 0.015-0.478 0.049-0.685z"></path>
<path d="M36.701 27.997c0.143 0.094 0.21 0.16 0.353 0.231 0.022 0.011 0.18-0.032 0.148-0.056-0.109-0.085-0.146-0.137-0.227-0.191 0.124-0.001 0.434-0.003 0.571-0.026 0.045-0.007 0.078-0.108 0.007-0.108-0.14 0-0.435-0.002-0.574-0.011 0.075-0.099 0.156-0.193 0.221-0.298 0.030-0.048-0.074-0.025-0.089-0.014-0.157 0.108-0.284 0.26-0.402 0.409-0.013 0.017-0.033 0.049-0.008 0.065zM3.269 29.365c-0.027 0.048 0.059 0.207 0.117 0.145 1.268-1.351 2.279-2.898 3.339-4.376 1.076-1.501 2.146-3.004 3.211-4.511 0.937-1.327 1.869-2.656 2.796-3.988 1.421 1.942 2.852 3.879 4.297 5.807 0.65 0.866 1.302 1.731 1.955 2.595 0.689 0.91 1.341 1.873 2.133 2.72 0.209 0.223 0.381 0.041 0.242-0.185-1.008-1.622-2.319-3.132-3.479-4.674-1.171-1.557-2.338-3.117-3.497-4.681-0.473-0.639-0.944-1.279-1.416-1.918 1.101-1.583 2.195-3.169 3.28-4.76 1.194-1.749 3.905-5.9 5.010-7.693 0.040-0.065-0.089-0.253-0.144-0.177-2.362 3.231-6.214 8.891-8.482 12.175-1.743-2.372-3.471-4.753-5.182-7.143-1.285-1.795-2.485-3.677-3.924-5.383-0.101-0.12-0.184-0.018-0.121 0.092 0.946 1.651 2.138 3.213 3.249 4.782 1.124 1.586 2.254 3.168 3.392 4.746 0.78 1.082 1.566 2.163 2.353 3.241-1.835 2.657-3.668 5.315-5.545 7.949-1.226 1.721-2.566 3.416-3.586 5.237zM26.186 16.797h1.071v-4.628h-1.071v1.825h-2.102v-1.825h-1.071v4.628h1.071v-1.898h2.102zM31.939 15.937h-2.519v-1.071h2.149v-0.833h-2.149v-1.005h2.433v-0.86h-3.497v4.628h3.583zM36.89 16.797l-1.034-1.484c0.003-0.001 0.006-0.002 0.009-0.004 0.3-0.132 0.531-0.323 0.694-0.572s0.245-0.546 0.245-0.889c0-0.348-0.082-0.648-0.245-0.899s-0.395-0.444-0.694-0.579c-0.3-0.134-0.657-0.202-1.071-0.202h-2.003v4.628h1.071v-1.289h0.932c0.017 0 0.033-0.001 0.050-0.001l0.889 1.29h1.157zM35.476 14.44c-0.163 0.143-0.41 0.215-0.74 0.215h-0.873v-1.613h0.873c0.331 0 0.577 0.071 0.74 0.211s0.245 0.339 0.245 0.595c0 0.251-0.082 0.448-0.245 0.592zM39.899 16.876c0.361 0 0.695-0.060 1.002-0.178s0.573-0.285 0.8-0.499c0.227-0.214 0.404-0.467 0.532-0.76s0.192-0.612 0.192-0.955c0-0.348-0.064-0.667-0.192-0.955s-0.305-0.541-0.532-0.757c-0.227-0.216-0.494-0.383-0.8-0.502s-0.642-0.178-1.008-0.178c-0.361 0-0.696 0.060-1.005 0.178s-0.578 0.287-0.806 0.502c-0.229 0.216-0.407 0.469-0.532 0.76s-0.188 0.608-0.188 0.952 0.063 0.661 0.188 0.952 0.302 0.545 0.529 0.76c0.227 0.216 0.496 0.384 0.806 0.502s0.649 0.178 1.015 0.178zM38.553 15.081c-0.073-0.183-0.109-0.382-0.109-0.598 0-0.221 0.036-0.421 0.109-0.601s0.175-0.337 0.308-0.469c0.132-0.132 0.285-0.233 0.459-0.304s0.364-0.106 0.572-0.106c0.207 0 0.399 0.035 0.575 0.106s0.33 0.172 0.459 0.304 0.232 0.289 0.304 0.469c0.073 0.181 0.109 0.381 0.109 0.601s-0.036 0.421-0.109 0.601-0.175 0.337-0.308 0.469c-0.132 0.132-0.286 0.234-0.459 0.304s-0.365 0.106-0.572 0.106c-0.207 0-0.399-0.035-0.575-0.106s-0.33-0.172-0.459-0.304c-0.13-0.133-0.231-0.29-0.304-0.473zM24.536 19.959c-0.092 0.066-0.243 0.099-0.452 0.099-0.154 0-0.3-0.024-0.439-0.073s-0.254-0.107-0.343-0.174l-0.134 0.234c0.092 0.078 0.219 0.143 0.381 0.194s0.333 0.077 0.515 0.077c0.193 0 0.356-0.026 0.492-0.077s0.238-0.124 0.309-0.218 0.107-0.204 0.107-0.333c0-0.12-0.026-0.217-0.077-0.291s-0.12-0.131-0.205-0.171c-0.085-0.040-0.178-0.072-0.281-0.096s-0.204-0.044-0.305-0.061c-0.102-0.017-0.195-0.038-0.281-0.065s-0.154-0.063-0.205-0.111c-0.052-0.047-0.077-0.113-0.077-0.197 0-0.106 0.047-0.193 0.14-0.262s0.239-0.103 0.437-0.103c0.111 0 0.223 0.015 0.335 0.044s0.216 0.077 0.314 0.144l0.13-0.238c-0.092-0.061-0.209-0.111-0.352-0.149-0.128-0.036-0.275-0.056-0.427-0.056h-0c-0.187 0-0.345 0.027-0.475 0.082s-0.228 0.129-0.295 0.224c-0.067 0.095-0.1 0.202-0.1 0.322 0 0.126 0.026 0.226 0.077 0.301s0.119 0.135 0.203 0.178 0.177 0.076 0.278 0.099 0.204 0.042 0.308 0.059 0.197 0.037 0.28 0.061c0.084 0.024 0.151 0.059 0.203 0.105s0.077 0.11 0.077 0.19c-0.001 0.109-0.047 0.197-0.139 0.262zM27.434 19.239c0.001-0.015 0.002-0.030 0.002-0.044 0-0.221-0.046-0.415-0.138-0.584s-0.218-0.3-0.379-0.393-0.344-0.14-0.55-0.14c-0.204 0-0.387 0.048-0.55 0.144s-0.292 0.228-0.385 0.396c-0.094 0.167-0.14 0.36-0.14 0.578s0.049 0.411 0.147 0.579c0.098 0.169 0.233 0.301 0.406 0.397s0.374 0.144 0.602 0.144c0.176 0 0.337-0.031 0.483-0.092s0.269-0.151 0.366-0.268l-0.167-0.193c-0.084 0.098-0.183 0.17-0.299 0.218s-0.241 0.071-0.375 0.071c-0.17 0-0.321-0.036-0.454-0.107s-0.236-0.17-0.309-0.297c-0.062-0.106-0.098-0.227-0.108-0.362h1.846c-0-0.017 0-0.033 0.002-0.048zM25.587 19.065c0.011-0.123 0.043-0.235 0.096-0.335 0.067-0.126 0.16-0.223 0.281-0.293s0.255-0.105 0.406-0.105c0.154 0 0.289 0.035 0.406 0.105s0.21 0.167 0.278 0.291c0.055 0.101 0.088 0.213 0.099 0.337h-1.565zM28.528 18.444c0.126-0.071 0.266-0.107 0.423-0.107 0.131 0 0.253 0.027 0.364 0.079s0.205 0.135 0.281 0.247l0.222-0.151c-0.087-0.145-0.205-0.254-0.356-0.326s-0.32-0.109-0.506-0.109c-0.218 0-0.412 0.048-0.584 0.142s-0.306 0.226-0.404 0.393-0.147 0.361-0.147 0.582c0 0.218 0.049 0.411 0.147 0.579s0.232 0.301 0.404 0.397 0.366 0.144 0.584 0.144c0.187 0 0.356-0.037 0.506-0.111s0.269-0.182 0.356-0.324l-0.222-0.151c-0.075 0.109-0.169 0.19-0.281 0.243s-0.233 0.079-0.364 0.079c-0.156 0-0.297-0.036-0.423-0.107s-0.225-0.171-0.297-0.299c-0.072-0.128-0.109-0.279-0.109-0.452s0.036-0.324 0.109-0.452c0.072-0.127 0.172-0.226 0.297-0.298zM30.641 20.149c0.111 0.111 0.27 0.167 0.477 0.167 0.087 0 0.171-0.012 0.253-0.038s0.153-0.064 0.211-0.117l-0.105-0.214c-0.087 0.075-0.195 0.113-0.326 0.113-0.123 0-0.217-0.035-0.282-0.105s-0.098-0.169-0.098-0.297v-1.314h0.669v-0.247h-0.669v-0.485h-0.297v0.485h-0.393v0.247h0.393v1.33c-0 0.204 0.055 0.362 0.167 0.474zM32.122 18.098h0.297v2.197h-0.297zM32.491 17.396c0-0.059-0.021-0.107-0.063-0.146s-0.094-0.059-0.155-0.059c-0.061 0-0.113 0.020-0.155 0.061s-0.063 0.090-0.063 0.149 0.021 0.109 0.063 0.151c0.042 0.042 0.094 0.063 0.155 0.063 0.064 0 0.116-0.021 0.157-0.063s0.061-0.094 0.061-0.155zM34.723 18.22c-0.169-0.095-0.362-0.142-0.579-0.142-0.215 0-0.406 0.048-0.573 0.142s-0.3 0.226-0.397 0.393-0.147 0.361-0.147 0.582c0 0.218 0.049 0.411 0.147 0.579s0.231 0.301 0.4 0.397c0.169 0.096 0.359 0.144 0.571 0.144 0.215 0 0.407-0.048 0.578-0.144s0.303-0.229 0.4-0.397 0.144-0.362 0.144-0.579c0-0.221-0.048-0.414-0.144-0.582s-0.23-0.298-0.398-0.393zM34.857 19.645c-0.071 0.13-0.168 0.23-0.291 0.301s-0.264 0.107-0.423 0.107c-0.154 0-0.292-0.036-0.414-0.107s-0.221-0.171-0.293-0.301-0.109-0.28-0.109-0.45c0-0.173 0.036-0.324 0.109-0.452s0.17-0.228 0.293-0.299 0.262-0.107 0.419-0.107c0.156 0 0.296 0.036 0.419 0.107s0.22 0.171 0.291 0.299 0.107 0.279 0.107 0.452c0 0.17-0.036 0.32-0.107 0.45zM36.169 19.14c0-0.167 0.031-0.31 0.094-0.429s0.152-0.209 0.268-0.272 0.252-0.094 0.408-0.094c0.209 0 0.372 0.059 0.487 0.178s0.174 0.293 0.174 0.525v1.247h0.297v-1.276c0-0.212-0.038-0.388-0.115-0.527s-0.183-0.243-0.318-0.312c-0.135-0.068-0.292-0.103-0.471-0.103-0.212 0-0.395 0.045-0.548 0.136-0.123 0.073-0.22 0.169-0.289 0.286v-0.401h-0.285v2.197h0.297v-1.155z"></path>
</symbol>
<symbol id="tile-header" viewBox="0 0 65 32">
<path d="M1.554 11.93c-0.16 0.030-0.118 0.149-0.072 0.24 0.060 0.116 0.549 0.077 0.711 0.075 0.245-0.002 58.492-0.032 60.671-0.224 0.354 0.007 0.495-0.165 0.39-0.361-0.020-0.037-3.7-0.105-4.91-0.101-1.245 0.005-53.38 0.185-54.628 0.246-0.591 0.029-1.187 0.007-1.778 0.051-0.027 0.002 0.029-1.878 0.020-2.858-0.006-0.789 0.002-1.589-0.074-2.378 0.516-0.013 1.032-0.026 1.547-0.038 1.786 0.068 3.586 0.033 5.365 0.050 2.358 0.023 49.385-0.145 54.142-0.099 0.053 0.001 0.074 4.037 0.27 4.798 0.030 0.115 0.278-0.042 0.287-0.121 0.1-0.865-0.018-4.28-0.079-4.771 0.011-0.598-0.358-0.492-0.567-0.46-0.067 0.010-41.914-0.015-46.642 0.014-3.143 0.020-14.455-0.026-14.668 0.185-0.29 0.492-0.065 3.594 0.015 5.751z"></path>
<path d="M10.046 8.146c-0.006-0.001-0.012-0.001-0.018-0.001-0.009-0.055-0.021-0.11-0.036-0.165-0.027-0.095-0.222 0.032-0.241 0.082-0.007 0.020-0.014 0.041-0.020 0.061-1.002-0.067-2.002-0.060-3.007-0.053-1.037 0.007-2.068-0.094-3.157-0.017-0.002-0.003-0.003-0.007-0.005-0.009-0.059-0.1-0.251 0.033-0.264 0.111-0.066 0.399-0.019 0.948-0.057 1.353-0.024 0.253-0.021 0.844-0.029 0.926-0.013 0.151 2.645 0.034 3.832 0.031 1.299-0.003 1.752 0.109 3.038-0.087 0.062-0.009 0.34-0.208 0.166-0.236-0.338-0.055-0.143-0.871-0.167-1.243-0.014-0.206-0.011-0.411-0.034-0.614 0.074-0.057 0.117-0.127-0.001-0.138zM7.151 10.079c-1.166 0.024-3.496 0.123-3.496 0.123l0.069-1.588c0.005-0.121 0.104-0.217 0.226-0.217 0.003 0 0.006 0 0.009 0h-0c0.522 0.019 4.572 0.075 5.603 0.008 0.014 0.527 0.014 1.186 0.014 1.667-0.839-0.006-1.613-0.010-2.424 0.007zM14.43 9.899v-1.22h-0.283v0.481h-0.555v-0.481h-0.283v1.22h0.283v-0.5h0.555v0.5zM15.579 8.704c-0.081-0.032-0.169-0.047-0.266-0.047s-0.184 0.016-0.265 0.047c-0.082 0.032-0.153 0.075-0.213 0.132s-0.107 0.124-0.14 0.201c-0.034 0.077-0.050 0.16-0.050 0.251s0.017 0.175 0.050 0.251c0.034 0.077 0.080 0.143 0.14 0.2s0.131 0.101 0.213 0.133c0.082 0.032 0.171 0.047 0.268 0.047s0.183-0.016 0.264-0.047 0.152-0.075 0.211-0.131c0.060-0.057 0.107-0.123 0.14-0.201s0.050-0.161 0.050-0.252c0-0.092-0.017-0.176-0.050-0.252s-0.081-0.142-0.14-0.2c-0.060-0.057-0.13-0.1-0.211-0.132zM15.666 9.447c-0.037 0.093-0.109 0.166-0.199 0.203l-0.002 0.001c-0.046 0.019-0.097 0.028-0.151 0.028s-0.105-0.009-0.152-0.028-0.087-0.046-0.122-0.080c-0.034-0.035-0.061-0.076-0.080-0.125s-0.029-0.1-0.029-0.158 0.009-0.111 0.029-0.159c0.037-0.093 0.109-0.166 0.199-0.203l0.002-0.001c0.046-0.019 0.097-0.028 0.151-0.028s0.105 0.009 0.152 0.028 0.087 0.046 0.122 0.080c0.034 0.035 0.061 0.076 0.080 0.124s0.029 0.1 0.029 0.159c0 0.058-0.009 0.111-0.029 0.159zM16.887 9.436l-0.458-0.758h-0.234v1.22h0.265v-0.717l0.358 0.588h0.127l0.36-0.604 0.002 0.733h0.265l-0.003-1.22h-0.233zM18.786 8.904v-0.226h-0.924v1.22h0.947v-0.227h-0.666v-0.282h0.568v-0.22h-0.568v-0.266zM21.331 9.006c0.035-0.035 0.076-0.061 0.124-0.080s0.1-0.028 0.157-0.028c0.060 0 0.116 0.012 0.167 0.035s0.098 0.060 0.14 0.107l0.181-0.167c-0.059-0.071-0.13-0.125-0.216-0.161s-0.181-0.055-0.287-0.055c-0.096 0-0.183 0.016-0.264 0.046s-0.151 0.074-0.21 0.131c-0.060 0.057-0.107 0.124-0.14 0.201s-0.050 0.161-0.050 0.253 0.017 0.176 0.050 0.253c0.034 0.077 0.079 0.143 0.139 0.201 0.059 0.056 0.129 0.1 0.206 0.13l0.004 0.001c0.081 0.031 0.168 0.046 0.263 0.046 0.107 0 0.204-0.019 0.289-0.056s0.157-0.091 0.216-0.162l-0.181-0.167c-0.042 0.048-0.088 0.086-0.14 0.109s-0.107 0.035-0.167 0.035c-0.057 0-0.11-0.009-0.157-0.028s-0.089-0.046-0.124-0.080c-0.035-0.035-0.062-0.076-0.081-0.124s-0.029-0.1-0.029-0.159c0-0.058 0.009-0.111 0.029-0.159s0.047-0.088 0.081-0.124zM22.652 8.678l-0.545 1.22h0.29l0.109-0.261h0.567l0.109 0.261h0.297l-0.547-1.22h-0.279zM22.595 9.422l0.194-0.467 0.194 0.467h-0.388zM24.081 9.899v-0.991h0.391v-0.23h-1.065v0.23h0.392v0.991zM25.548 8.904v-0.226h-0.924v1.22h0.947v-0.227h-0.666v-0.282h0.567v-0.22h-0.567v-0.266zM26.116 9.006c0.035-0.035 0.078-0.061 0.127-0.080s0.103-0.028 0.163-0.028c0.061 0 0.119 0.011 0.171 0.034s0.1 0.058 0.145 0.104l0.181-0.167c-0.060-0.069-0.132-0.121-0.22-0.157s-0.184-0.054-0.292-0.054c-0.098 0-0.188 0.016-0.269 0.046s-0.153 0.074-0.213 0.131-0.107 0.124-0.14 0.201c-0.034 0.076-0.050 0.161-0.050 0.253s0.017 0.176 0.050 0.253c0.034 0.077 0.080 0.143 0.14 0.201s0.13 0.1 0.211 0.131 0.169 0.046 0.266 0.046c0.087 0 0.175-0.013 0.263-0.040s0.165-0.065 0.232-0.115v-0.495h-0.259v0.356c-0.019 0.010-0.037 0.020-0.057 0.026-0.053 0.018-0.108 0.027-0.164 0.027-0.059 0-0.112-0.009-0.16-0.028s-0.090-0.046-0.126-0.081c-0.035-0.035-0.063-0.077-0.082-0.125s-0.029-0.1-0.029-0.157 0.009-0.111 0.029-0.159 0.047-0.089 0.082-0.125zM28.001 8.704c-0.081-0.032-0.169-0.047-0.266-0.047s-0.184 0.016-0.265 0.047c-0.082 0.032-0.153 0.075-0.213 0.132s-0.107 0.124-0.14 0.201c-0.034 0.077-0.050 0.16-0.050 0.251s0.017 0.175 0.050 0.251c0.034 0.077 0.080 0.143 0.14 0.2s0.131 0.101 0.213 0.133c0.082 0.032 0.171 0.047 0.268 0.047s0.183-0.016 0.264-0.047 0.152-0.075 0.211-0.131c0.060-0.057 0.107-0.123 0.14-0.201s0.050-0.161 0.050-0.252c0-0.092-0.017-0.176-0.050-0.252s-0.081-0.142-0.14-0.2c-0.060-0.057-0.13-0.1-0.211-0.132zM28.088 9.447c-0.037 0.093-0.109 0.166-0.199 0.203l-0.002 0.001c-0.047 0.019-0.097 0.028-0.151 0.028s-0.105-0.009-0.152-0.028-0.087-0.046-0.122-0.080c-0.034-0.035-0.061-0.076-0.080-0.125s-0.029-0.1-0.029-0.158 0.009-0.111 0.029-0.159c0.037-0.093 0.109-0.166 0.199-0.203l0.002-0.001c0.046-0.019 0.097-0.028 0.151-0.028s0.105 0.009 0.152 0.028 0.087 0.046 0.122 0.080c0.034 0.035 0.061 0.076 0.080 0.124s0.029 0.1 0.029 0.159c0 0.058-0.009 0.111-0.029 0.159zM29.613 9.355c0.043-0.066 0.064-0.144 0.064-0.234 0-0.092-0.021-0.171-0.064-0.237s-0.104-0.117-0.183-0.153c-0.079-0.035-0.174-0.053-0.283-0.053h-0.529v1.22h0.283v-0.34h0.247c0.005 0 0.008-0.001 0.013-0.001l0.235 0.341h0.306l-0.273-0.392c0.001 0 0.002 0 0.003-0.001 0.078-0.034 0.139-0.085 0.182-0.151zM29.326 9.277c-0.043 0.038-0.108 0.057-0.195 0.057h-0.231v-0.425h0.231c0.087 0 0.153 0.019 0.195 0.056s0.064 0.089 0.064 0.157c0 0.065-0.021 0.117-0.064 0.155zM29.9 8.678h0.283v1.22h-0.283zM31.398 8.904v-0.226h-0.925v1.22h0.947v-0.227h-0.665v-0.282h0.567v-0.22h-0.567v-0.266zM32.184 9.676c-0.034 0.011-0.080 0.017-0.136 0.017-0.073 0-0.146-0.012-0.218-0.035s-0.134-0.054-0.186-0.091l-0.096 0.213c0.055 0.042 0.127 0.075 0.217 0.102s0.183 0.039 0.281 0.039c0.116 0 0.213-0.018 0.289-0.052s0.134-0.081 0.172-0.138 0.058-0.12 0.058-0.188c0-0.064-0.013-0.117-0.039-0.159s-0.061-0.076-0.101-0.101l-0.001-0.001c-0.042-0.025-0.088-0.046-0.139-0.061s-0.101-0.029-0.152-0.040c-0.050-0.012-0.097-0.023-0.139-0.035s-0.075-0.027-0.101-0.046c-0.023-0.016-0.038-0.043-0.038-0.073 0-0.001 0-0.002 0-0.003v0c0-0.027 0.007-0.050 0.022-0.071s0.040-0.037 0.075-0.049c0.035-0.013 0.080-0.020 0.135-0.020s0.111 0.008 0.167 0.023c0.057 0.016 0.114 0.040 0.171 0.073l0.087-0.215c-0.057-0.036-0.123-0.063-0.197-0.081s-0.151-0.027-0.227-0.027c-0.115 0-0.211 0.017-0.287 0.051s-0.133 0.080-0.171 0.138c-0.038 0.058-0.057 0.121-0.057 0.191 0 0.065 0.013 0.118 0.039 0.16s0.060 0.075 0.102 0.101c0.042 0.026 0.088 0.046 0.139 0.063s0.101 0.030 0.152 0.041 0.097 0.022 0.139 0.035c0.042 0.012 0.075 0.028 0.101 0.047s0.038 0.046 0.038 0.077c0 0.025-0.008 0.048-0.024 0.068s-0.042 0.035-0.076 0.046zM34.577 9.899h0.29l0.109-0.261h0.566l0.109 0.261h0.297l-0.547-1.22h-0.279l-0.545 1.22zM35.453 9.422h-0.389l0.194-0.467 0.194 0.467zM37.088 9.162c0.032-0.047 0.047-0.102 0.047-0.166 0-0.096-0.039-0.172-0.116-0.23s-0.193-0.087-0.347-0.087h-0.597v1.22h0.633c0.161 0 0.282-0.030 0.365-0.088s0.124-0.14 0.124-0.245c0-0.071-0.017-0.131-0.050-0.18s-0.079-0.086-0.139-0.111c-0.012-0.005-0.025-0.007-0.038-0.011 0.050-0.025 0.090-0.059 0.119-0.102zM36.356 8.891h0.281c0.069 0 0.121 0.012 0.158 0.035s0.055 0.060 0.055 0.107c0 0.049-0.019 0.086-0.055 0.109s-0.089 0.035-0.158 0.035h-0.281v-0.287zM36.854 9.65c-0.038 0.024-0.093 0.035-0.166 0.035h-0.33v-0.301h0.33c0.074 0 0.129 0.012 0.166 0.037s0.057 0.063 0.057 0.114c0 0.052-0.020 0.090-0.057 0.114zM38.27 8.704c-0.081-0.032-0.169-0.047-0.266-0.047s-0.184 0.016-0.265 0.047c-0.082 0.032-0.153 0.075-0.213 0.132s-0.108 0.124-0.14 0.201c-0.033 0.077-0.050 0.16-0.050 0.251s0.017 0.175 0.050 0.251c0.033 0.077 0.080 0.143 0.14 0.2s0.131 0.101 0.213 0.133c0.082 0.032 0.171 0.047 0.268 0.047s0.184-0.016 0.264-0.047c0.081-0.032 0.152-0.075 0.211-0.131s0.107-0.123 0.14-0.201c0.033-0.077 0.050-0.161 0.050-0.252s-0.017-0.176-0.050-0.252-0.081-0.142-0.14-0.2c-0.060-0.057-0.13-0.1-0.211-0.132zM38.357 9.447c-0.037 0.093-0.109 0.166-0.199 0.203l-0.002 0.001c-0.047 0.019-0.097 0.028-0.151 0.028s-0.105-0.009-0.152-0.028-0.087-0.046-0.122-0.080c-0.034-0.035-0.061-0.076-0.080-0.125s-0.029-0.1-0.029-0.158 0.009-0.111 0.029-0.159c0.020-0.047 0.047-0.089 0.081-0.124s0.075-0.061 0.122-0.080c0.046-0.019 0.096-0.028 0.151-0.028s0.105 0.009 0.152 0.028c0.047 0.019 0.087 0.046 0.121 0.080s0.061 0.076 0.080 0.124 0.029 0.1 0.029 0.159c0 0.058-0.009 0.111-0.029 0.159zM38.875 8.678v0.684c0 0.179 0.049 0.317 0.147 0.413s0.233 0.145 0.407 0.145c0.174 0 0.309-0.048 0.407-0.145s0.147-0.234 0.147-0.413v-0.684h-0.279v0.674c0 0.116-0.024 0.2-0.072 0.251s-0.114 0.077-0.201 0.077c-0.087 0-0.154-0.025-0.201-0.077s-0.072-0.135-0.072-0.251v-0.674h-0.284zM40.778 9.899v-0.991h0.391v-0.23h-1.065v0.23h0.392v0.991zM43.837 9.676c-0.034 0.011-0.080 0.017-0.136 0.017-0.074 0-0.146-0.012-0.218-0.035s-0.134-0.054-0.186-0.091l-0.096 0.213c0.055 0.042 0.127 0.075 0.217 0.102s0.183 0.039 0.281 0.039c0.116 0 0.213-0.018 0.289-0.052s0.134-0.081 0.172-0.138 0.058-0.12 0.058-0.188c0-0.064-0.013-0.117-0.039-0.159s-0.061-0.076-0.101-0.101l-0.001-0.001c-0.042-0.025-0.088-0.046-0.139-0.061s-0.101-0.029-0.152-0.040c-0.050-0.012-0.097-0.023-0.139-0.035s-0.075-0.027-0.101-0.046c-0.023-0.016-0.038-0.043-0.038-0.073 0-0.001 0-0.002 0-0.003v0c0-0.027 0.007-0.050 0.022-0.071s0.040-0.037 0.075-0.049c0.035-0.013 0.080-0.020 0.135-0.020s0.111 0.008 0.167 0.023c0.057 0.016 0.114 0.040 0.171 0.073l0.087-0.215c-0.057-0.036-0.123-0.063-0.197-0.081s-0.15-0.027-0.227-0.027c-0.115 0-0.211 0.017-0.287 0.051s-0.133 0.080-0.171 0.138c-0.038 0.058-0.057 0.121-0.057 0.191 0 0.065 0.013 0.118 0.039 0.16s0.060 0.075 0.102 0.101c0.042 0.026 0.088 0.046 0.139 0.063s0.101 0.030 0.152 0.041 0.097 0.022 0.139 0.035c0.042 0.012 0.075 0.028 0.101 0.047s0.038 0.046 0.038 0.077c0 0.025-0.008 0.048-0.024 0.068s-0.043 0.035-0.076 0.046zM45.271 8.704c-0.081-0.032-0.169-0.047-0.266-0.047s-0.184 0.016-0.265 0.047c-0.082 0.032-0.153 0.075-0.213 0.132s-0.108 0.124-0.14 0.201c-0.033 0.077-0.050 0.16-0.050 0.251s0.017 0.175 0.050 0.251c0.033 0.077 0.080 0.143 0.14 0.2s0.131 0.101 0.213 0.133c0.082 0.032 0.171 0.047 0.268 0.047s0.184-0.016 0.264-0.047c0.081-0.032 0.152-0.075 0.211-0.131s0.107-0.123 0.14-0.201c0.033-0.077 0.050-0.161 0.050-0.252s-0.017-0.176-0.050-0.252-0.081-0.142-0.14-0.2c-0.060-0.057-0.13-0.1-0.211-0.132zM45.358 9.447c-0.037 0.093-0.109 0.166-0.199 0.203l-0.002 0.001c-0.047 0.019-0.097 0.028-0.151 0.028s-0.105-0.009-0.152-0.028-0.087-0.046-0.122-0.080c-0.034-0.035-0.061-0.076-0.080-0.125s-0.029-0.1-0.029-0.158 0.009-0.111 0.029-0.159c0.020-0.047 0.047-0.089 0.081-0.124s0.075-0.061 0.122-0.080c0.046-0.019 0.096-0.028 0.151-0.028s0.105 0.009 0.152 0.028c0.047 0.019 0.087 0.046 0.121 0.080s0.061 0.076 0.080 0.124c0.020 0.047 0.029 0.1 0.029 0.159s-0.009 0.111-0.029 0.159zM46.206 9.006c0.035-0.035 0.076-0.061 0.124-0.080s0.1-0.028 0.157-0.028c0.060 0 0.116 0.012 0.167 0.035s0.098 0.060 0.14 0.107l0.181-0.167c-0.059-0.071-0.13-0.125-0.216-0.161s-0.181-0.055-0.287-0.055c-0.096 0-0.183 0.016-0.264 0.046s-0.151 0.074-0.21 0.131c-0.060 0.057-0.107 0.124-0.14 0.201s-0.050 0.161-0.050 0.253 0.017 0.176 0.050 0.253c0.033 0.077 0.079 0.143 0.139 0.201 0.059 0.056 0.129 0.1 0.206 0.13l0.004 0.001c0.081 0.031 0.168 0.046 0.263 0.046 0.107 0 0.204-0.019 0.289-0.056s0.157-0.091 0.216-0.162l-0.181-0.167c-0.042 0.048-0.088 0.086-0.14 0.109s-0.107 0.035-0.167 0.035c-0.057 0-0.11-0.009-0.157-0.028s-0.089-0.046-0.124-0.080c-0.034-0.035-0.062-0.076-0.081-0.124s-0.029-0.1-0.029-0.159c0-0.058 0.009-0.111 0.029-0.159s0.046-0.088 0.081-0.124zM47.167 8.678h0.283v1.22h-0.283zM47.58 9.899h0.29l0.109-0.261h0.566l0.109 0.261h0.297l-0.547-1.22h-0.279l-0.545 1.22zM48.456 9.422h-0.389l0.194-0.467 0.194 0.467zM49.078 8.678v1.22h0.896v-0.23h-0.613v-0.991zM52.43 9.006c0.035-0.035 0.076-0.061 0.124-0.080s0.1-0.028 0.157-0.028c0.060 0 0.116 0.012 0.167 0.035s0.098 0.060 0.14 0.107l0.181-0.167c-0.059-0.071-0.13-0.125-0.216-0.161s-0.181-0.055-0.287-0.055c-0.096 0-0.183 0.016-0.264 0.046s-0.151 0.074-0.21 0.131c-0.060 0.057-0.107 0.124-0.14 0.201s-0.050 0.161-0.050 0.253 0.017 0.176 0.050 0.253c0.033 0.077 0.079 0.143 0.139 0.201 0.059 0.056 0.129 0.1 0.206 0.13l0.004 0.001c0.081 0.031 0.168 0.046 0.263 0.046 0.107 0 0.204-0.019 0.289-0.056s0.157-0.091 0.216-0.162l-0.181-0.167c-0.042 0.048-0.088 0.086-0.14 0.109s-0.107 0.035-0.167 0.035c-0.057 0-0.11-0.009-0.157-0.028s-0.089-0.046-0.124-0.080c-0.034-0.035-0.062-0.076-0.081-0.124s-0.029-0.1-0.029-0.159c0-0.058 0.009-0.111 0.029-0.159s0.047-0.088 0.081-0.124zM54.222 8.704c-0.081-0.032-0.169-0.047-0.266-0.047s-0.184 0.016-0.265 0.047c-0.082 0.032-0.153 0.075-0.213 0.132s-0.108 0.124-0.14 0.201c-0.033 0.077-0.050 0.16-0.050 0.251s0.017 0.175 0.050 0.251c0.033 0.077 0.080 0.143 0.14 0.2s0.131 0.101 0.213 0.133c0.082 0.032 0.171 0.047 0.268 0.047s0.184-0.016 0.264-0.047c0.081-0.032 0.152-0.075 0.211-0.131s0.107-0.123 0.14-0.201c0.033-0.077 0.050-0.161 0.050-0.252s-0.017-0.176-0.050-0.252-0.081-0.142-0.14-0.2c-0.060-0.057-0.13-0.1-0.211-0.132zM54.31 9.447c-0.037 0.093-0.109 0.166-0.199 0.203l-0.002 0.001c-0.047 0.019-0.097 0.028-0.151 0.028s-0.105-0.009-0.152-0.028-0.087-0.046-0.122-0.080c-0.034-0.035-0.061-0.076-0.080-0.125s-0.029-0.1-0.029-0.158 0.009-0.111 0.029-0.159c0.020-0.047 0.047-0.089 0.081-0.124s0.075-0.061 0.122-0.080c0.046-0.019 0.096-0.028 0.151-0.028s0.105 0.009 0.152 0.028c0.047 0.019 0.087 0.046 0.121 0.080s0.061 0.076 0.080 0.124c0.020 0.047 0.029 0.1 0.029 0.159s-0.009 0.111-0.029 0.159zM55.073 8.678h-0.234v1.22h0.28v-0.74l0.609 0.74h0.233v-1.22h-0.28v0.74zM56.786 9.899v-0.991h0.392v-0.23h-1.066v0.23h0.392v0.991zM57.506 9.637h0.566l0.109 0.261h0.297l-0.547-1.22h-0.279l-0.545 1.22h0.29l0.109-0.261zM57.791 8.955l0.194 0.467h-0.389l0.195-0.467zM58.908 9.006c0.035-0.035 0.076-0.061 0.124-0.080s0.1-0.028 0.157-0.028c0.060 0 0.116 0.012 0.167 0.035s0.098 0.060 0.14 0.107l0.181-0.167c-0.059-0.071-0.13-0.125-0.216-0.161s-0.181-0.055-0.287-0.055c-0.096 0-0.183 0.016-0.264 0.046s-0.151 0.074-0.21 0.131c-0.060 0.057-0.107 0.124-0.14 0.201s-0.050 0.161-0.050 0.253 0.017 0.176 0.050 0.253c0.033 0.077 0.079 0.143 0.139 0.201 0.059 0.056 0.129 0.1 0.206 0.13l0.004 0.001c0.081 0.031 0.168 0.046 0.263 0.046 0.107 0 0.204-0.019 0.289-0.056s0.157-0.091 0.216-0.162l-0.181-0.167c-0.042 0.048-0.088 0.086-0.14 0.109s-0.107 0.035-0.167 0.035c-0.057 0-0.11-0.009-0.157-0.028s-0.089-0.046-0.124-0.080c-0.034-0.035-0.062-0.076-0.081-0.124s-0.029-0.1-0.029-0.159c0-0.058 0.009-0.111 0.029-0.159s0.047-0.088 0.081-0.124zM60.394 9.899v-0.991h0.391v-0.23h-1.065v0.23h0.391v0.991zM59.9 2.323c0.431 0.010 0.862 0.004 1.293 0.002 0.407-0.003 1.772 0.008 2.175-0.051 0.072-0.010 0.149-0.589 0.166-0.789 0.005-0.048-0.050-0.071-0.090-0.072-0.463-0.002-1.708-0.003-2.171-0.005-0.39-0.001-0.852-0.059-1.222 0.076-0.003 0.001-0.007 0.003-0.013 0.006-0.008-0.019-0.017-0.038-0.026-0.057-0.025-0.047-0.13 0.004-0.141 0.042-0.075 0.251-0.054 0.521-0.054 0.782 0.002 0.045 0.045 0.064 0.084 0.065zM60.409 1.627c0.228 0.010 0.455 0.015 0.683 0.019 0.427 0.006 1.634 0.012 2.061 0.018-0.017 0.137-0.037 0.271-0.004 0.403-0.342-0.030-1.485 0-1.823 0.005-0.393 0.005-0.784 0.007-1.177 0.021-0.018-0.165-0.028-0.342-0.075-0.502 0.101 0.043 0.216 0.032 0.335 0.037zM59.9 3.478c0.431 0.010 0.862 0.004 1.293 0.002 0.407-0.003 1.772 0.008 2.175-0.051 0.072-0.010 0.149-0.589 0.166-0.789 0.005-0.048-0.050-0.071-0.090-0.072-0.463-0.002-1.708-0.003-2.171-0.005-0.39-0.001-0.852-0.059-1.222 0.076-0.003 0.001-0.007 0.003-0.013 0.006-0.008-0.019-0.017-0.038-0.026-0.057-0.025-0.047-0.13 0.004-0.141 0.042-0.075 0.251-0.054 0.521-0.054 0.782 0.002 0.045 0.045 0.064 0.084 0.065zM60.409 2.782c0.228 0.010 0.455 0.015 0.683 0.019 0.427 0.006 1.634 0.012 2.061 0.018-0.017 0.137-0.037 0.271-0.004 0.403-0.342-0.030-1.485 0-1.823 0.005-0.393 0.005-0.784 0.007-1.177 0.021-0.018-0.165-0.028-0.342-0.075-0.502 0.101 0.043 0.216 0.032 0.335 0.037zM59.891 4.633c0.463 0.002 0.926 0.003 1.39 0.005 0.39 0.001 1.633 0.059 2.003-0.076 0.003-0.001 0.007-0.003 0.013-0.006 0.008 0.019 0.017 0.038 0.026 0.057 0.025 0.047 0.13-0.004 0.141-0.042 0.075-0.251 0.054-0.521 0.054-0.782 0-0.045-0.042-0.064-0.082-0.065-0.431-0.010-1.643-0.004-2.074-0.002-0.407 0.003-0.992-0.008-1.394 0.051-0.072 0.010-0.149 0.589-0.166 0.789-0.005 0.048 0.050 0.072 0.089 0.072zM60.187 3.98c0.342 0.030 0.704 0 1.043-0.005 0.393-0.005 1.566-0.007 1.957-0.021 0.018 0.165 0.028 0.342 0.075 0.502-0.101-0.044-0.215-0.033-0.334-0.038-0.228-0.010-1.235-0.015-1.463-0.019-0.427-0.006-0.854-0.012-1.281-0.018 0.016-0.136 0.036-0.27 0.003-0.402zM33.877 17.992c0.041 0.154 0.359-0.059 0.374-0.158 0.002-0.014 0.003-0.028 0.006-0.042 0.685 0.1 1.444 0.024 2.114 0.024 0.925 0 3.185-0.015 4.11-0.030 1.807-0.029 9.045 0.117 10.856 0.020 1.761-0.094 5.325-0.108 5.349 0.034 0.035 0.209 0.424 0.013 0.46-0.118 0.198-0.739 0.178-1.518 0.133-2.277-0.040-0.688-0.094-2.194-0.205-2.194-0.001 0-0.264-0.193-0.264-0.193-0.023 0-7.226-0.007-10.846 0-1.828 0.004-3.656 0.027-5.484 0.037-0.893 0.005-1.786 0.010-2.679 0.024-0.727 0.011-3.396-0.092-3.764-0.032-0.055 0.009-0.184 0.1-0.202 0.134-0.4 0.765-0.153 1.65-0.162 2.501-0.011 0.911-0.026 1.386 0.205 2.268zM34.865 13.592c1.093 0.042 4.519 0.012 5.26 0.016 1.815 0.010 3.631 0.023 5.446 0.027 3.673 0.007 7.354 0.077 11.022-0.139-0.048 0.713 0.047 1.447 0.051 2.162 0.003 0.441-0.003 1.057 0 1.504-1.673-0.006-3.387 0.007-5.056 0.098-1.812 0.099-8.989-0.018-10.764 0.031-0.933 0.026-1.867 0.044-2.801 0.069-0.783 0.021-2.947-0.020-3.728 0.1 0.1-1.018 0.007-1.411 0.002-2.739-0.001-0.173-0.013-0.345-0.026-0.517 0-0.004-0.001-0.007-0.001-0.011-0.020-0.333 0.26-0.613 0.594-0.6zM63.34 13.082c-0.916-0.006-1.314-0.071-2.226-0.087-0.969-0.018-3.030-0.098-3.202 0.16-0.097 0.144-0.066 4.134-0.066 4.176-0.003 0.294 0 0.365 0.222 0.399-0.018 0.001 5.131 0.066 5.139 0.017 0.185-0.014 0.291-0.421 0.050-0.441 0.049-0.608 0.033-1.22 0.024-1.832-0.008-0.604 0-1.34-0.005-1.9 0.153-0.004 0.461-0.488 0.063-0.491zM58.337 17.272c0.116-1.012-0.108-2.396-0.038-3.434 0.014-0.204 0.192-0.358 0.394-0.34 0.611 0.052 1.279-0.012 1.934 0.004 0.734 0.018 2.013 0.082 2.013 0.082s0.022 1.405 0.013 2.105c-0.007 0.526-0.025 1.058 0.006 1.584-1.169-0.045-3.754 0.154-4.321 0z"></path>
<path d="M61.986 16.061c-0.074-0.1-0.818-0.607-0.925-0.665-0.093-0.050-0.179-0.097-0.264-0.137 0.185-0.447 0.071-1.018-0.45-1.17-0.315-0.092-0.705-0.016-0.978 0.163-0.14 0.092-0.352 0.269-0.395 0.461-0.006 0.007-0.011 0.014-0.016 0.020-0.186 0.266-0.153 0.602 0.042 0.854 0.358 0.464 1.001 0.451 1.436 0.128 0.045 0.027 0.089 0.055 0.132 0.084 0.097 0.067 0.747 0.583 0.854 0.633 0.132 0.060 0.301 0.102 0.444 0.151 0.087 0.030 0.39-0.097 0.313-0.221-0.060-0.099-0.127-0.213-0.194-0.3zM60.092 15.398c0.023 0.071-0.26 0.162-0.355 0.1-0.156-0.099-0.285-0.24-0.353-0.413-0.055-0.139-0.114-0.566 0.117-0.572 0.039-0.001 0.119-0.030 0.167-0.072 0.057-0.005 0.117-0.002 0.183 0.018 0.312 0.091 0.473 0.402 0.463 0.711-0.112 0.029-0.26 0.114-0.222 0.228zM37.101 16.095c-0.056 0.023-0.127 0.035-0.214 0.035s-0.17-0.016-0.248-0.048c-0.078-0.032-0.14-0.071-0.184-0.117l-0.043 0.072c0.047 0.053 0.114 0.096 0.201 0.128s0.179 0.050 0.276 0.050c0.109 0 0.197-0.016 0.267-0.048s0.121-0.074 0.154-0.127c0.033-0.053 0.050-0.111 0.050-0.172 0-0.068-0.015-0.123-0.045-0.166s-0.069-0.076-0.118-0.101c-0.045-0.024-0.098-0.045-0.153-0.060l-0.006-0.001c-0.058-0.016-0.115-0.031-0.174-0.045s-0.113-0.031-0.161-0.051c-0.048-0.020-0.087-0.046-0.117-0.081s-0.044-0.079-0.044-0.135c0-0.048 0.013-0.093 0.039-0.132s0.067-0.072 0.122-0.095c0.055-0.024 0.124-0.035 0.207-0.035 0.059 0 0.119 0.009 0.182 0.027s0.122 0.046 0.177 0.084l0.035-0.077c-0.050-0.036-0.11-0.065-0.18-0.086s-0.142-0.032-0.214-0.032c-0.107 0-0.195 0.016-0.263 0.049s-0.119 0.075-0.152 0.127c-0.033 0.053-0.048 0.111-0.048 0.173 0 0.069 0.015 0.125 0.044 0.168s0.068 0.077 0.117 0.102c0.048 0.025 0.102 0.046 0.161 0.061s0.116 0.031 0.174 0.045c0.058 0.014 0.111 0.031 0.159 0.051s0.088 0.046 0.118 0.081c0.030 0.034 0.045 0.079 0.045 0.136 0 0.047-0.013 0.091-0.040 0.129s-0.069 0.069-0.125 0.091zM38.588 16.119h-0.808v-0.54h0.698v-0.085h-0.698v-0.519h0.78v-0.086h-0.875v1.316h0.903zM38.987 15.835h0.759l0.167 0.37h0.103l-0.603-1.316h-0.096l-0.603 1.316h0.103l0.168-0.37zM39.367 14.995l0.344 0.759h-0.687l0.342-0.759zM40.35 15.775h0.374c0.045 0 0.087-0.004 0.126-0.009l0.314 0.44h0.109l-0.328-0.46c0.022-0.007 0.043-0.015 0.062-0.023 0.078-0.035 0.14-0.086 0.181-0.153s0.063-0.144 0.063-0.236c0-0.094-0.021-0.174-0.063-0.24s-0.103-0.116-0.181-0.152-0.173-0.053-0.283-0.053h-0.47v1.316h0.096v-0.43zM40.35 14.976h0.374c0.14 0 0.247 0.031 0.321 0.093s0.11 0.15 0.11 0.264c0 0.113-0.036 0.201-0.11 0.263s-0.18 0.094-0.321 0.094h-0.374v-0.714zM41.669 16.025c0.060 0.059 0.132 0.107 0.211 0.139l0.004 0.002c0.083 0.034 0.173 0.050 0.271 0.050 0.092 0 0.179-0.015 0.26-0.047s0.149-0.076 0.206-0.138l-0.060-0.062c-0.056 0.057-0.118 0.097-0.186 0.121s-0.14 0.036-0.216 0.036c-0.084 0-0.161-0.015-0.233-0.044-0.073-0.029-0.135-0.071-0.187-0.122l0 0c-0.051-0.051-0.093-0.113-0.122-0.18l-0.001-0.004c-0.028-0.066-0.044-0.144-0.044-0.225 0-0.002 0-0.004 0-0.005v0c0-0.083 0.015-0.159 0.044-0.23s0.071-0.131 0.124-0.184 0.115-0.093 0.187-0.122c0.072-0.029 0.149-0.044 0.233-0.044 0.076 0 0.148 0.012 0.216 0.036s0.13 0.064 0.186 0.119l0.060-0.062c-0.056-0.060-0.125-0.107-0.203-0.136l-0.004-0.001c-0.081-0.030-0.166-0.045-0.26-0.045-0.097 0-0.187 0.017-0.27 0.050-0.084 0.034-0.156 0.081-0.216 0.141l0-0c-0.061 0.060-0.11 0.13-0.143 0.211s-0.050 0.169-0.050 0.266c0 0.097 0.017 0.185 0.050 0.266s0.081 0.153 0.142 0.213zM43.036 15.58h0.875v0.626h0.096v-1.316h-0.096v0.606h-0.875v-0.606h-0.096v1.316h0.096zM57.926 2.569c0.355-0.268 0.461-0.829 0.017-1.074-0.194-0.108-0.437-0.121-0.655-0.073-0.192 0.043-0.464 0.156-0.499 0.353-0.001 0.006 0.001 0.009 0.002 0.014-0.012 0.012-0.024 0.023-0.035 0.035-0.152 0.166-0.186 0.378-0.080 0.572 0.233 0.43 0.874 0.456 1.25 0.173zM57.173 1.731c0.011-0.003 0.052-0.026 0.031-0.039-0.003-0.002-0.006-0.003-0.008-0.005 0.142-0.042 0.287-0.037 0.437 0.060 0.209 0.137 0.254 0.41 0.136 0.611-0.14 0.237-0.442 0.148-0.62-0.011-0.161-0.141-0.291-0.538 0.025-0.617zM56.403 4.642c0.322 0.019 1.865 0.011 1.901-0.027 0.474-0.501 0.112-1.819-0.83-1.753-0.367 0.025-0.689 0.243-0.867 0.526-0.166 0.264-0.376 1.244-0.205 1.254zM56.827 3.689c0.042-0.111 0.243-0.43 0.474-0.453 0.167-0.016 0.431 0.021 0.502 0.159 0 0.001 0.001 0.002 0.001 0.003 0.141 0.231 0.199 0.513 0.211 0.773 0.002 0.039 0 0.080-0.005 0.122-0.151-0.006-0.405 0.022-0.537 0.031-0.289 0.019-0.485-0.020-0.771 0.021 0.096-0.228 0.034-0.423 0.124-0.656zM1.75 17.992c0.052 0.154 0.465-0.059 0.485-0.158 0.003-0.014 0.005-0.028 0.006-0.042 0.886 0.1 1.87 0.024 2.738 0.024 1.197 0 4.126-0.015 5.323-0.030 2.341-0.029 11.714 0.117 14.060 0.020 2.281-0.094 6.897-0.108 6.927 0.034 0.046 0.209 0.55 0.013 0.594-0.118 0.256-0.739 0.23-1.518 0.173-2.277-0.052-0.688-0.121-2.194-0.265-2.194-0.001 0-0.341-0.193-0.342-0.193-0.031 0-9.359-0.007-14.046 0-2.367 0.004-4.735 0.027-7.102 0.037-1.156 0.005-2.313 0.010-3.47 0.024-0.94 0.011-4.398-0.092-4.874-0.032-0.072 0.009-0.239 0.1-0.261 0.134-0.519 0.765-0.198 1.65-0.209 2.501-0.015 0.911-0.034 1.386 0.265 2.268zM3.030 13.592c1.416 0.042 5.852 0.012 6.813 0.016 2.351 0.010 4.702 0.023 7.053 0.027 4.756 0.007 9.524 0.077 14.275-0.139-0.062 0.713 0.061 1.447 0.066 2.162 0.003 0.441-0.004 1.057 0 1.504-2.167-0.006-4.387 0.007-6.548 0.098-2.347 0.099-11.641-0.018-13.94 0.031-1.209 0.026-2.419 0.044-3.627 0.069-1.015 0.021-3.817-0.020-4.829 0.1 0.13-1.018 0.009-1.411 0.003-2.739-0.001-0.173-0.017-0.345-0.034-0.517 0-0.004-0.001-0.007-0.001-0.011-0.030-0.333 0.335-0.613 0.768-0.6zM2.764 3.576h-0.936v-1.58h-0.433v1.947h1.368zM3.147 3.69c0.091 0.091 0.2 0.161 0.326 0.211s0.262 0.075 0.409 0.075c0.146 0 0.281-0.025 0.404-0.075s0.232-0.12 0.323-0.21 0.163-0.196 0.215-0.32c0.051-0.124 0.077-0.258 0.077-0.402 0-0.146-0.026-0.28-0.077-0.402s-0.123-0.228-0.215-0.318c-0.091-0.091-0.199-0.161-0.323-0.211s-0.26-0.075-0.406-0.075c-0.146 0-0.281 0.025-0.406 0.075s-0.233 0.121-0.326 0.211c-0.092 0.091-0.164 0.197-0.215 0.32s-0.076 0.256-0.076 0.4 0.025 0.278 0.076 0.4c0.051 0.124 0.122 0.23 0.214 0.321zM3.339 2.717c0.030-0.076 0.071-0.141 0.124-0.197 0.051-0.054 0.113-0.097 0.182-0.126l0.004-0.001c0.070-0.030 0.147-0.045 0.231-0.045s0.161 0.015 0.232 0.045c0.071 0.030 0.133 0.073 0.185 0.127s0.093 0.122 0.123 0.197c0.030 0.076 0.044 0.16 0.044 0.253s-0.015 0.177-0.044 0.253c-0.030 0.076-0.071 0.141-0.124 0.197-0.051 0.054-0.113 0.097-0.182 0.126l-0.004 0.001c-0.071 0.030-0.147 0.045-0.231 0.045s-0.161-0.015-0.232-0.045c-0.072-0.030-0.133-0.073-0.185-0.127s-0.093-0.122-0.123-0.199-0.044-0.161-0.044-0.252c0-0.092 0.015-0.177 0.044-0.252zM5.398 3.693c0.091 0.091 0.199 0.161 0.323 0.21s0.26 0.074 0.407 0.074c0.133 0 0.267-0.021 0.402-0.064s0.252-0.104 0.354-0.183v-0.79h-0.395v0.57c-0.029 0.016-0.058 0.030-0.087 0.040-0.081 0.029-0.164 0.043-0.249 0.043-0.089 0-0.17-0.015-0.244-0.045-0.075-0.030-0.139-0.074-0.191-0.129l-0-0c-0.053-0.056-0.095-0.122-0.124-0.195l-0.001-0.004c-0.030-0.076-0.044-0.159-0.044-0.25 0-0.093 0.015-0.177 0.044-0.253s0.072-0.141 0.126-0.197 0.119-0.099 0.194-0.127c0.074-0.030 0.157-0.045 0.248-0.045 0.094 0 0.181 0.018 0.261 0.054s0.154 0.091 0.221 0.166l0.277-0.267c-0.089-0.107-0.201-0.192-0.329-0.248l-0.006-0.002c-0.132-0.058-0.282-0.087-0.447-0.087-0.15 0-0.287 0.024-0.411 0.074-0.246 0.097-0.439 0.286-0.538 0.524l-0.002 0.006c-0.050 0.122-0.076 0.257-0.076 0.403s0.025 0.281 0.076 0.403c0.050 0.123 0.122 0.23 0.213 0.321zM7.455 3.69c0.091 0.091 0.2 0.161 0.326 0.211s0.262 0.075 0.409 0.075c0.146 0 0.281-0.025 0.404-0.075s0.232-0.12 0.323-0.21 0.163-0.196 0.215-0.32c0.051-0.124 0.077-0.258 0.077-0.402 0-0.146-0.026-0.28-0.077-0.402s-0.123-0.228-0.215-0.318c-0.091-0.091-0.199-0.161-0.323-0.211s-0.26-0.075-0.406-0.075c-0.146 0-0.281 0.025-0.406 0.075s-0.234 0.121-0.326 0.211c-0.092 0.091-0.164 0.197-0.215 0.32s-0.076 0.256-0.076 0.4 0.025 0.278 0.076 0.4c0.051 0.124 0.123 0.23 0.214 0.321zM7.647 2.717c0.030-0.076 0.071-0.141 0.124-0.197 0.051-0.054 0.113-0.097 0.182-0.126l0.004-0.001c0.070-0.030 0.147-0.045 0.231-0.045s0.161 0.015 0.232 0.045c0.071 0.030 0.133 0.073 0.185 0.127s0.093 0.122 0.123 0.197c0.030 0.076 0.044 0.16 0.044 0.253s-0.015 0.177-0.044 0.253c-0.030 0.076-0.071 0.141-0.124 0.197-0.051 0.054-0.113 0.097-0.182 0.126l-0.004 0.001c-0.071 0.030-0.147 0.045-0.231 0.045s-0.161-0.015-0.232-0.045c-0.072-0.030-0.133-0.073-0.185-0.127s-0.093-0.122-0.123-0.199-0.044-0.161-0.044-0.252c0-0.092 0.014-0.177 0.044-0.252zM56.76 28.466c-0.527-0.075-10.834-1.548-22.058-3.145 12.949-1.906 25.32-3.754 26.256-3.998 0.333-0.040 0.435-0.262 0.303-0.481-0.025-0.041-3.48 0.374-4.61 0.542-0.562 0.084-12.213 1.815-24.246 3.61-12.875-1.832-26.161-3.712-26.768-3.764-0.557-0.047-1.112-0.154-1.671-0.184 0 0-0.084-0.021-0.373 0.034-0.154 0.013-0.137 0.161-0.109 0.275 0.035 0.146 0.5 0.167 0.651 0.187 0.11 0.015 12.706 1.862 26.010 3.788-12.143 1.813-23.993 3.592-24.557 3.709-0.548 0.114-1.11 0.168-1.654 0.3 0 0-0.087 0.004-0.348 0.139-0.144 0.057-0.085 0.193-0.026 0.295 0.075 0.13 0.526 0.018 0.678-0.006 0.115-0.018 14.105-2.044 28.167-4.11 13.716 1.982 27.477 3.942 28.499 3.978 0.33 0.057 0.492-0.127 0.428-0.374-0.011-0.045-3.441-0.633-4.573-0.794z"></path>
<path d="M63.392 19.405c-0.029-0.111-0.007-0.223-0.051-0.334 0 0 0.002-0.006-0.011-0.020 0.005-0.045-0.006-0.094-0.033-0.144-0.020-0.037-3.7-0.105-4.91-0.101-1.245 0.005-53.38 0.185-54.628 0.247-0.591 0.029-1.187 0.007-1.778 0.051 0 0-0.091-0.007-0.383 0.073-0.005-0.034-0.011-0.070-0.025-0.104 0 0 0.007-0.017-0.073-0.073-0.030-0.030-0.149-0.022-0.24-0.013-0.116 0.011-0.077 0.103-0.075 0.134 0.002 0.046 0.032 10.997 0.224 11.407-0.006 0.067 0.165 0.093 0.361 0.073 0.037-0.004 0.105-0.696 0.101-0.923-0.004-0.225-0.171-9.293-0.239-10.2 0.168 0.040 0.481 0.018 0.604 0.016 0.245-0.002 58.492-0.032 60.671-0.224 0.016 0 0.031 0 0.045-0.001 0.006 1.303 0.044 10.876 0.224 11.259-0.007 0.067 0.165 0.093 0.361 0.073 0.037-0.004 0.105-0.696 0.101-0.923-0.004-0.235-0.184-10.037-0.246-10.272z"></path>
</symbol>
</defs>
</svg>
